<svg viewBox="0 0 154 59" fill="none" xmlns="http://www.w3.org/2000/svg">
<path d="M14.76 14.616H14.832C16.08 14.664 16.872 14.88 17.208 15.264C17.544 15.624 17.604 16.512 17.388 17.928C17.1 18.936 16.596 19.608 15.876 19.944C15.18 20.28 14.52 20.148 13.896 19.548C13.608 18.828 13.392 18.36 13.248 18.144C13.104 17.904 13.02 17.676 12.996 17.46C12.996 15.948 13.584 15 14.76 14.616ZM7.164 29.52C7.092 30.072 7.068 30.432 7.092 30.6L6.984 31.356V32.004C7.032 33.42 7.08 34.416 7.128 34.992C7.056 35.736 6.9 36.216 6.66 36.432C6.42 36.648 5.964 36.672 5.292 36.504C5.268 36.48 5.208 36.456 5.112 36.432C4.056 35.952 3.492 35.496 3.42 35.064L3.348 34.776C3.348 34.68 3.312 34.524 3.24 34.308L3.168 33.3C3.168 32.7 3.18 32.196 3.204 31.788V31.536C3.204 31.44 3.228 31.296 3.276 31.104C3.348 30.912 3.36 30.672 3.312 30.384C3.408 29.136 3.456 28.356 3.456 28.044C3.456 27.732 3.48 27.42 3.528 27.108C3.576 26.772 3.576 26.424 3.528 26.064L3.672 25.128C3.72 24.864 3.624 24.696 3.384 24.624C3.144 24.552 2.928 24.564 2.736 24.66C1.224 24.66 0.42 24.456 0.324 24.048C0.252 23.424 0.3 23.016 0.468 22.824C0.516 22.704 0.72 22.632 1.08 22.608C1.704 22.608 2.676 22.464 3.996 22.176C4.044 22.032 4.068 21.864 4.068 21.672L4.248 20.376C4.248 20.16 4.32 19.728 4.464 19.08C4.464 18.888 4.512 18.576 4.608 18.144L5.076 14.796C5.148 14.724 5.196 14.58 5.22 14.364C5.268 14.124 5.388 13.836 5.58 13.5C5.628 13.188 5.952 12.732 6.552 12.132C6.6 12.084 6.696 12.048 6.84 12.024L7.488 11.592C7.656 11.4 8.232 11.136 9.216 10.8C9.408 10.704 9.9 10.704 10.692 10.8C10.908 10.92 11.1 10.968 11.268 10.944L13.248 11.268C14.424 11.652 14.952 12.108 14.832 12.636C14.688 13.14 14.472 13.452 14.184 13.572C13.896 13.692 13.476 13.716 12.924 13.644H12.204C11.532 13.596 10.992 13.74 10.584 14.076C10.44 14.196 10.248 14.46 10.008 14.868C9.768 15.276 9.6 15.624 9.504 15.912C9.24 16.92 8.952 17.856 8.64 18.72C8.304 19.728 8.136 20.352 8.136 20.592C7.992 21.216 7.968 21.576 8.064 21.672C8.28 21.672 8.46 21.66 8.604 21.636C8.772 21.468 9.18 21.456 9.828 21.6L10.584 21.564C10.8 21.564 11.208 21.624 11.808 21.744C11.928 21.816 12.144 21.876 12.456 21.924C12.768 21.948 13.032 21.996 13.248 22.068L13.968 22.14L14.364 22.104C14.868 22.104 15.396 22.296 15.948 22.68L16.308 22.896C16.476 22.968 16.728 23.304 17.064 23.904V24.3L17.028 25.056C17.028 26.856 17.004 27.864 16.956 28.08C16.812 28.728 16.74 30.504 16.74 33.408V34.308C16.74 34.74 16.632 35.136 16.416 35.496C16.2 35.832 15.948 36.048 15.66 36.144C14.604 36.144 13.908 35.988 13.572 35.676C13.404 35.628 13.212 35.256 12.996 34.56C12.852 34.416 12.768 34.248 12.744 34.056C12.72 33.84 12.684 33.672 12.636 33.552C12.588 33.408 12.564 32.328 12.564 30.312L12.708 28.836V28.62C12.756 27.348 12.84 26.268 12.96 25.38C12.936 24.636 12.804 24.18 12.564 24.012C12.324 23.82 11.94 23.748 11.412 23.796L8.676 24.012L7.56 24.228C7.44 24.564 7.368 24.972 7.344 25.452C7.344 25.908 7.284 26.856 7.164 28.296V29.52ZM21.7924 16.74L22.0444 14.616L22.0804 13.5C22.0804 13.188 22.1404 12.948 22.2604 12.78L22.6204 12.276C23.2684 11.772 23.6884 11.484 23.8804 11.412C24.0724 11.34 24.3484 11.352 24.7084 11.448C25.0924 11.52 25.3204 11.592 25.3924 11.664L25.7884 11.988C26.0044 12.108 26.1124 12.3 26.1124 12.564C26.2324 12.708 26.2684 12.816 26.2204 12.888C26.0764 13.056 25.8364 14.472 25.5004 17.136L25.2124 22.032L25.0324 23.004C25.0324 23.316 25.0444 23.496 25.0684 23.544V24.192C25.0204 24.672 24.9724 24.972 24.9244 25.092C24.9244 25.212 24.9004 25.344 24.8524 25.488C24.9004 25.536 24.9244 25.728 24.9244 26.064C24.9244 26.376 24.8884 26.568 24.8164 26.64C24.7684 27.024 24.7444 27.396 24.7444 27.756C24.7444 28.092 24.7684 28.452 24.8164 28.836C24.8884 29.196 24.9124 29.556 24.8884 29.916L25.0324 31.284V31.824C25.0804 32.256 25.1044 32.604 25.1044 32.868L25.2844 34.74L25.4284 35.712C25.5004 36.12 25.4644 36.516 25.3204 36.9C25.2004 37.284 25.0084 37.524 24.7444 37.62C24.0004 37.932 23.1844 37.728 22.2964 37.008H22.0084C21.8404 36.816 21.7084 36.552 21.6124 36.216C21.4204 36.12 21.3364 35.952 21.3604 35.712C21.3844 35.472 21.3364 35.256 21.2164 35.064C21.0964 34.872 21.0364 34.704 21.0364 34.56C21.0364 34.248 21.0124 33.972 20.9644 33.732L21.0004 33.444C20.9284 33.372 20.8924 33.264 20.8924 33.12L20.8204 32.472V32.184C20.8204 31.992 20.8084 31.86 20.7844 31.788C20.7844 31.716 20.8204 31.596 20.8924 31.428C20.8204 31.332 20.8084 30.984 20.8564 30.384C21.0004 28.536 21.0724 27.264 21.0724 26.568L21.1084 25.704V24.66C21.1324 24.084 21.1444 23.352 21.1444 22.464C21.1684 21.576 21.2164 21.096 21.2884 21.024L21.2524 20.7C21.2524 20.124 21.3364 19.344 21.5044 18.36C21.6964 17.352 21.7924 16.812 21.7924 16.74ZM44.9488 33.804C44.9488 33.612 44.8528 33.432 44.6608 33.264C44.4688 33.072 44.3728 32.868 44.3728 32.652C44.3728 32.412 44.3248 32.028 44.2288 31.5C44.2768 31.404 44.2648 31.056 44.1928 30.456C44.2168 30.408 44.2048 30.06 44.1568 29.412C44.1328 28.764 44.1208 28.188 44.1208 27.684L43.7608 28.332C42.9928 30.204 42.6088 31.188 42.6088 31.284L41.7808 33.804L41.5648 34.668C41.3728 35.292 41.3368 35.928 41.4568 36.576C41.5048 36.792 41.2528 37.02 40.7008 37.26C40.5568 37.26 40.1968 37.188 39.6208 37.044C39.4288 37.044 39.2368 37.044 39.0448 37.044C38.8768 37.068 38.3848 36.948 37.5688 36.684C37.5688 36.588 37.3768 36.384 36.9928 36.072L36.8848 33.588C36.8848 33.06 36.9568 32.244 37.1008 31.14V30.24L37.2448 29.052L37.4248 26.82V26.1C36.7768 27.948 36.3448 29.148 36.1288 29.7C36.1288 29.988 35.8648 30.96 35.3368 32.616C34.8328 34.68 34.6288 36.012 34.7248 36.612C34.7248 36.756 34.6768 36.864 34.5808 36.936C34.5088 37.032 34.3048 37.164 33.9688 37.332C33.4408 37.332 32.6368 37.224 31.5568 37.008L30.9088 36.72C30.6928 36.648 30.5008 36.36 30.3328 35.856C30.1648 35.352 30.0688 34.92 30.0448 34.56C29.9488 34.44 29.9008 34.164 29.9008 33.732L29.8648 33.3C29.6968 30.732 29.6128 28.968 29.6128 28.008C29.6608 27.864 29.6848 27.624 29.6848 27.288V26.28C29.6848 25.848 29.7088 25.284 29.7568 24.588C29.8288 23.892 29.8648 23.388 29.8648 23.076L29.8288 21.888C29.9248 21.504 30.4288 21.264 31.3408 21.168C31.7488 21.168 32.0968 21.24 32.3848 21.384C32.8648 21.696 33.1648 22.068 33.2848 22.5C33.4288 22.932 33.5128 23.484 33.5368 24.156C33.5608 24.828 33.5608 25.392 33.5368 25.848C33.5128 27.144 33.5728 28.056 33.7168 28.584C33.8608 28.296 34.0528 27.792 34.2928 27.072C34.3408 27.024 34.5928 26.388 35.0488 25.164L35.8048 22.896C36.3568 22.152 36.6568 21.768 36.7048 21.744C36.7768 21.696 36.9688 21.66 37.2808 21.636C37.6408 21.612 38.0488 21.708 38.5048 21.924C38.9848 22.116 39.2368 22.224 39.2608 22.248C39.3088 22.248 39.5248 22.368 39.9088 22.608C40.0768 22.752 40.2328 23.028 40.3768 23.436C40.5208 23.844 40.5928 24.18 40.5928 24.444C40.6408 25.404 40.6648 25.908 40.6648 25.956V26.388C40.6168 27.828 40.6528 28.62 40.7728 28.764C40.9408 28.14 41.2648 27.336 41.7448 26.352L42.1048 25.416L42.8248 23.94C42.8008 23.868 42.9328 23.532 43.2208 22.932L43.5808 21.816C43.7968 21.072 44.3968 20.484 45.3808 20.052C45.5728 20.052 46.0288 20.184 46.7488 20.448C47.2288 20.448 47.6608 20.772 48.0448 21.42C48.2128 21.684 48.2968 22.032 48.2968 22.464C48.2968 22.56 48.2608 23.148 48.1888 24.228V25.38C48.1408 25.668 48.1288 25.92 48.1528 26.136L48.1168 27.252V29.376C48.1168 29.664 48.1048 29.856 48.0808 29.952L48.1888 31.968C48.2848 32.136 48.3328 32.376 48.3328 32.688C48.4768 33.888 48.7648 34.8 49.1968 35.424L49.4488 35.892C48.8968 36.852 48.0328 37.14 46.8568 36.756C46.7608 36.588 46.6288 36.444 46.4608 36.324C46.3168 36.204 46.1128 36.012 45.8488 35.748C45.8488 35.724 45.6808 35.472 45.3448 34.992C45.3448 34.704 45.2128 34.308 44.9488 33.804Z" fill="#26C6DA"/>
<path d="M102.404 25.416C102.524 24.48 102.56 23.976 102.512 23.904C102.392 23.952 102.248 24.084 102.08 24.3L100.892 25.632C99.644 27.192 99.02 28.116 99.02 28.404C99.02 28.452 98.936 28.644 98.768 28.98L98.804 29.556L98.732 31.104V31.5C98.732 32.532 98.768 33.276 98.84 33.732C98.864 33.66 99.068 33.504 99.452 33.264L100.064 32.436C100.688 31.668 101.084 31.116 101.252 30.78C101.78 29.172 102.044 28.26 102.044 28.044C102.044 27.708 102.14 27.228 102.332 26.604C102.332 26.388 102.356 26.136 102.404 25.848V25.416ZM94.7 24.84L94.844 23.184C94.916 22.992 94.928 22.74 94.88 22.428L95.132 20.952C95.132 20.736 95.12 20.508 95.096 20.268C95.072 20.004 95.084 19.824 95.132 19.728C95.228 19.536 95.48 19.368 95.888 19.224H95.744C95.984 19.08 96.32 19.068 96.752 19.188C97.184 19.308 97.544 19.416 97.832 19.512C98 19.728 98.216 19.968 98.48 20.232L98.516 21.384C98.516 21.984 98.552 22.608 98.624 23.256C98.6 23.52 98.6 23.688 98.624 23.76L99.236 23.112C99.26 23.064 99.524 22.8 100.028 22.32C100.556 21.84 100.892 21.54 101.036 21.42C101.036 21.3 101.18 21.204 101.468 21.132C102.092 20.988 102.62 20.988 103.052 21.132C103.484 21.252 103.724 21.312 103.772 21.312L105.104 21.888C105.104 21.984 105.224 22.068 105.464 22.14L105.788 22.32C105.908 22.32 106.064 22.404 106.256 22.572C106.544 22.62 106.652 22.824 106.58 23.184C106.58 23.28 106.616 23.376 106.688 23.472V24.336C106.688 24.72 106.568 25.404 106.328 26.388C106.112 27.348 105.968 27.912 105.896 28.08C105.848 28.248 105.776 28.464 105.68 28.728C105.608 28.992 105.524 29.244 105.428 29.484C105.308 29.892 105.068 30.456 104.708 31.176C104.348 31.872 103.988 32.424 103.628 32.832C102.788 34.008 101.852 34.944 100.82 35.64C99.692 36.072 98.984 36.324 98.696 36.396C98.624 36.396 98.624 36.828 98.696 37.692V40.284L98.804 41.868L98.84 43.488C98.888 44.28 98.864 44.724 98.768 44.82L98.336 45.18C98.024 45.3 97.748 45.312 97.508 45.216C97.028 45.072 96.74 44.964 96.644 44.892C96.548 44.892 96.392 44.796 96.176 44.604L95.78 44.46C95.444 44.508 95.24 44.424 95.168 44.208C94.928 44.016 94.808 43.848 94.808 43.704L94.268 42.912C94.124 42.552 94.052 42.216 94.052 41.904C93.908 41.376 93.86 40.968 93.908 40.68L93.836 39.312V37.404C93.836 36.756 93.812 36.336 93.764 36.144C93.716 36 93.74 34.728 93.836 32.328C93.908 31.848 93.944 31.548 93.944 31.428L94.484 27L94.592 25.776V25.488C94.664 25.2 94.7 24.984 94.7 24.84ZM109.804 14.58L109.876 14.112C109.876 14.04 109.9 13.932 109.948 13.788C110.044 13.764 110.092 13.68 110.092 13.536C110.092 13.392 110.116 13.26 110.164 13.14C110.14 12.996 110.236 12.768 110.452 12.456C110.668 12.12 110.884 11.868 111.1 11.7C111.244 11.7 111.34 11.676 111.388 11.628H111.82C112.492 11.628 112.888 11.676 113.008 11.772C113.272 11.892 113.404 12.324 113.404 13.068C113.428 13.14 113.44 13.32 113.44 13.608L113.404 13.86V14.148C113.404 14.268 113.404 14.4 113.404 14.544C113.428 14.688 113.428 14.832 113.404 14.976V15.948C113.356 17.484 113.332 18.504 113.332 19.008C113.332 19.488 113.32 19.752 113.296 19.8C113.32 19.92 113.332 20.784 113.332 22.392C113.404 23.592 113.44 24.732 113.44 25.812V26.64C113.44 27.192 113.428 27.576 113.404 27.792L113.44 28.116C113.392 28.164 113.368 28.308 113.368 28.548V29.052L113.764 28.008C113.764 27.816 113.872 27.54 114.088 27.18L114.232 26.64C114.232 26.544 114.328 26.292 114.52 25.884C114.736 25.476 114.892 25.08 114.988 24.696L115.24 24.264C115.24 24.024 115.288 23.856 115.384 23.76L115.42 23.544C115.612 23.208 115.708 22.992 115.708 22.896L115.744 22.356C115.744 22.308 115.768 22.248 115.816 22.176C115.984 21.984 116.104 21.744 116.176 21.456C116.776 20.664 117.592 20.34 118.624 20.484C119.872 20.652 120.496 21.444 120.496 22.86V23.94C120.568 24.3 120.556 24.576 120.46 24.768L120.496 25.38V26.064L120.604 28.116V28.872C120.604 29.04 120.592 29.184 120.568 29.304C120.592 29.376 120.604 29.532 120.604 29.772C120.556 29.796 120.556 29.904 120.604 30.096C120.652 30.264 120.676 30.396 120.676 30.492C120.676 30.564 120.7 30.9 120.748 31.5C120.748 32.916 120.904 34.236 121.216 35.46L121.252 35.712V35.928C121.468 36.528 121.432 36.924 121.144 37.116C120.88 37.284 120.64 37.26 120.424 37.044C120.352 37.068 120.076 37.056 119.596 37.008C119.332 37.152 118.864 36.96 118.192 36.432C118.048 36.336 117.916 36.216 117.796 36.072C117.772 36.024 117.736 35.928 117.688 35.784C117.592 35.448 117.532 35.184 117.508 34.992C117.292 34.608 117.184 34.368 117.184 34.272L116.968 32.544C117.064 32.52 117.04 32.22 116.896 31.644C116.752 31.068 116.656 30.288 116.608 29.304V28.98C116.608 28.524 116.62 28.296 116.644 28.296C116.476 28.296 116.272 28.896 116.032 30.096L115.78 31.284V31.644C115.684 31.836 115.576 31.98 115.456 32.076L114.34 36.684C114.388 36.876 114.364 37.008 114.268 37.08C114.172 37.176 113.992 37.236 113.728 37.26H112.792C112.696 37.356 112.552 37.404 112.36 37.404C111.76 37.404 111.424 37.2 111.352 36.792C111.088 36.72 110.956 36.576 110.956 36.36V36.144C110.668 35.568 110.512 35.196 110.488 35.028C110.488 34.86 110.488 34.704 110.488 34.56C110.44 34.464 110.416 34.332 110.416 34.164C110.368 34.116 110.344 33.984 110.344 33.768C110.224 33.456 110.188 32.952 110.236 32.256L110.2 31.824C110.224 31.488 110.236 31.236 110.236 31.068V30.42L110.272 30.096V29.7C110.272 29.604 110.248 29.436 110.2 29.196C110.272 29.076 110.284 28.932 110.236 28.764V27.864C110.236 27.408 110.224 27.132 110.2 27.036V25.956C110.176 25.62 110.176 25.392 110.2 25.272L110.056 23.976C110.104 23.52 110.08 23.076 109.984 22.644C110.008 22.548 109.96 22.02 109.84 21.06C109.744 20.1 109.72 19.536 109.768 19.368C109.768 19.2 109.744 19.02 109.696 18.828C109.672 18.636 109.696 18.492 109.768 18.396C109.768 18.372 109.744 18.216 109.696 17.928C109.648 17.664 109.648 17.376 109.696 17.064C109.648 16.944 109.648 16.752 109.696 16.488C109.768 16.416 109.78 16.272 109.732 16.056V15.444L109.876 15.084C109.828 14.94 109.804 14.772 109.804 14.58ZM126.467 13.428C128.075 13.428 129.203 13.752 129.851 14.4C129.851 14.808 129.575 15.636 129.023 16.884C128.927 17.292 128.771 17.616 128.555 17.856L128.087 18.324C127.967 18.396 127.847 18.432 127.727 18.432C126.863 18.648 126.191 18.48 125.711 17.928C125.615 17.784 125.495 17.676 125.351 17.604C125.231 17.532 125.135 17.316 125.063 16.956C124.847 16.644 124.739 16.404 124.739 16.236C124.691 14.748 125.231 13.812 126.359 13.428H126.467ZM126.179 21.924C126.419 21.804 126.983 21.924 127.871 22.284C127.967 22.38 128.111 22.476 128.303 22.572L128.879 23.04C128.975 23.136 129.023 23.292 129.023 23.508V26.676C129.023 27.156 128.999 27.588 128.951 27.972V28.188C128.879 29.172 128.939 31.392 129.131 34.848C129.203 35.52 129.047 35.928 128.663 36.072C128.255 36.072 127.991 36.012 127.871 35.892C127.775 35.844 127.691 35.82 127.619 35.82H127.367L127.151 35.892C127.079 35.892 126.947 35.844 126.755 35.748C126.563 35.628 126.431 35.508 126.359 35.388C126.311 35.268 126.215 35.196 126.071 35.172C125.807 35.076 125.663 34.896 125.639 34.632C125.303 33.984 125.123 33.6 125.099 33.48C125.099 33.36 125.063 33.228 124.991 33.084L124.811 29.952C124.811 29.592 124.835 29.316 124.883 29.124V28.26C124.907 27.996 124.931 27.516 124.955 26.82C124.979 26.1 125.015 25.524 125.063 25.092C125.015 24.468 124.991 24.048 124.991 23.832C124.991 23.616 125.003 23.46 125.027 23.364C124.763 23.1 124.775 22.74 125.063 22.284C125.375 22.044 125.675 21.924 125.963 21.924H126.179ZM136.675 12.528L137.575 12.348C138.151 12.42 138.583 12.576 138.871 12.816C139.183 13.056 139.327 13.332 139.303 13.644C138.943 14.868 138.655 16.152 138.439 17.496V18.036C138.343 19.164 138.211 20.124 138.043 20.916L137.179 29.124V31.608C137.155 33.504 137.263 35.004 137.503 36.108L137.575 36.54C137.551 36.828 137.335 37.02 136.927 37.116C136.543 37.236 136.291 37.284 136.171 37.26C136.051 37.236 135.919 37.2 135.775 37.152L134.803 36.792C134.419 36.6 133.999 36.252 133.543 35.748C133.255 35.484 133.135 35.292 133.183 35.172C133.135 35.076 133.015 33.984 132.823 31.896C132.871 31.464 132.895 31.104 132.895 30.816V30.204C132.895 29.724 132.907 29.376 132.931 29.16C132.931 29.112 132.955 28.824 133.003 28.296C133.123 26.928 133.195 26.184 133.219 26.064V25.488C133.219 24.072 133.339 22.932 133.579 22.068C133.531 21.876 133.507 21.696 133.507 21.528C133.747 21.072 133.831 20.136 133.759 18.72C134.167 17.28 134.407 16.32 134.479 15.84C134.551 15.336 134.659 14.952 134.803 14.688C134.803 14.256 134.995 13.824 135.379 13.392C135.763 12.936 136.195 12.648 136.675 12.528ZM148.407 22.788C148.359 22.668 148.191 22.62 147.903 22.644C147.639 22.668 147.435 22.812 147.291 23.076C146.307 24.636 145.779 26.304 145.707 28.08C146.523 28.272 147.219 27.912 147.795 27C148.539 24.648 148.743 23.244 148.407 22.788ZM145.599 37.08L145.239 37.008L144.735 36.504C144.591 36.504 144.483 36.444 144.411 36.324C144.147 36.012 143.667 35.388 142.971 34.452L142.431 32.472C142.431 32.088 142.359 31.752 142.215 31.464C141.975 30.384 141.831 29.772 141.783 29.628C141.735 29.46 141.699 29.016 141.675 28.296C141.675 27.576 141.711 27.048 141.783 26.712C141.855 26.256 142.299 25.128 143.115 23.328C143.331 23.112 143.463 22.824 143.511 22.464L144.087 21.636C144.615 21.012 145.179 20.556 145.779 20.268C145.779 20.22 146.187 20.1 147.003 19.908C147.171 19.884 147.555 19.944 148.155 20.088C149.595 20.424 150.495 20.844 150.855 21.348L150.963 21.528C151.419 22.176 151.683 23.172 151.755 24.516C151.683 25.116 151.623 25.62 151.575 26.028C151.527 26.436 151.263 27.18 150.783 28.26C150.423 28.932 150.075 29.472 149.739 29.88C149.211 30.264 148.851 30.456 148.659 30.456C148.563 30.504 148.359 30.528 148.047 30.528H147.219C147.147 30.504 146.991 30.492 146.751 30.492C146.511 30.492 146.163 30.432 145.707 30.312C145.707 30.84 145.851 31.596 146.139 32.58C146.451 33.54 146.703 34.128 146.895 34.344C147.399 34.728 147.795 34.98 148.083 35.1C148.371 35.22 148.755 35.244 149.235 35.172C149.715 35.076 150.063 34.908 150.279 34.668L151.215 33.516C151.815 32.7 152.427 32.628 153.051 33.3C153.339 33.612 153.447 33.924 153.375 34.236C153.327 34.524 153.087 35.112 152.655 36C152.295 36.576 151.911 37.056 151.503 37.44C150.759 37.824 150.315 38.016 150.171 38.016C149.955 38.04 149.619 38.004 149.163 37.908C148.923 38.028 148.515 38.016 147.939 37.872C147.939 37.824 147.867 37.788 147.723 37.764C147.603 37.764 147.435 37.728 147.219 37.656L147.291 37.62C147.243 37.62 147.099 37.62 146.859 37.62L145.851 37.08H145.599Z" fill="#26C6DA"/>
<path d="M39.8397 57.582C40.2538 56.7742 40.6102 55.6083 41.0069 54.7906C42.6698 51.3364 45.2691 49.1758 49.0525 48.8425C53.704 48.044 58.5807 48.1652 63.5403 47.7689C68.0558 46.8946 71.5888 46.6914 76.4165 43.7179C76.9093 43.4143 77.2209 42.9066 78.394 42.0956C75.5819 42.2937 73.0627 42.5164 70.2543 42.4529C60.4948 42.2006 51.828 33.8626 51.1548 23.5988C50.3776 11.7017 58.6787 3.68102 67.0793 1.94904C67.9422 1.7037 68.7107 1.56077 69.5377 1.5025C70.3648 1.44423 72.2676 1.38713 73.0714 1.50463C77.2269 1.79393 81.1984 3.33957 84.4627 5.938C87.727 8.53642 90.131 12.0658 91.3583 16.0613C91.7441 17.3689 92.1759 18.6204 92.2588 19.7976L92.3553 21.1674C92.529 23.633 92.0208 26.4871 90.9558 28.8312C85.7096 40.2573 77.3363 47.8826 64.4489 49.4802C59.7137 50.0697 54.9183 50.1183 50.166 50.5421C45.0104 50.9832 42.3816 53.5488 41.5719 58.5723C40.8611 58.4722 39.623 59.3047 39.8397 57.582ZM66.4477 15.6361C66.1872 11.9393 63.6577 9.0698 60.8045 9.3153C58.3205 9.52924 55.2471 13.8057 55.3792 16.8609C55.4865 19.4061 57.7327 21.3223 60.4897 21.1281C64.1817 20.9124 66.6373 18.6427 66.4477 15.6361ZM80.4268 9.71257C80.2485 6.78861 76.8468 4.67571 72.7952 4.97784C70.1154 5.16664 68.2973 7.1245 68.4262 9.66263C68.5679 12.5391 71.7626 16.0403 74.1013 15.8867C77.4731 15.688 80.6043 12.6255 80.4268 9.71257ZM75.1079 38.6683C79.1055 38.3867 82.2245 35.8589 82.0686 33.0168C81.9018 30.0197 78.2946 27.3484 74.8483 27.6691C72.4977 27.8903 69.9201 31.7315 70.1791 34.6219C70.4069 37.1475 72.4832 38.8533 75.1079 38.6683ZM61.3776 24.6861C58.0669 24.886 56.2682 26.57 56.4439 29.2994C56.6572 32.3266 60.4577 36.2467 63.0685 36.1017C65.8255 35.9075 67.7041 33.1556 67.4716 29.5403C67.239 25.9249 65.4383 24.4334 61.3611 24.6873L61.3776 24.6861ZM88.981 20.7003C88.6901 16.5718 87.2931 14.9906 84.1273 15.2025C81.3703 15.3968 78.1359 18.9616 78.3818 21.586C78.6276 24.2105 82.1516 27.1156 84.8184 26.9778C88.098 26.8079 89.2906 25.0165 88.981 20.7003ZM73.8413 21.366C73.8413 21.366 73.3038 19.9045 71.9502 19.6956C70.3535 19.6947 69.2853 21.1567 69.8187 22.6708C70.126 23.5724 71.0622 24.2177 71.966 24.2263C72.8699 24.2349 74.1106 22.9896 73.8413 21.366Z" fill="#26C6DA"/>
</svg>
