<svg width="251" height="250" viewBox="0 0 251 250" fill="none" xmlns="http://www.w3.org/2000/svg">
<path d="M107.001 200.656C47.0482 140.704 18.1725 72.3776 42.5048 48.0453C65.0132 25.5369 125.164 48.5816 181.512 99.6156C177.161 94.6965 172.603 89.8211 167.807 85.0249C120.141 37.3586 65.0501 11.1937 29.183 15.8907C15.6861 17.6575 5.14329 28.2003 3.37552 41.6972C-1.32141 77.5643 24.8439 132.655 72.5102 180.321C89.512 197.323 107.456 211.581 125.137 222.683C127.143 223.942 129.197 221.147 127.402 219.602C120.546 213.7 113.721 207.376 107.001 200.656Z" fill="#888991"/>
<path d="M144.286 49.3439C204.239 109.297 233.115 177.623 208.783 201.955C186.274 224.463 126.124 201.419 69.7759 150.385C74.1269 155.304 78.6843 160.179 83.4805 164.975C131.147 212.642 186.237 238.807 222.104 234.11C235.601 232.342 246.144 221.8 247.911 208.304C252.608 172.436 226.443 117.346 178.776 69.6796C161.774 52.6779 143.83 38.4197 126.15 27.318C124.144 26.0588 122.09 28.8536 123.884 30.3988C130.741 36.3003 137.566 42.624 144.286 49.3439Z" fill="#888991"/>
<path d="M83.9778 166.666C130.002 212.69 185.966 231.345 208.978 208.333C231.989 185.321 213.334 129.357 167.31 83.3334C121.287 37.3098 65.3224 18.6551 42.3107 41.6669C19.299 64.6787 37.954 120.643 83.9778 166.666Z" fill="#7A7C85"/>
<path d="M94.941 155.703C129.097 189.859 170.532 203.801 187.489 186.844C204.446 169.887 190.503 128.452 156.347 94.2967C122.191 60.1409 80.7562 46.1985 63.7993 63.1554C46.8424 80.1124 60.7851 121.547 94.941 155.703Z" fill="#6E6F77"/>
<path d="M105.907 144.737C127.078 165.907 153.076 174.233 163.977 163.333C174.877 152.432 166.552 126.434 145.381 105.263C124.21 84.0925 98.2116 75.767 87.3112 86.6674C76.4109 97.5678 84.7366 123.566 105.907 144.737Z" fill="#62636A"/>
<path d="M138.8 111.847C128.444 101.491 115.141 98.0044 109.086 104.059C103.031 110.114 106.518 123.418 116.874 133.774C127.23 144.13 140.533 147.616 146.588 141.562C152.643 135.507 149.156 122.203 138.8 111.847Z" fill="#5B5C63"/>
</svg>
