<svg width="38" height="40" viewBox="0 0 38 40" fill="none" xmlns="http://www.w3.org/2000/svg">
<path d="M22.6925 21.285C23.8775 21.285 24.8425 20.285 24.8425 19.0525C24.8425 17.8275 23.8825 16.8275 22.6925 16.8275V16.8325C21.5125 16.8325 20.545 17.83 20.5425 19.0625C20.5425 20.285 21.5075 21.285 22.6925 21.285Z" fill="#5B5C63"/>
<path d="M14.995 21.285C16.18 21.285 17.145 20.285 17.145 19.0525C17.145 17.8275 16.1875 16.8275 15.0025 16.8275L14.995 16.8325C13.81 16.8325 12.845 17.83 12.845 19.0625C12.845 20.285 13.81 21.285 14.995 21.285Z" fill="#5B5C63"/>
<path d="M4.81245 35.3275H28.5775L27.4424 31.6525L30.1575 33.9825L32.645 36.2125L37.1775 40V4.125C37.065 1.895 35.145 0 32.765 0L4.81995 0.00499964C2.44245 0.00499964 0.512451 1.9025 0.512451 4.1325V31.2C0.512451 33.5525 2.43745 35.3275 4.81245 35.3275V35.3275ZM22.3925 9.4725L22.3375 9.4925L22.3575 9.4725H22.3925ZM9.67245 11.5875C12.7275 9.365 15.5575 9.47 15.5575 9.47L15.785 9.695C12.0475 10.5875 10.35 12.2575 10.35 12.2575C10.35 12.2575 10.8025 12.035 11.595 11.6975C16.63 9.7175 22.1275 9.8625 27.22 12.3675C27.22 12.3675 25.5225 10.805 22.0125 9.805L22.325 9.5C22.81 9.5025 25.3775 9.5925 28.125 11.6C28.125 11.6 31.1975 16.85 31.1975 23.3C31.095 23.1775 29.29 26.0775 24.645 26.1775C24.645 26.1775 23.8575 25.2875 23.3 24.51C26.0175 23.73 27.0325 22.17 27.0325 22.17C26.14 22.7325 25.3275 23.065 24.6675 23.3975C23.6525 23.845 22.635 24.065 21.62 24.29C16.8125 25.07 14.115 23.765 11.565 22.73L10.6925 22.2875C10.6925 22.2875 11.7075 23.8475 14.315 24.6275C13.63 25.41 12.9525 26.2975 12.9525 26.2975C8.30995 26.1875 6.61495 23.2875 6.61495 23.2875C6.61745 16.8275 9.67245 11.5875 9.67245 11.5875V11.5875Z" fill="currentColor"/>
</svg>
