<svg width="60" height="60" viewBox="0 0 60 60" fill="none" xmlns="http://www.w3.org/2000/svg">
<path d="M48 26.46C47.2044 26.46 46.4413 26.7761 45.8787 27.3387C45.3161 27.9013 45 28.6643 45 29.46V51C45 51.7956 44.6839 52.5587 44.1213 53.1213C43.5587 53.6839 42.7956 54 42 54H9C8.20435 54 7.44129 53.6839 6.87868 53.1213C6.31607 52.5587 6 51.7956 6 51V18C6 17.2044 6.31607 16.4413 6.87868 15.8787C7.44129 15.3161 8.20435 15 9 15H30.54C31.3357 15 32.0987 14.6839 32.6613 14.1213C33.2239 13.5587 33.54 12.7956 33.54 12C33.54 11.2044 33.2239 10.4413 32.6613 9.87868C32.0987 9.31607 31.3357 9 30.54 9H9C6.61305 9 4.32387 9.94821 2.63604 11.636C0.948212 13.3239 0 15.6131 0 18V51C0 53.3869 0.948212 55.6761 2.63604 57.364C4.32387 59.0518 6.61305 60 9 60H42C44.3869 60 46.6761 59.0518 48.364 57.364C50.0518 55.6761 51 53.3869 51 51V29.46C51 28.6643 50.6839 27.9013 50.1213 27.3387C49.5587 26.7761 48.7956 26.46 48 26.46ZM59.76 1.86C59.4556 1.12695 58.873 0.544425 58.14 0.24C57.7793 0.0862769 57.392 0.00473996 57 0H39C38.2044 0 37.4413 0.31607 36.8787 0.87868C36.3161 1.44129 36 2.20435 36 3C36 3.79565 36.3161 4.55871 36.8787 5.12132C37.4413 5.68393 38.2044 6 39 6H49.77L18.87 36.87C18.5888 37.1489 18.3656 37.4807 18.2133 37.8463C18.061 38.2118 17.9826 38.604 17.9826 39C17.9826 39.396 18.061 39.7882 18.2133 40.1537C18.3656 40.5193 18.5888 40.8511 18.87 41.13C19.1489 41.4112 19.4807 41.6344 19.8463 41.7867C20.2118 41.939 20.604 42.0174 21 42.0174C21.396 42.0174 21.7882 41.939 22.1537 41.7867C22.5193 41.6344 22.8511 41.4112 23.13 41.13L54 10.23V21C54 21.7956 54.3161 22.5587 54.8787 23.1213C55.4413 23.6839 56.2044 24 57 24C57.7956 24 58.5587 23.6839 59.1213 23.1213C59.6839 22.5587 60 21.7956 60 21V3C59.9953 2.60797 59.9137 2.22067 59.76 1.86V1.86Z" fill="#5B5C63"/>
</svg>
