<svg width="331" height="250" viewBox="0 0 331 250" fill="none" xmlns="http://www.w3.org/2000/svg">
<path d="M55.9357 61.5091C66.0444 63.3084 75.6977 56.5724 77.4971 46.4637C79.2964 36.355 72.5603 26.7017 62.4517 24.9024C52.343 23.1031 42.6897 29.8391 40.8903 39.9478C39.091 50.0564 45.8271 59.7098 55.9357 61.5091Z" fill="#56575D"/>
<path d="M55.7998 48.4989C55.6959 49.0908 55.4187 49.6385 55.0034 50.0729C54.5881 50.5072 54.0533 50.8086 53.4667 50.9389C52.88 51.0692 52.2679 51.0226 51.7077 50.805C51.1476 50.5873 50.6646 50.2084 50.3199 49.7162C49.9751 49.224 49.7841 48.6406 49.771 48.0398C49.7579 47.439 49.9233 46.8478 50.2463 46.341C50.5692 45.8342 51.0353 45.4346 51.5854 45.1928C52.1355 44.9509 52.745 44.8777 53.3368 44.9823V44.9823C54.1295 45.1224 54.8342 45.5715 55.296 46.2309C55.7578 46.8903 55.939 47.706 55.7998 48.4989V48.4989Z" fill="#62636A"/>
<path d="M53.0963 39.1322C53.0349 39.4773 52.8725 39.7965 52.6297 40.0493C52.3869 40.3021 52.0746 40.4772 51.7323 40.5525C51.3899 40.6278 51.033 40.5999 50.7065 40.4724C50.38 40.3448 50.0987 40.1233 49.8981 39.8358C49.6975 39.5484 49.5867 39.2079 49.5796 38.8574C49.5725 38.507 49.6695 38.1623 49.8583 37.867C50.0471 37.5717 50.3193 37.339 50.6404 37.1983C50.9614 37.0577 51.317 37.0154 51.6621 37.0768C52.1248 37.1592 52.5359 37.422 52.8049 37.8075C53.0739 38.1929 53.1787 38.6695 53.0963 39.1322V39.1322Z" fill="#62636A"/>
<path d="M40.6457 44.4981C40.6694 44.83 22.2315 57.1335 25.7189 61.0845C29.2064 65.0355 47.7465 59.803 64.4051 50.639C81.0637 41.475 96.8923 29.5711 93.9236 25.1328C90.955 20.6945 70.7729 28.6589 70.7729 28.6589L72.702 30.4424C72.702 30.4424 84.9574 25.3441 87.9318 28.6782C90.9062 32.0122 79.1025 40.9639 63.2826 48.6931C47.4626 56.4223 32.669 61.1767 31.0658 58.0075C29.4625 54.8384 41.0338 47.253 41.0338 47.253L40.6457 44.4981Z" fill="#62636A"/>
<path d="M289.579 218.385C296.526 213.538 298.227 203.978 293.38 197.031C288.533 190.085 278.972 188.383 272.026 193.23C265.079 198.077 263.378 207.638 268.225 214.584C273.072 221.531 282.633 223.233 289.579 218.385Z" fill="#62636A"/>
<path d="M283.71 201.527C283.832 200.863 284.213 200.274 284.768 199.89C285.324 199.505 286.01 199.357 286.674 199.477C287.339 199.597 287.929 199.976 288.315 200.531C288.701 201.086 288.851 201.771 288.733 202.436C288.614 203.101 288.237 203.692 287.683 204.079C287.13 204.467 286.445 204.619 285.78 204.502C285.114 204.386 284.522 204.01 284.133 203.458C283.744 202.905 283.59 202.221 283.705 201.555L283.71 201.527Z" fill="#56575D"/>
<path d="M285.753 209.304C285.809 209.018 285.948 208.756 286.153 208.549C286.358 208.343 286.62 208.202 286.905 208.144C287.19 208.087 287.486 208.115 287.755 208.225C288.024 208.336 288.255 208.524 288.417 208.765C288.58 209.006 288.667 209.29 288.668 209.581C288.669 209.872 288.584 210.157 288.423 210.399C288.262 210.642 288.033 210.831 287.765 210.943C287.496 211.056 287.2 211.086 286.915 211.03L286.887 211.025C286.51 210.944 286.18 210.718 285.968 210.396C285.756 210.074 285.679 209.682 285.753 209.304Z" fill="#56575D"/>
<path d="M152.627 202.471C198.201 210.583 241.723 180.214 249.835 134.639C257.948 89.0645 227.578 45.5426 182.004 37.4303C136.429 29.3181 92.9069 59.6875 84.7947 105.262C76.6824 150.837 107.052 194.359 152.627 202.471Z" fill="#62636A"/>
<path d="M242.991 104.183C242.439 103.235 242.847 100.518 240.935 101.776C241.285 100.434 241.317 97.0989 243.679 97.8288C246.248 98.6462 244.56 101.273 244.889 102.84C245.303 104.685 247.675 105.251 248.87 106.468C249.677 107.292 250.057 108.372 250.444 109.236C248.944 97.6776 245.045 86.5602 238.997 76.5966L238.962 76.7955C237.239 76.3628 235.251 78.4103 235.315 79.9302C235.324 80.1838 235.956 80.7391 235.949 81.2851C235.942 81.8311 235.444 81.9765 235.357 82.3858C235.146 83.3456 234.732 84.2187 235.99 84.7127C237.121 83.2543 238.673 85.4998 238.888 86.6397C239.227 88.6336 238.239 89.4333 239.302 91.1886C239.71 91.8696 241.117 92.8653 240.629 93.8477C240.141 94.8301 239.394 94.492 238.692 94.0682C237.556 93.3693 237.225 91.4309 235.803 91.1238C234.416 93.3324 234.768 96.5775 233.566 98.9775C232.899 100.299 232.369 100.284 233.401 101.544C233.774 101.999 234.148 101.634 234.553 102.332C234.795 102.735 234.661 103.525 234.548 103.962C235.294 103.674 236.008 103.142 236.855 103.379C235.365 104.262 235.198 106.375 234.049 107.632C232.61 109.205 231.78 108.445 230.112 108.879C227.196 109.645 228.158 112.311 227.515 114.267C227.143 115.407 225.997 116.222 225.34 117.264C224.389 118.717 223.72 120.336 223.367 122.036C222.974 124.043 223.294 125.983 223.336 127.996C223.361 129.632 222.825 132.665 224.212 133.855C225.076 134.581 228.069 135.002 229.298 135.415C230.528 135.829 232.13 135.423 233.097 136.164C234.063 136.904 233.609 138.544 235.042 138.403C235.844 138.323 236.607 136.605 237.627 136.437C239.263 136.17 240.227 137.793 240.433 139.079C240.702 140.707 239.892 140.624 239.185 142.187C238.627 143.423 238.711 144.849 238.914 146.117C239.338 148.712 238.579 147.476 237.301 149.596C237.913 149.879 238.563 150.071 239.23 150.166C239.124 151.047 239.083 152.368 238.728 153.191C237.734 155.498 235.173 156.392 234.563 159.153C234.004 161.671 234.613 164.944 233.699 167.344C233.025 169.111 230.751 169.93 230.714 172.098C231.998 171.564 233.085 170.533 234.456 170.151C246.863 153.588 252.704 133.021 250.855 112.409C249.545 111.517 248.433 110.363 247.591 109.02C246.382 107.239 244.02 105.983 242.991 104.183Z" fill="#56575D"/>
<path d="M192.531 41.7344C193.51 42.0995 194.654 42.2887 195.598 42.7087C196.68 43.1857 197.338 44.0985 198.667 43.8311C199.28 43.6777 199.838 43.3536 200.274 42.8965C180.698 34.5103 158.661 33.9018 138.653 41.1951C141.758 41.953 140.429 45.3708 143.671 42.9379C145.113 41.8518 146.773 40.3147 148.518 39.4516C150.473 38.4819 152.294 39.6954 154.386 39.9993C153.602 40.3567 149.229 42.4729 149.498 43.4496C149.868 44.8115 152.289 43.6726 151.013 45.9442C149.875 47.9701 147.05 45.9588 145.134 45.7583C143.638 45.6107 142.656 46.4548 141.068 46.2549C139.382 46.0376 137.787 45.2677 136.15 45.0195C133.533 44.6329 131.602 45.8337 129.689 47.3796C128.588 48.2638 127.357 48.8726 126.457 50.0445C125.475 51.31 125.443 53.1907 124.536 54.3218C123.754 55.2951 122.386 55.2352 121.305 55.7052C119.865 56.3949 118.511 57.2524 117.272 58.2599C115.406 59.7819 114.1 63.0957 111.341 63.2599C110.468 65.9846 115.393 62.8506 116.526 63.6247C117.319 62.891 117.77 61.812 118.832 61.3459C119.895 60.8797 121.215 61.2299 122.424 60.7286C124.725 59.7738 124.57 56.7581 127.24 56.7257C129.404 56.704 131.797 56.7123 131.903 59.0929C131.955 60.2758 131.528 60.1062 131.3 61.1853C130.997 62.6219 131.034 61.7249 131.978 62.7965C133.392 64.456 133.372 66.1481 131.732 67.8398C130.948 68.6401 130.629 68.4536 130.038 69.5654C129.448 70.6772 129.356 71.964 129.18 73.2179C128.973 74.6213 128.604 75.9272 128.312 77.3045C127.828 79.5947 128.23 80.5519 129.794 82.3244C130.993 83.6791 132.309 84.7629 132.72 86.6002C133.068 88.2031 132.617 89.9697 132.773 91.5815C132.909 93.2619 136.308 97.3267 136.382 94.3841C136.417 92.8711 134.798 92.2408 135.129 90.442C135.258 89.7161 135.745 88.6976 135.958 87.947C138.359 87.7263 137.064 91.5244 137.467 92.7987C138.045 94.6081 140.124 96.0762 141.087 97.6014C139.893 97.9181 137.841 98.6688 138.179 100.306C138.618 102.371 141.321 101.466 142.673 101.739C145.63 102.338 148.239 104.851 150.362 106.863C152.4 108.781 153.167 109.85 156.11 110.147C157.952 110.29 159.71 110.979 161.158 112.126C162.266 112.885 163.068 114.013 163.422 115.308C164.032 117.217 164.336 117.916 165.68 119.386C166.554 120.341 166.934 121.28 168.065 121.42C168.843 121.522 169.605 120.495 170.716 121.071C172.825 122.166 171.67 124.891 170.71 126.042C169.896 127.031 169.065 128.345 168.187 129.312C167.063 130.552 164.679 130.653 164.088 132.438C163.526 134.138 165.109 136.468 165.246 138.188C165.372 139.745 165.036 141.391 164.766 142.906C163.555 144.13 168.516 150.155 169.454 151.301C170.807 152.982 172.81 155.243 173.052 157.478C173.152 158.396 172.762 159.738 172.682 160.674C172.521 162.653 172.22 164.619 171.779 166.555C171.143 169.379 168.784 170.756 167.823 173.368C167.047 175.462 167.413 177.874 166.704 179.959C166.382 180.895 165.94 182.228 165.545 183.133C165.149 184.038 164.68 183.944 164.174 184.545C163.263 185.614 163.402 186.856 163.761 188.256C165.806 187.269 166.87 190.004 167.503 191.406C168.289 193.159 169.449 194.006 171.696 194.143C170.951 193.29 169.911 190.682 170.437 189.444C171.212 187.638 174.202 186.597 175.397 185.185C176.691 183.659 176.681 182.015 178.871 181.624C179.481 181.517 180.139 181.742 180.755 181.599C181.505 181.43 182.022 180.831 182.772 180.623C184.834 180.061 185.224 180.379 186.392 178.387C187.814 176.001 189.205 172.922 191.932 171.715C193.009 171.248 194.049 171.476 195.169 171.211C196.396 170.933 196.896 170.205 197.924 169.711C199.459 169.022 200.895 168.132 202.196 167.065C203.739 165.778 205.138 164.328 206.369 162.739C207.176 161.741 207.624 160.763 208.707 160.041C209.165 159.734 209.787 159.693 210.326 159.336C212.295 157.965 213.395 155.407 215.172 153.836C216.172 152.952 217.078 152.512 217.738 151.413C217.636 150.981 217.483 150.562 217.283 150.166C217.048 149.465 216.288 148.718 215.976 147.982C215.868 147.721 215.945 146.982 215.824 146.813C214.852 145.319 212.065 144.128 210.458 143.77C208.261 143.292 205.007 142.357 203.907 140.12C203.098 138.438 205.313 136.651 204.887 134.937C204.364 132.803 199.928 131.026 198.35 129.637C197.263 128.68 196.637 127.406 195.564 126.434C193.992 125.012 193.012 124.366 192.609 122.286C192.363 121.039 193.092 120.964 191.758 120.269C190.515 119.627 188.252 120.408 186.759 120.261C185.647 120.154 184.375 120.161 183.384 119.661C182.152 119.038 181.455 117.391 180.145 116.902C178.969 116.452 176.457 116.606 175.211 117.137C174.138 117.583 173.456 118.624 172.329 118.906C170.704 119.337 170.972 118.441 169.54 118.05C168.108 117.658 167.212 118.327 166.389 116.495C165.28 113.99 166.704 109.527 163.196 108.665C162.161 108.413 159.958 108.935 159.55 107.465C158.942 105.298 162.861 103.266 162.75 101.018C162.63 98.6817 157.911 100.877 156.75 101.941C156.005 102.626 155.181 104.484 153.887 104.412C152.906 104.342 151.179 102.739 150.727 101.938C149.936 100.537 150.294 98.1602 150.425 96.5957C150.664 93.6572 151.491 92.8755 153.892 91.0744C156.019 89.4621 156.411 89.3842 158.768 89.3898C160.207 89.3939 160.295 88.8984 161.368 89.7301C161.884 90.128 162.078 91.0806 162.722 91.4869C163.857 90.6952 164.566 90.5334 165.822 91.0198C166.724 91.3748 168.488 92.8085 168.846 93.7757C169.065 94.3656 168.701 99.2584 170.954 96.6352C170.093 95.6286 170.535 94.6993 170.291 93.7054C170.047 92.7114 169.231 91.875 169.261 90.6923C169.294 89.3156 170.96 86.732 172.54 86.7109L172.644 85.1777C174.379 85.2416 177.119 81.499 177.15 79.4236C177.155 78.384 176.049 78.2664 176.876 76.9159C177.876 75.3442 178.884 76.438 180.377 76.3799C181.871 76.3217 181.829 75.3422 182.991 74.7641C184.26 74.126 184.67 74.8578 185.611 75.0721C187.38 75.4663 189.646 76.2872 190.217 73.8326C191.332 73.8763 192.34 73.7137 193.362 74.3637C193.849 72.4594 193.67 70.9766 192.224 69.5708C190.951 68.3505 189.077 67.6965 187.736 66.4678C186.879 65.6816 186.341 64.6605 185.536 63.8405C184.24 62.5296 183.428 61.1611 182.308 59.7303C180.865 57.9038 178.862 59.531 176.667 58.8163C173.738 57.8557 174.335 55.6327 172.717 53.9622C172.532 53.7673 171.884 53.8679 171.633 53.6828C171.208 53.2318 170.836 52.7332 170.526 52.1968C169.656 50.9129 169.23 49.379 169.316 47.8303C172.967 46.4929 172.997 51.2001 174.085 53.0967C174.58 53.9553 176.957 54.8608 174.818 55.7114C176.135 56.0394 177.356 56.0552 178.553 56.5742C179.115 56.8146 179.555 57.2531 180.211 57.3698C180.527 56.3459 180.336 55.2931 180.309 54.2695C180.293 53.7985 180.508 53.3544 180.398 52.8812C180.237 52.19 179.606 51.7466 179.453 51.1756C178.991 49.5201 179.909 49.6835 178.404 48.4688C177.369 47.6328 176.067 46.9332 174.976 46.1881C174.184 45.7432 173.478 45.1603 172.892 44.467C172.647 44.1211 171.133 41.8282 171.057 41.4474C170.317 37.9386 174.928 41.8268 176.05 42.3362C177.887 43.1995 179.668 44.1767 181.384 45.2621C182.796 46.1075 182.76 46.4503 183.077 48.0476C183.636 50.9734 185.342 49.9449 186.684 52.0559C187.493 53.334 187.925 55.4594 188.562 56.9157C189.361 58.7572 192.744 64.6698 195.582 62.6404C197.106 61.5435 195.03 58.7835 195.211 57.4836C195.404 56.0994 196.486 55.4172 197.568 54.8394C199.387 53.867 199.85 53.4094 198.233 51.5518C196.249 49.2654 193.752 48.5078 191.142 47.1358C188.312 45.6384 187.82 43.7723 186.728 41.0651C187.762 41.0619 188.834 41.1663 189.875 41.2652C190.777 41.3045 191.67 41.4623 192.531 41.7344V41.7344ZM158.171 57.4466C157.597 58.4065 156.937 57.947 156.172 58.3652C154.999 58.9881 156.566 60.7431 155.733 61.1348C155.441 61.2773 154.031 60.9471 153.73 60.7783C152.955 60.3595 152.804 59.7279 151.836 59.5663C150.569 59.3408 149.337 58.8803 149.904 57.3323C150.166 56.6085 151.055 56.0035 150.841 55.1195C150.582 54.5528 150.216 54.0415 149.763 53.6134C149.472 53.3241 149.051 53.2851 148.784 53.0467C148.197 52.521 148.736 50.9465 149.513 50.7896C149.139 53.0308 152.818 51.601 153.322 52.7528C153.826 53.9046 152.367 54.0733 153.134 54.8795C153.569 55.3674 154.899 55.6041 155.432 55.5441C156.25 55.4558 157.774 54.5209 158.381 55.5002C158.615 55.927 158.391 57.0609 158.161 57.4448L158.171 57.4466ZM169.497 55.4052C170.279 55.7891 170.065 56.1579 170.379 56.8869C170.729 57.709 171.564 57.7892 172.052 58.4269C172.974 59.6387 170.991 60.6681 171.409 62.0422C171.78 63.2351 177.79 65.9971 173.437 66.6047C172.16 66.7807 171.579 65.8599 170.55 65.3708C169.408 64.9166 168.153 64.8316 166.96 65.1279C164.742 65.9391 168.859 68.904 165.935 69.2477C165.339 69.3216 163.513 68.8813 163.466 68.1529C163.402 67.5042 164.272 67.67 164.552 67.1078C165.666 64.8974 162.555 65.8306 161.791 65.4859C160.716 64.9956 161.429 63.0344 162.407 62.7368C162.932 62.5783 164.137 62.9261 164.677 63.0112C165.559 63.1684 166.421 63.4477 167.317 63.5281C168.027 61.9048 165.636 60.5935 164.333 60.1706C163.31 59.8447 163.205 59.6098 162.449 58.8416C161.537 57.8945 161.042 58.026 162.02 56.778C162.875 55.6773 164.037 55.2181 165.223 54.5831C165.747 54.428 166.048 55.0036 166.517 55.141C167.482 55.3813 168.58 54.9755 169.497 55.4052Z" fill="#56575D"/>
<path d="M169.095 99.7353C168.214 99.2437 164.649 99.8548 165.845 101.086C166.656 101.929 169.02 101.454 170.107 101.921C171.194 102.388 172.686 102.214 173.719 102.866C174.48 103.362 174.797 104.192 175.671 104.582C176.734 105.059 177.405 104.71 176.524 103.653C175.902 102.916 174.916 102.572 174.142 102.027C173.552 101.619 173.079 100.938 172.468 100.649C171.656 100.274 169.612 100.713 169.095 99.7353Z" fill="#56575D"/>
<path d="M179.903 106.836C178.987 107.21 178.155 107.332 177.69 108.343C177.148 109.529 177.706 109.39 178.643 109.06C179.229 108.844 180.054 108.454 180.711 108.607C181.368 108.76 181.803 109.327 182.408 109.55C182.938 109.772 183.51 109.873 184.084 109.845C184.658 109.817 185.218 109.661 185.724 109.388C186.529 108.912 186.716 108.125 185.652 107.77C184.858 107.495 183.482 107.664 182.62 107.59C181.758 107.516 180.288 107.322 179.903 106.836Z" fill="#56575D"/>
<path d="M204.814 193.014C202.695 193.976 201.231 195.544 198.838 196.069C196.25 196.631 193.719 197.599 191.056 198.161C188.392 198.724 185.4 199.801 182.709 199.97C180.459 200.109 178.217 198.67 176.038 198.329C173.765 198.033 171.466 198.001 169.186 198.232C167.617 198.353 167.718 198.086 166.631 197.418C166.116 197.046 165.531 196.782 164.911 196.643C164.176 196.498 163.449 196.312 162.735 196.087C162.51 197.127 164.427 199.628 165.175 200.438C158.326 199.82 151.296 197.691 144.716 195.803C142.776 195.249 141.458 195.9 139.524 195.804C137.739 195.72 136.434 194.534 134.684 194.19C132.573 193.814 131.573 194.072 130.437 195.234C142.726 201.255 156.303 204.174 169.98 203.735C183.658 203.295 197.019 199.512 208.896 192.714C208.939 192.451 208.965 192.185 208.973 191.918C207.802 192.145 205.937 192.508 204.814 193.014Z" fill="#56575D"/>
<path d="M87.199 106.54C87.713 105.767 88.0062 104.868 88.047 103.94C87.9901 102.965 87.5355 102.971 87.2427 102.148C86.4157 99.8767 88.2354 99.9486 88.5365 98.2165C88.7167 97.2045 87.0521 94.4204 88.6312 93.6394C89.3451 93.2696 91.4061 94.8174 92.6422 94.5478C92.7361 92.8472 91.0129 93.0625 90.547 91.8166C89.8572 89.9477 91.567 89.8885 92.2094 89.2324C94.2963 87.1161 92.1643 85.4405 91.9334 83.34C88.5514 90.2834 86.1476 97.6619 84.7905 105.265C84.7384 105.558 84.6862 105.851 84.6572 106.156C85.356 105.729 86.1678 105.719 87.199 106.54Z" fill="#56575D"/>
<path d="M94.0866 83.6009C94.9638 83.4871 94.9995 81.4053 95.2506 80.8847C96.1303 79.2761 97.2307 77.7985 98.5198 76.4947C100.246 74.7031 99.7739 73.8378 99.912 71.3026C99.9342 70.8745 99.9841 70.4117 100.033 69.956C97.2788 73.6392 94.8372 77.5459 92.7336 81.6356C93.0858 82.4075 93.4814 83.684 94.0866 83.6009Z" fill="#56575D"/>
<path d="M89.8255 96.8402C87.8721 100.392 91.8173 101.67 91.3453 104.786C91.1683 105.943 89.8723 109.806 92.3335 109.934C93.688 107.907 92.1927 107.328 92.834 105.343C93.2709 103.981 94.329 103.78 92.9993 102.391C92.6342 101.995 91.8782 101.854 91.5958 101.458C91.1956 100.915 91.401 100.307 91.1934 99.7947C90.8149 98.8669 90.1184 98.1884 89.8255 96.8402Z" fill="#56575D"/>
<path d="M87.5031 109.888C86.08 111.957 82.7701 119.731 86.3761 120.528C86.7809 120.6 87.6528 120.01 88.0161 120.355C88.3056 120.63 87.8751 121.41 88.0072 121.538C88.8515 122.236 89.0693 122.408 89.735 120.852C90.2608 119.617 89.6246 119.45 89.5857 118.536C89.6024 117.747 89.7331 116.965 89.9737 116.214C87.7178 115.215 92.5735 115.565 92.5505 114.581C92.5395 113.834 88.9783 113.413 88.4425 113.49C88.4882 112.823 88.6425 112.169 88.8991 111.552C88.1792 111.045 88.1037 110.175 87.5031 109.888Z" fill="#56575D"/>
<path d="M98.0662 119.354C95.9931 119.107 95.236 117.05 92.7094 117.349C92.6231 117.834 92.394 118.373 92.3132 118.827C92.8868 118.76 95.5154 118.616 94.8516 119.999C94.2865 121.151 92.3753 119.227 92.437 121.085C93.0775 121.127 94.1484 120.835 94.7561 121.001C95.6283 121.278 95.8951 121.823 96.7101 122.158C97.7834 122.602 97.7286 122.019 98.7758 123.073C99.5838 123.894 100.364 125.073 100.487 126.143C100.751 128.419 99.6367 129.099 102.333 129.928C103.746 130.363 106.528 132.475 106.858 130.092C108.151 130.819 109.535 135.282 111.455 135.195C113.86 135.094 110.024 130.695 110.109 130.297C111.034 130.379 113.215 129.856 113.985 129.575C114.755 129.295 115.496 129.484 115.476 127.976C114.403 127.652 113.827 128.096 112.955 128.164C111.911 128.201 110.868 128.071 109.866 127.78C107.378 127.142 105.159 125.729 103.527 123.746C102.586 122.643 101.774 121.724 100.774 120.668C100.122 119.979 100.209 119.631 99.3887 119.226C99.1757 119.132 98.9423 119.095 98.7107 119.117C98.4791 119.14 98.2572 119.221 98.0662 119.354V119.354Z" fill="#56575D"/>
<path d="M85.5771 122.65C87.0497 122.912 88.5954 123.371 90.0927 123.454C90.5855 123.477 91.3298 122.774 91.7939 123.444C91.9596 123.686 91.5674 124.959 91.3499 125.129C90.2796 125.964 85.4232 124.769 86.0469 122.903" fill="#56575D"/>
<path d="M106.088 138.225C106.411 135.6 105.346 135.778 104.441 133.903C103.834 134.904 102.991 136.975 101.513 136.864C99.3256 136.712 99.5539 133.447 98.4303 132.337C96.8177 130.757 92.4273 131.232 91.6943 132.862C89.8686 133.228 89.6186 134.026 88.6722 135.298C87.9903 136.231 87.2412 137.113 86.431 137.938C86.1719 138.196 85.8978 138.44 85.61 138.666C86.5313 142.659 87.7445 146.579 89.2397 150.394C89.4217 150.491 89.6156 150.565 89.8166 150.612C91.6092 151.079 92.9394 149.249 94.3506 149.694C95.3739 150.013 95.8363 151.946 96.5762 152.805C98.6342 155.22 102.403 157.41 102.812 160.511C103.064 162.392 103.632 163.288 104.473 165.015C105.065 166.219 104.568 168.078 105.6 168.935C105.933 167.265 106.447 165.636 107.135 164.078C108.063 162.137 107.767 160.345 109.031 158.702C110.296 157.058 112.063 155.828 112.311 153.525C112.47 151.966 111.676 149.812 110.775 148.521C108.21 144.871 105.478 143.186 106.088 138.225Z" fill="#56575D"/>
<path d="M123.873 159.482C122.487 159.502 122.487 162.191 121.917 163.188C121.113 164.593 120.607 164.341 118.965 164.462C117.924 164.483 116.886 164.586 115.861 164.77C114.296 165.187 113.956 166.368 113.276 167.741C115.051 168.208 116.462 166.289 118.141 166.238C119.587 166.204 120.616 167.039 122.174 166.657C126.085 165.723 125.821 161.989 126.835 159.163C125.792 158.79 124.941 159.305 123.873 159.482Z" fill="#56575D"/>
<path d="M128.11 144.539C127.437 145.528 127.461 148.182 129.321 146.915C130.183 146.323 130.442 144.54 129.027 144.378C128.988 144.598 128.872 144.642 128.75 144.826" fill="#56575D"/>
<path d="M139.481 149.324C137.989 150.117 140.496 152.36 141.251 150.806C141.81 149.689 139.988 148.961 139.481 149.324Z" fill="#56575D"/>
<path d="M123.473 117.148C123.682 118.182 126.01 119.399 126.184 121.072C126.344 122.623 125.693 123.832 127.87 124.285C128.004 123.228 128.832 121.936 128.505 120.92C128.36 120.458 127.628 120.263 127.448 119.735C127.269 119.206 127.561 118.675 127.427 118.175C127.135 117.148 123.48 114.2 123.473 117.148Z" fill="#56575D"/>
<path d="M172.947 202.142C126.203 193.822 95.0543 149.179 103.375 102.435C106.031 87.5149 112.583 73.5623 122.368 61.9901C132.152 50.418 144.821 41.6376 159.092 36.5383C113.056 41.3912 79.6828 82.6464 84.5218 128.68C89.3607 174.714 130.624 208.102 176.663 203.25C177.397 203.172 178.133 203.087 178.87 202.991C176.917 202.755 174.933 202.496 172.947 202.142Z" fill="#6E6F77"/>
<path d="M164.025 222.109L164.208 222.642C164.414 223.241 164.787 223.77 165.283 224.165L165.721 224.517L165.188 224.699C164.584 224.895 164.05 225.263 163.653 225.758L163.298 226.192L163.112 225.662C162.912 225.061 162.541 224.532 162.044 224.139L161.606 223.784L162.139 223.606C162.739 223.406 163.269 223.038 163.667 222.545L164.025 222.109Z" fill="#56575D"/>
<path d="M70.4672 185.734L70.6537 186.264C70.8571 186.865 71.2307 187.394 71.729 187.787L72.1627 188.141L71.634 188.321C71.0306 188.518 70.4974 188.886 70.099 189.38L69.7405 189.816L69.5616 189.284C69.3535 188.685 68.9808 188.157 68.4863 187.761L68.0519 187.41L68.5813 187.227C69.183 187.026 69.7153 186.659 70.1163 186.168L70.4672 185.734Z" fill="#56575D"/>
<path d="M111.628 38.7968L111.807 39.3256C112.013 39.9266 112.387 40.4557 112.886 40.8497L113.32 41.2041L112.791 41.3836C112.188 41.5849 111.654 41.9531 111.252 42.4453L110.901 42.8797L110.718 42.3503C110.515 41.7482 110.141 41.2178 109.643 40.8233L109.209 40.4724L109.738 40.2894C110.342 40.0936 110.876 39.7255 111.273 39.2305L111.628 38.7968Z" fill="#56575D"/>
<path d="M301.426 156.913L301.758 157.839C302.104 158.874 302.741 159.787 303.594 160.467L304.351 161.073L303.427 161.406C302.393 161.75 301.48 162.385 300.798 163.234L300.166 163.993L299.859 163.067C299.51 162.035 298.872 161.125 298.022 160.443L297.27 159.813L298.189 159.505C299.222 159.156 300.134 158.521 300.819 157.672L301.426 156.913Z" fill="#56575D"/>
<path d="M265.953 64.1566L266.132 64.6854C266.339 65.2859 266.711 65.8154 267.207 66.2124L267.642 66.5599L267.112 66.7463C266.51 66.9467 265.978 67.3139 265.577 67.8052L265.226 68.2396L265.043 67.7102C264.835 67.1103 264.461 66.5818 263.964 66.186L263.531 65.8281L264.059 65.6521C264.662 65.4508 265.196 65.0826 265.598 64.5904L265.953 64.1566Z" fill="#56575D"/>
<path d="M218.734 32.9155L218.913 33.4443C219.12 34.0437 219.493 34.5721 219.989 34.9678L220.423 35.3187L219.893 35.5052C219.291 35.7045 218.758 36.0719 218.358 36.564L218.008 36.9914L217.822 36.4614C217.608 35.8679 217.228 35.3481 216.728 34.9633L216.294 34.6089L216.823 34.4294C217.426 34.23 217.959 33.8612 218.358 33.3671L218.734 32.9155Z" fill="#56575D"/>
<path d="M30.3937 136.175L30.7256 137.102C31.0714 138.135 31.7078 139.047 32.5585 139.729L33.3138 140.36L32.3914 140.667C31.3584 141.017 30.4468 141.654 29.764 142.504L29.1333 143.256L28.8009 142.333C28.4522 141.298 27.8152 140.386 26.965 139.702L26.2088 139.095L27.1321 138.763C28.1663 138.417 29.0793 137.781 29.7624 136.93L30.3937 136.175Z" fill="#56575D"/>
<path d="M281.521 98.1333C288.262 99.1712 294.568 94.548 295.606 87.8072C296.644 81.0664 292.021 74.7606 285.28 73.7227C278.539 72.6849 272.233 77.308 271.195 84.0488C270.157 90.7896 274.781 97.0955 281.521 98.1333Z" fill="#5B5C63"/>
<path opacity="0.2" d="M288.194 81.9837C288.273 81.5927 288.466 81.2339 288.748 80.9527C289.031 80.6715 289.391 80.4804 289.783 80.4037C290.174 80.327 290.579 80.368 290.947 80.5217C291.315 80.6753 291.63 80.9346 291.85 81.2668C292.071 81.599 292.188 81.9892 292.187 82.3881C292.186 82.7869 292.067 83.1765 291.845 83.5076C291.622 83.8387 291.307 84.0963 290.938 84.2481C290.569 84.3998 290.163 84.4388 289.772 84.36V84.36C289.248 84.2535 288.788 83.9436 288.492 83.4981C288.196 83.0527 288.089 82.5081 288.194 81.9837Z" fill="black"/>
<path opacity="0.2" d="M291.334 87.3167C291.379 87.0882 291.491 86.8782 291.655 86.7133C291.82 86.5484 292.029 86.4359 292.258 86.3902C292.486 86.3445 292.723 86.3675 292.938 86.4565C293.153 86.5454 293.337 86.6962 293.467 86.8897C293.596 87.0833 293.665 87.3109 293.666 87.5438C293.666 87.7766 293.597 88.0043 293.467 88.1979C293.338 88.3916 293.154 88.5424 292.939 88.6315C292.723 88.7205 292.487 88.7437 292.258 88.6981C292.108 88.669 291.965 88.6106 291.838 88.5261C291.71 88.4417 291.6 88.3328 291.515 88.2059C291.429 88.079 291.37 87.9365 291.34 87.7865C291.309 87.6365 291.309 87.482 291.339 87.3319L291.334 87.3167Z" fill="black"/>
<path opacity="0.2" d="M289.158 90.5835C289.272 90.6037 289.373 90.6684 289.439 90.7632C289.505 90.858 289.531 90.9753 289.511 91.0891C289.49 91.203 289.426 91.3041 289.331 91.3702C289.236 91.4364 289.119 91.4622 289.005 91.4419C288.891 91.4198 288.791 91.3535 288.725 91.2576C288.66 91.1617 288.636 91.0439 288.657 90.9299V90.9299C288.68 90.8181 288.746 90.7198 288.841 90.6565C288.935 90.5931 289.052 90.5698 289.164 90.5917L289.158 90.5835Z" fill="black"/>
<path d="M46.3605 76.9744L46.5435 77.5038C46.7449 78.1025 47.1129 78.6313 47.6042 79.0283L48.0421 79.3798L47.5092 79.5622C46.9149 79.7699 46.3932 80.1445 46.0066 80.6413L45.6487 81.0744L45.4727 80.5462C45.2686 79.9486 44.8994 79.421 44.4079 79.0246L43.9741 78.6702L44.5029 78.4907C45.1011 78.2882 45.6296 77.9204 46.0274 77.4299L46.3605 76.9744Z" fill="#5B5C63"/>
<path d="M147.349 66.1411L147.529 66.6699C147.73 67.2686 148.098 67.7974 148.59 68.1944L149.024 68.5453L148.495 68.7248C147.896 68.9255 147.367 69.2953 146.974 69.7896L146.623 70.224L146.443 69.6952C146.244 69.0953 145.876 68.5659 145.382 68.1707L144.948 67.8198L145.477 67.6403C146.076 67.4385 146.604 67.0689 146.998 66.5754L147.349 66.1411Z" fill="#5B5C63"/>
<path d="M115.761 48.2381L115.848 48.5019C115.949 48.8005 116.133 49.0642 116.378 49.2624L116.602 49.4426L116.33 49.5346C116.037 49.638 115.78 49.8235 115.59 50.069L115.415 50.2861L115.325 50.0218C115.226 49.722 115.042 49.4578 114.794 49.2612L114.578 49.0823L114.843 48.9891C115.143 48.8899 115.407 48.7055 115.603 48.4584L115.761 48.2381Z" fill="#5B5C63"/>
<path d="M253.463 80.7449L253.556 81.0134C253.656 81.3125 253.84 81.5765 254.086 81.7739L254.304 81.9458L254.039 82.0391C253.739 82.1371 253.474 82.3218 253.278 82.5698L253.1 82.7863L253.013 82.5226C252.912 82.2239 252.728 81.9602 252.483 81.7621L252.259 81.5819L252.53 81.4968C252.827 81.3931 253.09 81.2095 253.29 80.9662L253.463 80.7449Z" fill="#5B5C63"/>
<path d="M278.178 127.267L278.268 127.531C278.371 127.83 278.556 128.094 278.802 128.292L279.022 128.472L278.754 128.561C278.454 128.662 278.188 128.848 277.99 129.095L277.814 129.312L277.725 129.048C277.626 128.747 277.442 128.481 277.194 128.284L276.974 128.107L277.235 128.017C277.534 127.917 277.798 127.733 277.995 127.486L278.178 127.267Z" fill="#5B5C63"/>
<path d="M218.275 219.211L218.367 219.483C218.468 219.782 218.652 220.045 218.897 220.244L219.115 220.416L218.85 220.509C218.551 220.609 218.287 220.793 218.09 221.039L217.91 221.259L217.824 220.992C217.722 220.694 217.538 220.431 217.294 220.232L217.07 220.052L217.341 219.967C217.638 219.862 217.901 219.678 218.101 219.436L218.275 219.211Z" fill="#5B5C63"/>
<path d="M269.988 186.794L270.076 187.065C270.179 187.363 270.362 187.626 270.607 187.825L270.828 187.998L270.56 188.091C270.26 188.191 269.996 188.375 269.799 188.621L269.624 188.839L269.534 188.574C269.435 188.273 269.249 188.009 269 187.813L268.783 187.634L269.047 187.548C269.347 187.448 269.612 187.264 269.811 187.018L269.988 186.794Z" fill="#5B5C63"/>
<path d="M164.392 179.817L164.484 180.089C164.586 180.388 164.77 180.652 165.015 180.85L165.233 181.022L164.968 181.115C164.667 181.212 164.402 181.397 164.207 181.646L164.028 181.866L163.942 181.598C163.839 181.303 163.656 181.043 163.414 180.846L163.193 180.669L163.461 180.58C163.76 180.486 164.026 180.308 164.229 180.069L164.392 179.817Z" fill="#5B5C63"/>
<path d="M101.757 156.849L101.842 157.12C101.939 157.422 102.12 157.691 102.363 157.896L102.584 158.069L102.316 158.161C102.017 158.263 101.753 158.447 101.555 158.692L101.383 158.91L101.29 158.645C101.189 158.346 101.005 158.083 100.759 157.884L100.536 157.704L100.806 157.619C101.104 157.517 101.368 157.333 101.567 157.089L101.757 156.849Z" fill="#5B5C63"/>
<path d="M122.872 176.308L123.205 177.231C123.554 178.265 124.191 179.178 125.041 179.862L125.793 180.493L124.874 180.801C123.84 181.149 122.927 181.786 122.243 182.637L121.612 183.388L121.304 182.47C120.955 181.436 120.318 180.523 119.468 179.839L118.712 179.232L119.635 178.9C120.669 178.551 121.582 177.914 122.266 177.064L122.872 176.308Z" fill="#5B5C63"/>
<path d="M227.55 101.914L227.882 102.837C228.229 103.871 228.865 104.784 229.715 105.467L230.47 106.098L229.54 106.43C228.506 106.776 227.594 107.412 226.913 108.263L226.282 109.014L225.95 108.091C225.602 107.058 224.965 106.146 224.113 105.464L223.361 104.833L224.285 104.501C225.319 104.152 226.232 103.515 226.916 102.665L227.55 101.914Z" fill="#5B5C63"/>
<path d="M258.161 207.77C258.148 207.839 246.562 204.164 232.323 199.57C218.084 194.976 206.53 191.199 206.57 191.12C206.609 191.04 218.169 194.725 232.407 199.319C246.646 203.913 258.183 207.705 258.161 207.77Z" fill="#2F2E41"/>
<path d="M106.67 72.9987C106.658 73.065 97.4997 69.7859 86.2536 65.6744C75.0074 61.5628 65.9141 58.1801 65.929 58.0964C65.9439 58.0126 75.0778 61.309 86.349 65.4214C97.6202 69.5337 106.694 72.9273 106.67 72.9987Z" fill="#2F2E41"/>
<path d="M268.227 215.415C268.215 215.482 262.461 213.626 255.409 211.272C248.358 208.919 242.651 206.96 242.674 206.892C242.697 206.824 248.476 208.677 255.497 211.025C262.517 213.373 268.247 215.34 268.227 215.415Z" fill="#2F2E41"/>
<path d="M181.643 113.324C181.548 113.357 181.468 113.425 181.421 113.514C181.374 113.603 181.363 113.706 181.389 113.803C181.416 113.9 181.478 113.984 181.564 114.037C181.649 114.09 181.752 114.108 181.851 114.088C181.949 114.069 182.037 114.012 182.095 113.93C182.154 113.848 182.179 113.747 182.166 113.647C182.153 113.548 182.102 113.457 182.025 113.393C181.947 113.329 181.848 113.297 181.747 113.303" fill="#56575D"/>
<path d="M180.842 114.078C180.793 114.095 180.748 114.122 180.709 114.157C180.67 114.192 180.639 114.235 180.616 114.282C180.594 114.329 180.581 114.38 180.578 114.432C180.576 114.484 180.583 114.537 180.601 114.586C180.626 114.656 180.669 114.717 180.727 114.763C180.785 114.809 180.854 114.838 180.928 114.847C181.001 114.856 181.076 114.844 181.143 114.813C181.21 114.782 181.267 114.732 181.307 114.67C181.348 114.609 181.37 114.537 181.372 114.463C181.374 114.389 181.355 114.316 181.317 114.252C181.28 114.188 181.225 114.136 181.16 114.102C181.094 114.067 181.021 114.052 180.947 114.057" fill="#56575D"/>
</svg>
