<svg width="640" height="800" viewBox="0 0 640 800" fill="none" xmlns="http://www.w3.org/2000/svg">
<path fill-rule="evenodd" clip-rule="evenodd" d="M357.667 442.52C357.667 464.6 339.674 482.52 317.503 482.52C295.333 482.52 277.34 464.6 277.34 442.52C277.34 420.44 295.333 402.52 317.503 402.52C339.674 402.52 357.667 420.44 357.667 442.52ZM357.667 602.52C357.667 624.6 339.674 642.52 317.503 642.52C295.333 642.52 277.34 624.6 277.34 602.52C277.34 580.44 295.333 562.52 317.503 562.52C339.674 562.52 357.667 580.44 357.667 602.52ZM400.321 206.68C400.321 250.88 364.374 286.68 319.994 286.68C275.653 286.68 239.666 250.88 239.666 206.68C239.666 162.52 275.653 126.68 319.994 126.68C364.374 126.68 400.321 162.52 400.321 206.68ZM318.909 720C215.648 720 121.384 651.649 89.5742 553.809C57.8449 456.289 94.354 349.484 173.758 289.004C195.767 272.244 203.84 244.43 200.225 217.07C191.229 149.23 243.963 80 318.909 80C393.814 80 446.55 149.23 437.593 217.07C433.978 244.43 442.011 272.244 464.021 289.004C543.464 349.484 579.933 456.289 548.244 553.809C516.434 651.649 422.17 720 318.909 720ZM532.62 241.484C523.021 232.924 518.201 220.751 518.723 207.871C523.021 97.2311 433.335 0 318.909 0C204.483 0 114.757 97.2888 119.094 207.969C119.576 220.769 114.757 232.924 105.158 241.484C-64.6142 392.604 -25.2941 684.804 197.614 776.484C315.575 824.964 455.064 796.152 545.232 706.152C685.041 566.632 661.103 356.124 532.62 241.484Z" fill="#98FF98"/>
</svg>
