<svg width="30" height="30" viewBox="0 0 30 30" fill="none" xmlns="http://www.w3.org/2000/svg">
<path d="M15 30C23.28 30 30 23.28 30 15C30 6.72 23.28 0 15 0C6.72 0 0 6.72 0 15C0 23.28 6.72 30 15 30ZM21.09 22.0706C20.0812 22.0725 16.8937 18.5362 7.94062 20.3719C7.70437 20.4319 7.39687 20.5294 7.22062 20.5294C6.07687 20.5294 5.8575 18.8194 7.0875 18.5569C12.0412 17.4619 17.1037 17.5594 21.4219 20.1413C22.4512 20.7994 22.0144 22.0706 21.09 22.0706ZM22.7194 18.1031C22.5788 18.0656 22.62 18.1894 21.9731 17.8481C18.1931 15.6112 12.5569 14.7094 7.54125 16.0706C7.25063 16.1494 7.09312 16.2281 6.82125 16.2281C5.4825 16.2281 5.12625 14.2144 6.58687 13.8038C12.4819 12.1481 18.8044 13.1138 23.2069 15.7331C23.6981 16.0238 23.8913 16.3987 23.8913 16.9237C23.8856 17.5762 23.3775 18.1031 22.7194 18.1031V18.1031ZM5.685 8.74687C11.3381 7.09125 19.8956 7.61437 25.215 10.7194C26.58 11.505 26.0419 13.4944 24.5925 13.4944L24.5906 13.4925C24.2756 13.4925 24.0825 13.4137 23.8106 13.2562C19.5056 10.6856 11.805 10.0688 6.82125 11.46C6.60375 11.52 6.33 11.6175 6.04125 11.6175C5.2425 11.6175 4.63312 10.995 4.63312 10.1906C4.63312 9.36938 5.14125 8.90437 5.685 8.74687V8.74687Z" fill="currentColor"/>
</svg>
