<svg width="799" height="801" viewBox="0 0 799 801" fill="none" xmlns="http://www.w3.org/2000/svg">
<path d="M790.063 202.72C801.976 168.121 800.932 130.774 786.946 97.0092C772.96 63.2449 747.291 36.0982 714.402 20.0559L709.096 7.24813C707.905 4.37064 705.619 2.08493 702.741 0.89354C699.864 -0.297847 696.633 -0.297847 693.755 0.89354L589.616 44.0293C580.537 47.7897 573.466 54.8598 569.705 63.94C565.945 73.0186 565.945 83.0194 569.705 92.0981L570.026 92.873L160.624 264.735C154.636 267.215 149.971 271.879 147.491 277.867C145.011 283.855 145.011 290.451 147.491 296.439L152.584 308.733L70.14 342.883L69.841 342.159C67.3611 336.171 62.6973 331.507 56.7075 329.026C50.7193 326.548 44.1236 326.546 38.1353 329.026L14.9933 338.612C9.00507 341.092 4.34128 345.757 1.85988 351.745C-0.61996 357.734 -0.61996 364.329 1.85988 370.317L40.2034 462.886C42.6833 468.874 47.3471 473.538 53.3369 476.019C56.3318 477.259 59.477 477.879 62.6237 477.879C65.7705 477.879 68.9157 477.259 71.9106 476.019L95.0526 466.433C101.041 463.953 105.705 459.29 108.186 453.3C110.667 447.31 110.666 440.716 108.186 434.728L107.887 434.004L190.331 399.855L195.423 412.149C197.903 418.137 202.567 422.803 208.557 425.283C211.546 426.521 214.683 427.141 217.828 427.141C220.987 427.141 224.155 426.515 227.179 425.262L260.006 411.482C260.623 411.338 261.238 411.155 261.842 410.904C262.484 410.638 263.082 410.313 263.649 409.953L361.447 368.897C362.808 370.53 364.275 372.071 365.831 373.514L138.583 782.556C135.433 788.225 137.476 795.373 143.145 798.522C144.95 799.525 146.907 800.001 148.836 800.001C152.963 800.001 156.964 797.822 159.11 793.96L253.167 624.657H387.594V788.258C387.594 794.742 392.851 800 399.335 800C405.82 800 411.077 794.742 411.077 788.258V624.657H545.503L639.56 793.961C641.707 797.823 645.708 800.003 649.835 800.003C651.764 800.003 653.721 799.525 655.526 798.523C661.195 795.373 663.238 788.225 660.088 782.556L432.845 373.516C442.557 364.503 448.65 351.642 448.65 337.378C448.65 335.697 448.564 334.036 448.4 332.397L636.526 253.424L636.805 254.095C642.668 268.25 656.4 276.807 670.843 276.807C675.526 276.807 680.287 275.907 684.874 274.006L789.013 230.87C795.004 228.389 797.849 221.519 795.368 215.53L790.063 202.72ZM86.4875 444.315C86.3638 444.614 86.1384 444.708 86.0632 444.739L62.9212 454.325C62.8461 454.356 62.6238 454.45 62.3216 454.325C62.0226 454.201 61.9286 453.976 61.8973 453.901L23.5538 361.333C23.5225 361.259 23.4285 361.034 23.5538 360.733C23.6774 360.434 23.9029 360.34 23.978 360.309L47.1201 350.723C47.167 350.704 47.2719 350.66 47.416 350.66C47.5036 350.66 47.6054 350.676 47.7181 350.723C48.0171 350.847 48.1111 351.072 48.1424 351.147L67.3142 397.431L81.6922 432.144L86.4844 443.715C86.5172 443.789 86.6112 444.016 86.4875 444.315ZM98.8961 412.31L89.0112 388.445L79.1263 364.58L161.57 330.43L181.34 378.161L98.8961 412.31ZM765.249 105.997C773.024 124.765 776.047 144.856 774.328 164.735L730.134 58.0426C745.408 70.8832 757.475 87.2292 765.249 105.997ZM218.138 403.587C218.063 403.618 217.838 403.711 217.539 403.587C217.239 403.463 217.147 403.238 217.116 403.163L193.152 345.308L178.774 310.595L169.188 287.453C169.157 287.379 169.063 287.154 169.188 286.853C169.312 286.554 169.537 286.462 169.662 286.408L193.429 276.431L241.956 393.588L218.138 403.587ZM425.167 337.378C425.167 351.622 413.579 363.21 399.335 363.21C385.092 363.21 373.504 351.622 373.504 337.378C373.504 323.135 385.092 311.547 399.335 311.547C413.579 311.547 425.167 323.135 425.167 337.378ZM266.213 601.174L386.341 384.943C386.758 385.057 387.174 385.167 387.594 385.269V601.174H266.213ZM532.456 601.174H411.077V385.269C411.497 385.165 411.913 385.057 412.328 384.943L532.456 601.174ZM440.489 310.249C431.656 296.895 416.511 288.063 399.335 288.063C372.143 288.063 350.02 310.186 350.02 337.378C350.02 340.94 350.409 344.411 351.129 347.759L263.61 384.5L215.081 267.343L579.011 114.572L627.538 231.728L440.489 310.249ZM675.888 252.309C669.106 255.119 661.309 251.886 658.5 245.108L591.401 83.1118C590.04 79.8288 590.04 76.2124 591.401 72.9278C592.761 69.6433 595.318 67.0868 598.602 65.7263L691.894 27.0837L769.179 213.667L675.888 252.309Z" fill="#98FF98"/>
</svg>
