<svg width="38" height="30" viewBox="0 0 38 30" fill="none" xmlns="http://www.w3.org/2000/svg">
<path d="M33.44 7.48154C34.9423 6.41538 36.2046 5.08385 37.2339 3.55154V3.54923C35.8608 4.15154 34.3977 4.55077 32.8723 4.74461C34.4416 3.80769 35.6392 2.33538 36.2023 0.560769C34.7392 1.43308 33.1239 2.04923 31.4023 2.39308C30.0131 0.916153 28.0331 0 25.8731 0C21.6823 0 18.3085 3.40154 18.3085 7.57154C18.3085 8.17154 18.3593 8.74846 18.4839 9.29769C12.1908 8.99077 6.62233 5.97461 2.88156 1.38C2.22848 2.51308 1.84541 3.81 1.84541 5.20615C1.84541 7.82769 3.19541 10.1515 5.20771 11.4969C3.99156 11.4738 2.79848 11.1208 1.78771 10.5646V10.6477C1.78771 14.3262 4.41156 17.3815 7.85233 18.0854C7.23617 18.2538 6.56464 18.3346 5.86771 18.3346C5.3831 18.3346 4.89387 18.3069 4.43464 18.2054C5.41541 21.2031 8.19848 23.4069 11.5077 23.4785C8.93233 25.4931 5.66233 26.7069 2.12233 26.7069C1.50156 26.7069 0.906176 26.6792 0.310791 26.6031C3.66387 28.7654 7.63771 30 11.9231 30C25.28 30 33.9869 18.8562 33.44 7.48154V7.48154Z" fill="currentColor"/>
</svg>
