<svg width="52" height="60" viewBox="0 0 52 60" fill="none" xmlns="http://www.w3.org/2000/svg">
<path d="M27.9934 60H12.0605C11.6457 59.9802 10.4191 59.8487 9.70037 59.1382C8.56958 58.0211 8.84749 54.4912 8.26704 54.0312C7.99393 53.8142 7.70096 53.4289 7.40458 52.782C5.75221 49.1768 3.90613 39.8177 3.29693 35.4301C2.99986 33.289 3.16141 29.2478 0.208502 17.2575C-0.465723 14.9467 0.54938 12.7981 2.63366 12.1909C3.15338 12.034 3.70181 11.9963 4.23811 12.0807L3.22917 8.47753C3.21949 8.4428 3.21149 8.40762 3.20521 8.37212C3.02245 7.29199 2.89308 4.502 6.29364 3.61284C9.13908 2.8688 10.2815 5.77036 10.6929 6.76698L17.1394 24.1709L23.6606 3.7778C24.0631 2.5464 24.9967 -0.317517 27.9127 0.0288366C30.2625 0.31427 31.4816 1.78251 31.2578 4.05708C31.2126 4.50884 27.7463 20.8066 26.2576 27.7932C26.2327 27.9282 26.181 28.0568 26.1056 28.1714C26.0302 28.2861 25.9325 28.3844 25.8185 28.4607C25.7044 28.5369 25.5762 28.5896 25.4414 28.6154C25.3066 28.6413 25.1681 28.6399 25.0339 28.6113C24.8996 28.5827 24.7725 28.5275 24.66 28.4489C24.5475 28.3704 24.4519 28.2701 24.3788 28.1539C24.3057 28.0378 24.2567 27.9081 24.2345 27.7727C24.2124 27.6373 24.2176 27.4988 24.2499 27.3654C26.1912 18.25 29.1167 4.45682 29.2194 3.81614C29.3131 2.85442 29.0907 2.24043 27.6656 2.06794C26.9831 1.98375 26.3671 2.10559 25.6148 4.40959L18.1888 27.6317C18.1236 27.8351 17.9966 28.0132 17.8254 28.1411C17.6543 28.2689 17.4475 28.3402 17.2339 28.3449H17.2106C17.001 28.3449 16.7964 28.2806 16.6243 28.1608C16.4523 28.041 16.321 27.8714 16.2482 27.6748L8.78109 7.51514C7.9816 5.58076 7.31491 5.42949 6.63589 5.63757C4.98969 6.14204 5.13411 7.39877 5.2231 7.98059L10.9838 28.5612C11.0202 28.6911 11.0307 28.8268 11.0146 28.9607C10.9986 29.0946 10.9563 29.224 10.8902 29.3416C10.8241 29.4591 10.7356 29.5625 10.6295 29.6459C10.5235 29.7292 10.4021 29.7908 10.2723 29.8272C10.1424 29.8636 10.0067 29.8741 9.87278 29.858C9.73889 29.842 9.60947 29.7997 9.49191 29.7336C9.37436 29.6676 9.27096 29.579 9.18764 29.473C9.10432 29.3669 9.0427 29.2455 9.00629 29.1157L9.00492 29.1102L5.23131 15.6558C4.97737 14.7858 4.41471 13.8125 3.20864 14.1622C2.09154 14.4881 1.89783 15.7188 2.19148 16.725C5.20941 28.9767 5.08072 33.161 5.34973 35.385C5.70293 38.2988 7.92753 49.7511 9.61686 52.0743C10.9858 53.9566 11.12 57.6125 11.2104 57.7514C11.2863 57.8069 11.7545 57.9267 12.1146 57.9472L27.8627 57.9458C28.0407 57.889 28.4849 57.6317 28.9682 57.1484C29.8306 56.2873 28.7183 52.6725 30.8683 50.9045C31.9156 50.0434 34.171 48.3479 35.2272 46.5771C37.6277 42.5509 48.967 30.9063 49.2921 30.5442C47.7082 29.7009 46.1469 29.4956 44.6307 29.9227C42.3336 30.5709 40.814 32.4334 40.278 33.4314C40.2077 33.5624 40.1099 33.6766 39.9912 33.7661C33.0724 38.9772 32.75 38.8916 32.2106 38.7568C31.9465 38.6907 31.7194 38.5224 31.5794 38.2889C31.4393 38.0554 31.3978 37.7758 31.4638 37.5117C31.5624 37.1195 35.9171 34.2596 38.5832 32.2561C39.4929 30.688 41.4218 28.6947 44.0729 27.9466C46.216 27.3415 48.4796 27.6837 50.6207 28.9329C51.3435 29.3539 51.8083 30.2191 51.6906 30.512C51.5318 30.9084 39.2794 43.7898 36.9897 47.6285C35.7351 49.734 31.8081 52.7711 31.7198 52.845C31.3372 53.5069 31.318 54.4364 31.2995 55.3372C31.277 56.4256 31.2537 57.5516 30.5904 58.4072C29.6068 59.6755 28.3288 59.9535 28.1865 59.9808C28.1229 59.9934 28.0582 59.9999 27.9934 60Z" fill="#98FF98"/>
<path d="M28.3479 8.63715C28.7292 6.37216 30.7539 4.82384 32.9443 5.23385C36.043 5.81362 36.2148 8.76104 36.032 9.84323C34.9704 18.6307 33.3139 32.9517 33.3098 34.6705C33.5268 35.1387 33.919 35.342 34.4755 35.5897L34.7027 35.6924C34.9398 35.8141 35.1203 36.0231 35.2061 36.2754C35.292 36.5276 35.2765 36.8034 35.1629 37.0444C35.0493 37.2854 34.8465 37.4729 34.5973 37.5673C34.3481 37.6616 34.072 37.6555 33.8273 37.5501L33.6425 37.4666C33.0189 37.1894 31.858 36.674 31.3371 35.2708C31.2269 34.9737 30.9983 34.3577 34.0004 9.5489C34.1059 8.91985 34.0518 7.43997 32.602 7.25858C31.3836 7.10662 30.398 7.9287 30.2303 8.92258" fill="#98FF98"/>
<path d="M22.9567 44.12C22.7807 44.1196 22.6078 44.0741 22.4544 43.9877C22.3011 43.9014 22.1725 43.7771 22.0809 43.6268C21.9893 43.4765 21.9379 43.3052 21.9315 43.1293C21.925 42.9535 21.9639 42.7789 22.0443 42.6223C25.195 36.5187 32.198 36.7261 32.5006 36.735C32.6353 36.7404 32.7677 36.7722 32.8901 36.8288C33.0126 36.8853 33.1227 36.9654 33.2141 37.0645C33.3056 37.1636 33.3766 37.2798 33.4232 37.4063C33.4698 37.5329 33.491 37.6674 33.4856 37.8021C33.463 38.3675 32.9777 38.7953 32.4212 38.7871C32.172 38.7775 26.4107 38.6386 23.8684 43.5642C23.7824 43.7318 23.6517 43.8724 23.4908 43.9704C23.3299 44.0685 23.1451 44.1203 22.9567 44.12ZM8.00259 31.4658C7.79319 31.4663 7.58866 31.4027 7.41645 31.2836C7.24424 31.1644 7.1126 30.9955 7.03921 30.7994C6.96582 30.6032 6.95418 30.3894 7.00587 30.1865C7.05756 29.9835 7.17009 29.8013 7.32836 29.6642C8.56113 28.593 11.2553 27.5922 12.1896 27.5922H12.1951C12.4674 27.5924 12.7285 27.7008 12.9209 27.8934C13.1133 28.0861 13.2213 28.3473 13.2212 28.6197C13.221 28.892 13.1126 29.153 12.92 29.3455C12.7273 29.5379 12.466 29.6459 12.1937 29.6457C11.705 29.6738 9.52695 30.4746 8.67476 31.2146C8.4884 31.3767 8.24963 31.466 8.00259 31.4658ZM15.02 29.1981C14.7915 29.1983 14.5694 29.1223 14.389 28.9821C14.2085 28.8419 14.08 28.6456 14.0237 28.4241C13.9675 28.2026 13.9867 27.9687 14.0784 27.7593C14.1701 27.55 14.329 27.3773 14.5299 27.2685C15.5457 26.7168 18.4897 26.3738 19.7779 26.6552C20.0357 26.7212 20.2578 26.8847 20.3974 27.1112C20.537 27.3378 20.5833 27.6096 20.5266 27.8696C20.4698 28.1296 20.3144 28.3574 20.093 28.5051C19.8717 28.6527 19.6017 28.7088 19.3398 28.6614C18.4226 28.4615 16.0118 28.801 15.5101 29.0735C15.3596 29.155 15.1912 29.1978 15.02 29.1981ZM27.3422 29.4417C27.2033 29.4417 27.0616 29.413 26.9261 29.3527C26.0677 28.9708 23.6357 28.8168 23.0915 28.9838C22.8309 29.0629 22.5496 29.0352 22.3094 28.9068C22.0693 28.7784 21.8899 28.5599 21.8109 28.2993C21.7318 28.0387 21.7595 27.7574 21.8879 27.5172C22.0162 27.277 22.2348 27.0977 22.4954 27.0186C23.6008 26.6832 26.553 26.9406 27.7598 27.4765C27.975 27.5721 28.1508 27.7386 28.2578 27.9483C28.3648 28.158 28.3965 28.3981 28.3475 28.6284C28.2986 28.8587 28.172 29.0651 27.989 29.2132C27.806 29.3613 27.5777 29.442 27.3422 29.4417Z" fill="#98FF98"/>
</svg>
