<svg width="27" height="25" viewBox="0 0 112 100" fill="none" xmlns="http://www.w3.org/2000/svg">
<path d="M109.703 90.1311C109.596 90.07 99.6191 84.4089 92.5353 76.582C97.5457 68.6227 100.182 59.4867 100.182 50.0004C100.182 36.6447 94.9811 24.0882 85.5372 14.6443C76.0933 5.20127 63.5368 0 50.1819 0C36.8263 0 24.2697 5.20127 14.8267 14.6443C5.38279 24.0882 0.181519 36.6447 0.181519 50.0004C0.181519 63.3552 5.38279 75.9118 14.8267 85.3557C24.2697 94.7996 36.8263 100 50.1819 100C58.7062 100 67.0541 97.835 74.4517 93.723C89.0307 101.828 108.174 96.3894 109.014 96.1442C110.282 95.7735 111.205 94.6791 111.355 93.3667C111.506 92.0534 110.856 90.7792 109.703 90.1311ZM76.274 87.1584C75.2144 86.4662 73.8502 86.4458 72.7694 87.105C65.9843 91.245 58.1735 93.4337 50.1819 93.4337C26.2328 93.4337 6.7478 73.9495 6.7478 50.0004C6.7478 26.0505 26.2328 6.56628 50.1819 6.56628C74.131 6.56628 93.6152 26.0505 93.6152 50.0004C93.6152 58.9879 90.8929 67.6131 85.7408 74.9429C84.8984 76.1417 84.9518 77.7544 85.8731 78.8937C89.9495 83.9406 95.2093 88.2401 99.3976 91.2484C92.8636 91.961 83.4681 91.8541 76.274 87.1584V87.1584Z" fill="#26C6DA"/>
</svg>
