<svg width="47" height="30" viewBox="0 0 47 30" fill="none" xmlns="http://www.w3.org/2000/svg">
<path d="M13.2231 14.8385C13.2231 18.8077 13.1769 19.0615 12.6923 19.6154C12.2538 20.0077 11.8154 20.1462 10.9385 20.1462L9.76154 20.1692L9.69231 14.9308L9.64615 9.69231H10.8462C11.6538 9.69231 12.2308 9.85385 12.6231 10.1769C13.1769 10.6615 13.2231 10.7538 13.2231 14.8385ZM46.1538 4.61538V25.3846C46.1538 27.9462 44.1 30 41.5385 30H4.61538C2.05385 30 0 27.9462 0 25.3846V4.61538C0 2.05385 2.05385 0 4.61538 0H41.5385C44.1 0 46.1538 2.05385 46.1538 4.61538ZM15.9923 14.3769C15.9231 10.1308 15.8769 9.78462 15.3231 8.86154C14.4 7.29231 13.3615 6.92308 9.87692 6.92308H6.92308V23.0769H9.71538C12.7846 23.0769 14.0769 22.6846 15 21.4385C15.9462 20.2154 16.1538 19.1769 15.9923 14.3769ZM25.6615 6.92308H22.2462C18.8077 6.92308 18.7846 6.92308 18.3 7.56923C17.8154 8.21538 17.7692 8.56154 17.7692 15V21.8308L18.3923 22.4538C18.9692 23.0769 19.1077 23.0769 22.3385 23.0769H25.6615V20.3308L23.1462 20.2385L20.6077 20.1692V16.3846L22.1769 16.3154L23.7 16.2231V13.4769H20.4923V9.69231H25.6615V6.92308ZM39.2308 7.06154C39.2308 6.92308 38.5385 6.92308 37.7077 6.92308L36.1385 7.06154L34.7769 12.4846C33.9 15.9 33.3462 17.7231 33.2308 17.4C33.0462 16.7769 30.6 7.15385 30.6 7.03846C30.6 6.92308 29.8846 6.92308 29.0308 6.92308H27.4385L28.3846 10.5C28.8462 12.5077 29.7462 15.7615 30.2538 17.7692C31.0385 20.8846 31.3154 21.5769 31.9846 22.2462C32.4462 22.7538 33.0231 23.0769 33.3923 23.0769C34.1538 23.0769 35.1462 22.2923 35.4692 21.3923C35.7692 20.7692 39.2308 7.36154 39.2308 7.06154Z" fill="#5B5C63"/>
</svg>
