<svg width="262" height="181" viewBox="0 0 262 181" fill="none" xmlns="http://www.w3.org/2000/svg">
<path d="M124.651 32.5499C121.463 25.4071 116.15 18.8043 109.181 15.0761C106.01 13.3688 102.578 12.3235 99.094 11.9576C98.9895 11.6614 98.8501 11.3653 98.6759 11.0865C97.2125 8.82172 94.3031 7.93322 91.9163 9.30952C88.6934 11.1736 85.7143 13.3688 82.9791 15.8252C82.23 16.3478 81.5157 16.9402 80.8188 17.5325C80.3833 17.9158 80.0523 18.3862 79.8083 18.9088C72.6481 26.4698 67.561 35.9994 64.7038 46.0516C62.3345 54.3617 61.3937 63.1248 61.4634 71.7659C61.4983 76.4349 62.0209 80.9122 65.0174 84.6579C67.6481 87.9331 71.9861 89.7972 76.0453 90.4767C80.6272 91.2432 85.0348 90.9122 89.5993 90.2154C91.6202 89.9018 93.6411 89.5185 95.6446 89.1526C96.6202 88.9784 97.5784 88.8042 98.554 88.6474C98.9547 88.5777 99.3554 88.5255 99.7735 88.4558C99.7038 88.4732 100.679 88.3512 100.888 88.3164C105.366 87.846 109.878 88.4732 114.32 87.6718C118.293 86.9575 122.038 84.623 124.617 81.5568C130.244 74.8669 131.655 66.0168 130.854 57.5325C130.087 49.0133 128.171 40.4071 124.651 32.5499Z" fill="#3A3C44"/>
<path d="M102.631 47.1664C100.279 45.6333 96.8118 44.9887 94.1637 45.9294C91.4982 46.8876 88.9372 48.7169 87.5958 51.5392C86.1498 54.5705 85.9059 57.567 86.4808 60.9294C86.5505 61.3824 86.6376 61.8353 86.7073 62.3057C87.0557 66.1907 87.0383 70.0757 86.6202 73.9607C86.324 76.8527 88.0662 80.6158 89.8432 82.5844C91.7421 84.6924 94.878 86.2952 97.6132 86.1559C100.453 86.0165 103.397 84.9712 105.383 82.5844C105.958 81.7656 106.533 80.9468 107.108 80.1106C108.101 78.2116 108.606 76.1559 108.606 73.9607C109.286 67.4277 108.78 60.912 107.683 54.466C107.195 51.5914 104.826 48.5949 102.631 47.1664Z" fill="url(#paint0_linear_601_148)"/>
<path d="M119.669 19.4662C116.916 3.83903 97.561 4.23972 97.561 4.23972C97.561 4.23972 78.2056 3.83903 75.453 19.4662C73.1185 32.724 77.352 31.609 76.4112 40.4244C75.5227 48.6822 86.1499 66.609 97.561 66.609C108.972 66.609 119.617 48.6822 118.711 40.4244C117.77 31.609 122.021 32.724 119.669 19.4662Z" fill="url(#paint1_linear_601_148)"/>
<path d="M128.415 70.0065C121.289 67.8985 115.557 69.3096 110.958 70.5466C94.5121 80.0587 85.0173 69.2051 85.0173 69.2051C79.5644 67.0274 75.1916 61.1215 63.6236 67.7243C51.1149 74.8671 34.3728 128.578 34.3728 128.578L49.4076 136.853L63.3797 103.003V108.857C63.5888 113.473 64.3379 119.728 66.7944 123.386C71.0278 129.693 68.7282 159.344 68.7282 159.344H98.0313H123.519C123.519 159.344 118.38 131.766 122.108 124.048C124.373 119.344 125.383 115.006 125.801 111.54V103.63L126.934 146.644L143.885 143.334C143.885 143.317 142.125 74.0483 128.415 70.0065Z" fill="url(#paint2_linear_601_148)"/>
<path d="M188.031 154.24H68.7283V159.832H188.031V154.24Z" fill="url(#paint3_linear_601_148)"/>
<path d="M255.104 160.337H3.71079C1.65505 160.337 0 161.992 0 164.048V168.334C0 170.39 1.65505 172.045 3.71079 172.045H255.122C257.177 172.045 258.832 170.39 258.832 168.334V164.048C258.815 161.992 257.16 160.337 255.104 160.337Z" fill="#374891"/>
<path d="M240.958 172.027H17.8571V180.825H240.958V172.027Z" fill="url(#paint4_linear_601_148)"/>
<path d="M43.7457 102.254C43.0488 103.996 42.3868 105.738 41.7422 107.428C47.0906 110.39 52.6829 112.933 58.4146 115.076L60.5052 110.007C60.0697 109.85 59.6342 109.693 59.1986 109.519C53.8676 107.48 48.7108 105.041 43.7457 102.254Z" fill="#EBFDFF"/>
<path d="M63.5192 111.069C63.676 113.02 63.9373 115.128 64.3902 117.132C81.7073 122.637 100.192 124.501 118.223 122.411C119.861 122.219 121.498 121.992 123.136 121.749C123.989 119.675 124.599 117.707 125.035 115.86C104.564 119.484 83.2404 117.776 63.5192 111.069Z" fill="#EBFDFF"/>
<path d="M132.073 122.324C130.191 123.142 128.275 123.909 126.359 124.606L126.516 130.32C129.338 129.344 132.108 128.247 134.86 127.045C136.219 126.452 136.533 124.466 135.854 123.282C135.017 121.923 133.449 121.731 132.073 122.324Z" fill="#EBFDFF"/>
<path d="M106.881 93.8565C99.634 93.5081 92.4911 92.1841 85.418 90.7032C78.5887 89.2747 71.6375 87.6893 65.3135 84.6579C61.6201 82.8984 58.1184 80.6684 55.1393 77.8635C54.2333 79.3966 53.3274 81.0517 52.4215 82.7938C60.2786 89.6231 70.8187 93.09 80.9755 95.3548C95.7316 98.6301 111.428 101.487 126.324 97.4628C130.714 96.2781 134.948 94.5011 138.798 92.097C138.397 90.1109 137.961 88.1945 137.509 86.3827C128.763 92.5673 117.509 94.3618 106.881 93.8565Z" fill="#EBFDFF"/>
<path d="M105.853 105.895C98.066 105.598 90.3482 104.396 82.7176 102.863C76.1322 101.539 69.5643 99.919 63.2576 97.567C58.188 95.6681 53.2925 93.2117 48.8848 90.0583C48.1183 91.7308 47.3692 93.4381 46.6375 95.1455C51.742 98.6298 57.3691 101.278 63.2228 103.351L63.3622 103.003V103.403C68.5364 105.233 73.9022 106.609 79.2507 107.741C94.4597 110.947 110.4 113.055 125.784 109.849V104.24C119.268 105.703 112.474 106.138 105.853 105.895Z" fill="#EBFDFF"/>
<path d="M74.8084 76.0862C70.3659 74.135 66.2195 71.6263 62.7701 68.2639C61.5157 69.1698 60.2265 70.5113 58.9025 72.2012C66.2021 79.4486 76.6899 83.4904 86.5854 85.459C98.101 87.7412 110.122 87.2883 121.429 84.1176C126.15 82.7935 130.749 80.9817 135.104 78.7343C134.355 76.8179 133.554 75.1454 132.683 73.7865C115.017 82.898 93.101 84.1524 74.8084 76.0862Z" fill="#EBFDFF"/>
<path d="M68.2754 127.515C68.6238 129.187 68.8677 131.156 69.0419 133.281C82.5611 136.417 96.7248 136.87 110.575 134.483C114.024 133.891 117.422 133.107 120.784 132.149C120.836 129.936 121.028 127.915 121.394 126.278C104.181 131.504 85.6621 131.905 68.2754 127.515Z" fill="#EBFDFF"/>
<path d="M140.523 112.044C135.801 113.56 130.993 114.762 126.132 115.668L126.272 121.225C131.585 120.267 136.829 118.995 141.986 117.34C142.09 117.306 142.178 117.271 142.265 117.236C142.108 115.494 141.916 113.717 141.725 111.922C141.359 111.87 140.958 111.905 140.523 112.044Z" fill="#EBFDFF"/>
<path d="M125.819 104.222L125.958 109.814C126.289 109.745 126.62 109.675 126.951 109.605C131.794 108.508 136.446 106.853 140.836 104.623C140.575 102.724 140.296 100.825 140 98.9434C135.575 101.4 130.784 103.107 125.819 104.222Z" fill="#EBFDFF"/>
<path d="M39.0417 114.745C38.3623 116.661 37.7351 118.455 37.1776 120.058C42.2124 123.229 47.5086 125.929 52.979 128.177L55.0522 123.159C53.8675 122.671 52.6828 122.149 51.5156 121.609C47.2124 119.623 43.0487 117.323 39.0417 114.745Z" fill="#EBFDFF"/>
<path d="M129.059 136.94C128.275 137.323 127.491 137.689 126.707 138.055L126.864 143.944C128.537 143.247 130.192 142.498 131.829 141.696C135 140.111 132.23 135.372 129.059 136.94Z" fill="#EBFDFF"/>
<path d="M69.3555 142.009C69.3555 143.908 69.3381 145.807 69.3032 147.584C81.9339 150.372 94.9129 151.208 108.049 149.187C112.648 148.473 117.178 147.375 121.568 145.912C121.359 144.1 121.185 142.201 121.045 140.32C104.46 146.191 86.5157 145.912 69.3555 142.009Z" fill="#EBFDFF"/>
<path d="M89.1287 131.104C89.1287 131.104 74.9301 128.334 57.8047 126.156C46.9511 124.78 34.3727 128.578 34.3727 128.578L32.0382 136.748C31.2194 139.605 33.3797 142.463 36.3413 142.463L89.1113 142.654C93.1183 151.156 108.223 150.198 108.223 150.198L116.097 138.699C116.097 138.699 106.446 129.64 102.596 129.1C98.7454 128.56 89.1287 131.104 89.1287 131.104Z" fill="url(#paint5_linear_601_148)"/>
<path d="M70.7318 133.7H54.582C53.014 133.7 51.7597 134.971 51.7597 136.522V137.532C49.5471 137.672 47.4043 138.264 45.8189 140.006C43.8154 142.201 43.0489 145.39 43.0315 148.299C43.014 151.33 44.129 154.397 46.6377 156.226C48.0663 157.271 49.9827 158.038 51.8119 158.02C52.0558 159.344 53.2057 160.337 54.582 160.337H70.7318C72.2997 160.337 73.5541 159.066 73.5541 157.515V136.539C73.5541 134.954 72.2823 133.7 70.7318 133.7ZM51.7597 152.672C50.9931 152.811 49.6168 151.888 49.2161 151.365C48.3276 150.215 48.2928 148.595 48.4496 147.219C48.5889 146.017 48.8851 144.536 49.7562 143.63C50.2788 143.09 51.0105 142.898 51.7597 142.846V152.672Z" fill="url(#paint6_linear_601_148)"/>
<path d="M34.3727 128.577L32.0382 136.748C31.2194 139.605 33.3797 142.462 36.3413 142.462L39.9476 142.48C42.6305 135.163 46.5852 127.846 54.3552 125.894C44.4598 125.529 34.3727 128.577 34.3727 128.577Z" fill="url(#paint7_linear_601_148)"/>
<path d="M196.637 93.7517H122.874C120 93.7517 117.526 95.79 116.986 98.6123L105.035 159.849H188.049L200.122 98.0026C200.557 95.79 198.885 93.7517 196.637 93.7517Z" fill="url(#paint8_linear_601_148)"/>
<path d="M133.746 67.6369C136.307 58.4035 132.456 49.1526 129.408 39.832C129.199 36.6265 128.99 33.4383 128.676 30.2502C127.822 21.3652 126.463 11.5917 118.902 5.77285C111.498 0.0934108 101.202 -0.359553 92.2474 0.163095C92.1429 0.163095 92.0384 0.180525 91.9338 0.215368C91.6899 0.23279 91.446 0.267633 91.2021 0.302476C87.1952 1.12129 83.2579 3.69968 80.1394 6.24323C72.8921 12.1317 69.0767 20.3721 66.7771 29.2397C65.8886 32.6543 65.1395 36.1212 64.1987 39.5185C61.7422 44.5359 56.7771 48.2641 53.3973 52.6195C50.2266 56.6787 47.9618 62.4801 50.1743 67.3581C50.1569 67.4278 50.1395 67.4801 50.1221 67.5498C49.1813 71.731 49.5471 76.2431 51.1673 80.2153C52.9618 84.6752 56.1848 88.386 60.6621 90.3024C65.1395 92.2187 70.1395 92.1142 74.5297 90.0236C74.9478 89.832 75.1743 89.5184 75.2614 89.1874C75.3137 89.0654 75.3311 88.9435 75.3137 88.8041C75.1394 87.5498 74.2161 86.7832 73.1534 86.3128C69.7562 80.5811 69.8607 73.5254 70.3137 66.9574C71.2719 62.5672 72.5262 58.2292 73.6412 53.8738C74.5471 50.3198 75.1394 46.6439 75.9234 43.0376C77.5959 40.947 79.2858 38.8739 80.8711 36.7136C83.1534 33.63 85.3136 30.4767 87.352 27.2362C88.8154 24.9366 90.0697 22.3408 91.6899 20.076C92.0558 19.6579 92.4216 19.2223 92.7701 18.7868C94.0593 17.1491 96.5157 17.1143 97.8398 18.7345C98.8502 19.9714 99.9652 21.1038 101.15 22.1143C105.732 26.0864 110.749 29.2571 114.112 34.4488C115.226 36.1909 116.185 38.0376 116.969 39.9366C117.927 46.2083 118.345 52.5672 117.352 58.8564C116.69 62.9853 115.436 66.9923 113.449 70.6857C112.073 73.2466 110.558 75.8076 110.174 78.6125C109.53 79.1177 108.85 79.5707 108.118 79.9714C107.666 80.1804 107.195 80.3372 106.707 80.4418C106.568 80.4766 106.463 80.5463 106.376 80.616C105.767 80.8947 105.366 81.609 105.436 82.2536C105.383 82.4104 105.401 82.5846 105.54 82.7762C106.359 83.9087 107.474 84.379 108.676 84.5358C112.265 86.1735 116.063 87.2884 120 87.8111C124.164 88.3686 129.286 88.7518 132.753 85.9296C136.08 83.2292 136.638 78.5776 135.906 74.5881C135.436 72.2013 134.53 69.9365 133.746 67.6369ZM56.4635 55.3547C54.3032 58.4209 52.1255 61.5742 50.8363 65.1108C49.6517 59.954 53.3625 54.4836 56.8119 50.7554C58.7806 48.6299 60.906 46.5394 62.7004 44.2571C61.1673 48.2815 58.9548 51.8181 56.4635 55.3547ZM71.2719 85.7031C70.6795 85.5114 70.1046 85.285 69.6516 84.7971C69.5123 84.6404 69.3903 84.4661 69.2684 84.2919C68.7631 82.2536 68.7457 79.3268 68.8851 76.7658C69.1987 79.8843 69.8955 82.8982 71.2719 85.7031ZM86.4112 26.0864C84.1987 29.623 81.8293 33.055 79.3555 36.4174C78.4844 37.5847 77.5785 38.7345 76.6725 39.8669C76.9164 38.9435 77.1952 38.0376 77.5088 37.1317C79.3903 31.6091 83.3973 27.9679 87.5959 24.17C87.1952 24.8146 86.8119 25.4592 86.4112 26.0864ZM117.857 66.8006C116.638 70.5637 114.669 74.3094 111.829 77.1317C112.683 74.2571 114.634 71.609 115.819 68.9261C117.422 65.3198 118.397 61.4871 118.885 57.5846C119.303 54.2571 119.338 50.9122 119.146 47.5846C120.279 53.9958 119.826 60.7031 117.857 66.8006ZM132.875 64.832C132.439 63.3338 132.056 61.8355 131.742 60.3024C130.697 55.3895 130.174 50.3895 129.791 45.3895C129.983 45.947 130.174 46.5045 130.348 47.062C132.195 52.7066 133.693 58.9261 132.875 64.832Z" fill="url(#paint9_linear_601_148)"/>
<path d="M219.286 76.4872C218.711 73.9785 217.665 71.5917 216.237 69.4663C215.174 67.8635 213.327 65.0064 211.167 64.8322C209.129 64.6754 208.293 67.0273 208.676 68.6998C208.972 69.9715 209.843 71.0342 210.174 72.2886C210.505 73.5429 210.226 74.7973 209.756 75.982C208.902 78.1248 207.456 80.0064 206.742 82.2015C206.045 84.3966 206.463 86.2433 207.421 88.2816C207.962 89.4314 208.606 90.6509 208.415 91.9576C208.153 93.7868 206.638 95.1631 205.488 96.4698C203.955 98.2119 202.543 100.494 203.502 102.863C204.042 104.188 205.157 105.146 205.871 106.348C206.725 107.776 206.759 109.449 206.446 111.034C205.784 114.397 203.606 117.341 203.502 120.825C203.362 125.843 207.3 130.372 212.212 131.139C212.735 131.226 212.944 130.703 212.787 130.32C212.787 130.233 212.787 130.128 212.753 130.041C212.387 129.031 214.094 127.271 214.634 126.557C215.139 125.912 215.662 125.459 216.202 124.85C216.742 124.484 217.23 123.944 217.613 123.543C219.442 121.679 219.32 119.414 219.042 116.992C218.885 115.633 218.78 114.309 219.268 113.003C219.739 111.766 220.592 110.703 221.446 109.71C222.979 107.933 224.808 106.261 225.61 103.996C227.265 99.3095 222.979 96.0168 221.063 92.2712C218.624 87.4628 220.47 81.6266 219.286 76.4872Z" fill="url(#paint10_linear_601_148)"/>
<path d="M213.467 76.7308C215.714 83.5775 213.902 90.7552 213.954 97.7587C213.989 101.557 214.425 105.337 214.233 109.135C214.024 113.229 212.7 117.044 211.812 120.999C211.01 124.588 210.697 128.334 212.038 131.835C212.212 132.288 212.874 131.94 212.7 131.504C209.913 124.222 214.547 116.696 214.965 109.396C215.191 105.598 214.738 101.818 214.703 98.02C214.669 94.5531 215.052 91.121 215.244 87.6716C215.453 83.9259 215.366 80.1628 214.198 76.574C214.041 76.121 213.31 76.2604 213.467 76.7308Z" fill="white"/>
<path d="M256.393 71.1909C253.78 70.3895 250.853 70.6682 248.362 71.7309C242.212 74.3616 239.181 80.9295 235.435 86.034C233.275 88.9783 230.801 91.4521 227.439 92.9504C224.721 94.1525 222.369 95.3546 220.888 98.0549C219.233 101.051 218.937 104.536 217.822 107.724C217.247 109.362 216.463 110.842 215.261 112.114C214.007 113.456 212.474 114.518 211.184 115.808C208.502 118.473 207.787 121.713 208.554 125.372C209.373 129.24 211.69 133.386 210.488 137.323C209.982 137.497 209.791 138.125 210 138.525C210 138.525 210 138.525 210 138.543C209.529 139.449 211.01 140.058 211.463 139.152C211.515 139.065 211.55 138.961 211.603 138.856C217.108 138.699 222.369 135.773 225.226 130.999C226.881 128.212 227.317 124.867 229.007 122.114C230.871 119.048 234.059 118.961 237.003 117.532C239.547 116.295 240.784 114.065 241.202 111.33C241.655 108.264 241.15 104.588 243.31 102.062C245.209 99.8494 248.24 99.0305 250.435 97.1664C252.927 95.0584 253.501 92.0968 253.519 88.9609C253.536 85.8947 253.188 82.0793 255.662 79.7623C257.282 78.2466 261.254 79.4661 261.463 76.487C261.603 73.8563 258.554 71.8529 256.393 71.1909Z" fill="url(#paint11_linear_601_148)"/>
<path d="M247.299 81.9925C238.867 85.4594 234.163 93.6998 230.47 101.574C228.205 106.383 226.115 111.33 223.014 115.668C220.278 119.501 216.812 122.846 214.791 127.132C213.623 129.606 213.31 132.341 212.23 134.832C211.184 137.289 208.449 139.902 205.662 138.282C204.773 137.776 204.163 139.24 205.052 139.745C208.711 141.853 212.491 138.473 213.815 135.198C214.756 132.846 215.104 130.303 216.15 127.985C217.265 125.529 218.937 123.386 220.609 121.296C223.832 117.289 226.637 113.247 228.92 108.613C231.254 103.857 233.223 98.874 236.045 94.3792C238.954 89.7451 242.752 85.5639 247.909 83.4559C248.867 83.0726 248.24 81.5918 247.299 81.9925Z" fill="white"/>
<path d="M212.822 118.125C213.763 115.843 215.017 113.56 215.07 111.034C215.157 105.808 209.773 103.961 206.62 100.86C202.561 96.8705 202.456 90.4246 199.547 85.7033C198.136 83.4037 196.289 81.3653 194.146 79.7277C192.543 78.4908 189.739 76.2608 187.543 76.8009C185.453 77.3235 185.401 79.9542 186.359 81.4873C187.09 82.6545 188.293 83.4211 189.059 84.5709C189.808 85.7033 189.965 87.0622 189.878 88.3862C189.739 90.8078 188.92 93.1597 188.955 95.5988C188.989 98.0204 190.035 99.7277 191.672 101.435C192.596 102.393 193.641 103.386 193.902 104.763C194.268 106.661 193.205 108.56 192.491 110.25C191.533 112.498 190.888 115.25 192.648 117.289C193.624 118.421 195.052 119.013 196.185 119.972C197.509 121.121 198.101 122.759 198.327 124.466C198.798 128.038 197.596 131.696 198.676 135.215C200.226 140.268 205.662 143.473 210.819 142.585C211.359 142.498 211.394 141.905 211.115 141.574C211.097 141.487 211.045 141.4 210.975 141.313C210.261 140.425 211.376 138.107 211.69 137.219C211.968 136.418 212.334 135.773 212.683 134.989C213.083 134.449 213.397 133.735 213.641 133.212C214.843 130.738 213.972 128.508 212.857 126.191C212.247 124.902 211.69 123.595 211.742 122.132C211.794 120.756 212.3 119.397 212.822 118.125Z" fill="url(#paint12_linear_601_148)"/>
<path d="M206.237 119.988C205.192 116.121 203.484 112.497 202.16 108.734C200.958 105.302 200.209 101.731 199.251 98.2289C198.205 94.431 196.864 90.7028 194.495 87.5146C194.198 87.1139 193.519 87.4972 193.815 87.9153C198.345 93.9781 198.937 101.766 201.341 108.734C202.648 112.515 204.355 116.138 205.435 119.988C206.603 124.135 206.55 128.386 206.986 132.637C207.387 136.487 208.327 140.319 210.836 143.368C211.15 143.752 211.707 143.194 211.394 142.811C206.167 136.469 208.258 127.41 206.237 119.988Z" fill="white"/>
<path d="M222.404 136.208H211.463H200.522C198.867 136.208 197.613 137.532 197.892 138.996L201.602 158.403C201.829 159.553 202.927 160.389 204.233 160.389H211.446H218.658C219.947 160.389 221.062 159.553 221.289 158.403L225 138.996C225.313 137.532 224.059 136.208 222.404 136.208Z" fill="white"/>
<path d="M159.722 130.807C162.856 128.135 163.863 124.171 161.972 121.952C160.08 119.733 156.006 120.101 152.873 122.773C149.739 125.444 148.732 129.409 150.623 131.627C152.515 133.846 156.588 133.479 159.722 130.807Z" fill="#EDE8E9"/>
<path d="M160.592 120.929C161.394 121.783 161.812 122.985 161.655 124.449C161.289 127.828 158.031 131.226 154.39 132.027C152.996 132.341 151.742 132.219 150.766 131.783C151.829 132.898 153.571 133.368 155.644 132.915C159.286 132.097 162.543 128.717 162.909 125.337C163.118 123.229 162.195 121.644 160.592 120.929Z" fill="#E0DEDE"/>
<path d="M117.857 32.724C116.55 32.4278 112.422 31.6439 107.892 32.2188C102.404 32.8982 98.6759 33.839 96.5157 33.6299C94.3554 33.839 90.6446 32.8982 85.1394 32.2188C80.6098 31.6613 76.4634 32.4453 75.1742 32.724C74.9303 32.7763 74.7561 33.0028 74.7561 33.2467V35.0237C74.7561 35.2327 74.8781 35.4243 75.0697 35.5115C76.6899 36.2083 76.8293 40.1108 77.2648 42.933C77.7178 45.9296 81.4286 46.4871 85.2962 46.5219C87.8049 46.5393 89.7561 46.1386 91.1672 45.494C94.0244 44.17 94.5122 37.271 94.7909 36.6439C95.0697 36.0167 96.5331 36.1561 96.5331 36.1561C96.5331 36.1561 97.9965 36.0167 98.2752 36.6439C98.554 37.271 99.0418 44.17 101.899 45.494C103.293 46.1386 105.244 46.5393 107.77 46.5219C111.638 46.5045 115.348 45.9296 115.801 42.933C116.219 40.1108 116.376 36.2257 117.996 35.5115C118.188 35.4243 118.31 35.2327 118.31 35.0237V33.2467C118.275 32.9853 118.101 32.7763 117.857 32.724ZM92.8571 39.5881C91.986 43.2118 91.0801 43.8912 89.338 44.7275C87.5958 45.5637 85.2091 45.6682 81.8641 45.1804C78.5192 44.6926 78.1359 42.7414 78.0488 37.6717C77.9442 32.9853 82.1951 33.1421 82.8571 33.1944C82.9617 33.1944 83.0488 33.2118 83.1533 33.2118C83.9199 33.2641 86.7596 33.4731 89.9303 34.0132C93.3623 34.6055 93.7282 35.9818 92.8571 39.5881ZM111.15 45.1979C107.805 45.6857 105.418 45.5811 103.676 44.7449C101.934 43.9087 101.028 43.2118 100.157 39.6055C99.2857 35.9818 99.669 34.6055 103.084 34.0306C106.272 33.4906 109.094 33.2815 109.861 33.2292C109.965 33.2292 110.052 33.2118 110.157 33.2118C110.819 33.1595 115.07 33.0028 114.965 37.6892C114.861 42.7588 114.477 44.71 111.15 45.1979Z" fill="#3A3C44"/>
<defs>
<linearGradient id="paint0_linear_601_148" x1="97.5679" y1="76.2661" x2="97.5679" y2="63.4676" gradientUnits="userSpaceOnUse">
<stop stop-color="#FDB39A"/>
<stop offset="1" stop-color="#E99274"/>
</linearGradient>
<linearGradient id="paint1_linear_601_148" x1="97.568" y1="48.0627" x2="97.568" y2="2.42453" gradientUnits="userSpaceOnUse">
<stop stop-color="#FDB39A"/>
<stop offset="1" stop-color="#E99274"/>
</linearGradient>
<linearGradient id="paint2_linear_601_148" x1="62.4587" y1="81.5886" x2="103.297" y2="118.979" gradientUnits="userSpaceOnUse">
<stop stop-color="#BFE8F7"/>
<stop offset="1" stop-color="#93C6E5"/>
</linearGradient>
<linearGradient id="paint3_linear_601_148" x1="91.7928" y1="157.033" x2="98.3668" y2="157.033" gradientUnits="userSpaceOnUse">
<stop stop-color="#EDE8E9"/>
<stop offset="1" stop-color="#E0DEDE"/>
</linearGradient>
<linearGradient id="paint4_linear_601_148" x1="129.405" y1="179.719" x2="129.405" y2="174.343" gradientUnits="userSpaceOnUse">
<stop stop-color="#374891"/>
<stop offset="1" stop-color="#223A77"/>
</linearGradient>
<linearGradient id="paint5_linear_601_148" x1="87.5507" y1="138.035" x2="40.3841" y2="138.035" gradientUnits="userSpaceOnUse">
<stop stop-color="#FDB39A"/>
<stop offset="1" stop-color="#E99274"/>
</linearGradient>
<linearGradient id="paint6_linear_601_148" x1="56.9241" y1="133.329" x2="61.0173" y2="161.757" gradientUnits="userSpaceOnUse">
<stop stop-color="#BC3756"/>
<stop offset="1" stop-color="#B72440"/>
</linearGradient>
<linearGradient id="paint7_linear_601_148" x1="43.1649" y1="129.525" x2="29.0967" y2="143.593" gradientUnits="userSpaceOnUse">
<stop stop-color="#BFE8F7"/>
<stop offset="1" stop-color="#93C6E5"/>
</linearGradient>
<linearGradient id="paint8_linear_601_148" x1="154.91" y1="132.27" x2="167.95" y2="155.869" gradientUnits="userSpaceOnUse">
<stop stop-color="white"/>
<stop offset="1" stop-color="#EDE8E9"/>
</linearGradient>
<linearGradient id="paint9_linear_601_148" x1="92.7303" y1="39.4304" x2="92.7303" y2="12.9399" gradientUnits="userSpaceOnUse">
<stop stop-color="#3A3C44"/>
<stop offset="1" stop-color="#3A3C44"/>
</linearGradient>
<linearGradient id="paint10_linear_601_148" x1="210.397" y1="81.31" x2="212.58" y2="96.469" gradientUnits="userSpaceOnUse">
<stop stop-color="#374891"/>
<stop offset="1" stop-color="#223A77"/>
</linearGradient>
<linearGradient id="paint11_linear_601_148" x1="238.375" y1="90.8255" x2="228.226" y2="113.485" gradientUnits="userSpaceOnUse">
<stop stop-color="#BFE8F7"/>
<stop offset="1" stop-color="#93C6E5"/>
</linearGradient>
<linearGradient id="paint12_linear_601_148" x1="199.985" y1="92.0923" x2="203.841" y2="118.875" gradientUnits="userSpaceOnUse">
<stop stop-color="#F48494"/>
<stop offset="1" stop-color="#EF627E"/>
</linearGradient>
</defs>
</svg>
