<svg width="32" height="30" viewBox="0 0 32 30" fill="none" xmlns="http://www.w3.org/2000/svg">
<path d="M15.658 0C7.0097 0 0.00500488 6.8873 0.00500488 15.381C0.00500488 22.1783 4.48957 27.9425 10.7077 29.9734C11.4904 30.1182 11.778 29.6428 11.778 29.2338C11.778 28.8679 11.7643 27.9014 11.7584 26.6198C7.40494 27.5472 6.48532 24.5556 6.48532 24.5556C5.77312 22.7809 4.74393 22.3054 4.74393 22.3054C3.32539 21.3526 4.8535 21.3702 4.8535 21.3702C6.42467 21.4778 7.25036 22.955 7.25036 22.955C8.64543 25.3069 10.9151 24.628 11.8093 24.2347C11.9502 23.2407 12.3532 22.5618 12.8013 22.1783C9.32438 21.7928 5.67137 20.4701 5.67137 14.5768C5.67137 12.898 6.27792 11.5264 7.28167 10.4503C7.10557 10.0629 6.57728 8.49759 7.41863 6.37858C7.41863 6.37858 8.72957 5.96573 11.7232 7.95561C12.9754 7.6132 14.3059 7.44493 15.6364 7.43711C16.9669 7.44493 18.2974 7.6132 19.5497 7.95561C22.5237 5.96573 23.8347 6.37858 23.8347 6.37858C24.676 8.49759 24.1477 10.0609 23.9912 10.4503C24.9891 11.5264 25.5956 12.898 25.5956 14.5768C25.5956 20.4858 21.9367 21.7869 18.454 22.1646C19.0018 22.6263 19.5105 23.5694 19.5105 25.0095C19.5105 27.0679 19.491 28.7212 19.491 29.2221C19.491 29.6252 19.7649 30.1065 20.5671 29.9519C26.8302 27.9366 31.3109 22.1685 31.3109 15.3829C31.3109 6.8873 24.3023 0 15.658 0V0Z" fill="#5B5C63"/>
</svg>
