<svg width="93" height="25" viewBox="0 0 93 25" fill="none" xmlns="http://www.w3.org/2000/svg">
<path d="M18.2523 10.7003H10.484C10.3877 10.7003 10.2954 10.7386 10.2273 10.8067C10.1592 10.8749 10.121 10.9672 10.121 11.0635V14.8614C10.121 15.062 10.2836 15.2248 10.484 15.2248H13.5144V19.9438C13.5144 19.9438 12.834 20.1756 10.9528 20.1756C8.73331 20.1756 5.63302 19.3648 5.63302 12.5471C5.63302 5.72782 8.86151 4.83061 11.8923 4.83061C14.516 4.83061 15.6463 5.29259 16.3655 5.51511C16.5914 5.58402 16.8005 5.35919 16.8005 5.15881L17.6671 1.48912C17.6671 1.39519 17.6353 1.28219 17.5285 1.20558C17.2365 0.997113 15.4546 0 10.9528 0C5.767 0 0.447266 2.20655 0.447266 12.8129C0.447266 23.4194 6.53774 25 11.6702 25C15.9196 25 18.4975 23.184 18.4975 23.184C18.6038 23.1255 18.6153 22.9769 18.6153 22.909V11.0635C18.6153 11.0158 18.606 10.9686 18.5877 10.9245C18.5695 10.8805 18.5428 10.8404 18.509 10.8067C18.4753 10.773 18.4353 10.7462 18.3912 10.7279C18.3472 10.7097 18.3 10.7003 18.2523 10.7003V10.7003ZM58.2865 1.27084C58.287 1.22315 58.278 1.17585 58.2601 1.13166C58.2422 1.08746 58.2157 1.04724 58.1822 1.0133C58.1487 0.979371 58.1088 0.952393 58.0648 0.933923C58.0209 0.915453 57.9737 0.905854 57.926 0.905679H53.552C53.5042 0.90588 53.457 0.915486 53.4129 0.933946C53.3689 0.952406 53.3289 0.97936 53.2953 1.01327C53.2617 1.04718 53.2351 1.08737 53.217 1.13157C53.1989 1.17576 53.1897 1.22309 53.1899 1.27084L53.1909 9.72397H46.3732V1.27084C46.3732 1.06872 46.2122 0.905679 46.012 0.905679H41.6382C41.5419 0.906289 41.4498 0.945086 41.3821 1.01355C41.3144 1.08201 41.2766 1.17455 41.2771 1.27084V24.159C41.2771 24.3607 41.4394 24.5251 41.6382 24.5251H46.012C46.2122 24.5251 46.3732 24.3607 46.3732 24.159V14.3688H53.1909L53.1791 24.159C53.1791 24.3607 53.341 24.5251 53.5416 24.5251H57.9256C58.1258 24.5251 58.286 24.3607 58.2863 24.159L58.2865 1.27084ZM26.5062 4.2743C26.5062 2.69952 25.2434 1.42676 23.6856 1.42676C22.1293 1.42676 20.8656 2.69952 20.8656 4.2743C20.8656 5.84774 22.1293 7.12397 23.6856 7.12397C25.2434 7.12397 26.5062 5.84774 26.5062 4.2743ZM26.1934 19.3309V8.76554C26.1934 8.56516 26.0317 8.40116 25.8315 8.40116H21.4715C21.2713 8.40116 21.0923 8.60712 21.0923 8.80789V23.9448C21.0923 24.3894 21.3695 24.5218 21.7283 24.5218H25.6567C26.0877 24.5218 26.1934 24.3101 26.1934 23.9376V19.3309ZM74.9096 8.43542H70.5693C70.3701 8.43542 70.2082 8.59942 70.2082 8.80154V20.0241C70.2082 20.0241 69.1052 20.831 67.5402 20.831C65.9753 20.831 65.5599 20.1207 65.5599 18.5885V8.80135C65.5599 8.59923 65.3982 8.43523 65.199 8.43523H60.7938C60.5951 8.43523 60.4321 8.59923 60.4321 8.80135V19.3292C60.4321 23.8808 62.9689 24.9946 66.4586 24.9946C69.322 24.9946 71.6303 23.4127 71.6303 23.4127C71.6303 23.4127 71.74 24.2464 71.7901 24.3451C71.8396 24.4437 71.9691 24.5434 72.1092 24.5434L74.9117 24.5311C75.1104 24.5311 75.2733 24.3667 75.2733 24.1655L75.2717 8.80135C75.2717 8.59923 75.1096 8.43523 74.9096 8.43523V8.43542ZM85.0609 20.8171C83.5553 20.7711 82.5341 20.0882 82.5341 20.0882V12.8398C82.5341 12.8398 83.5414 12.2223 84.7776 12.112C86.3406 11.9721 87.8467 12.4441 87.8467 16.1729C87.8467 20.1045 87.1672 20.8807 85.0609 20.8171V20.8171ZM86.7728 7.92127C84.3075 7.92127 82.6309 9.02137 82.6309 9.02137V1.27084C82.6309 1.06872 82.4692 0.905679 82.27 0.905679H77.8835C77.8358 0.905931 77.7886 0.915576 77.7446 0.934063C77.7006 0.952551 77.6607 0.979519 77.6272 1.01343C77.5936 1.04734 77.5671 1.08752 77.5491 1.13169C77.531 1.17585 77.5219 1.22314 77.5221 1.27084V24.159C77.5221 24.3611 77.684 24.5253 77.884 24.5253H80.9273C81.0644 24.5253 81.1681 24.4545 81.245 24.3307C81.3206 24.2077 81.4298 23.2756 81.4298 23.2756C81.4298 23.2756 83.2232 24.9752 86.6186 24.9752C90.6051 24.9752 92.891 22.9532 92.891 15.8982C92.891 8.84331 89.2398 7.92127 86.7728 7.92127V7.92127ZM38.7645 8.39904H35.4835L35.4784 4.06429C35.4784 3.90029 35.3941 3.81829 35.2041 3.81829H30.7331C30.5595 3.81829 30.4659 3.8949 30.4659 4.06198V8.54129C30.4659 8.54129 28.2253 9.082 28.074 9.12589C27.9984 9.14776 27.932 9.1936 27.8847 9.25651C27.8374 9.31942 27.8118 9.39599 27.8118 9.47469V12.2895C27.8118 12.4916 27.9735 12.6552 28.1735 12.6552H30.4661V19.4268C30.4661 24.4562 33.9939 24.9503 36.3745 24.9503C37.4625 24.9503 38.7637 24.601 38.9785 24.5217C39.1085 24.4739 39.1841 24.3396 39.1841 24.1936L39.1878 21.0972C39.1878 20.8951 39.017 20.7315 38.8251 20.7315C38.6338 20.7315 38.1447 20.8094 37.6411 20.8094C36.0296 20.8094 35.4833 20.0603 35.4833 19.0905V12.6551H38.7645C38.8123 12.6548 38.8596 12.6452 38.9036 12.6267C38.9477 12.6082 38.9877 12.5812 39.0213 12.5472C39.0549 12.5132 39.0815 12.473 39.0996 12.4287C39.1177 12.3845 39.1268 12.3371 39.1266 12.2893V8.76381C39.1266 8.56169 38.9645 8.39904 38.7645 8.39904" fill="#5B5C63"/>
</svg>
