<svg width="31" height="30" viewBox="0 0 31 30" fill="none" xmlns="http://www.w3.org/2000/svg">
<path d="M0.499878 9.97119H6.71926V30H0.499878V9.97119Z" fill="#5B5C63"/>
<path d="M3.60676 0C1.61926 0 0.00488281 1.61438 0.00488281 3.60188C0.00488281 5.59125 1.61926 7.23751 3.60676 7.23751C5.59426 7.23751 7.20864 5.59125 7.20864 3.60188C7.20864 1.61438 5.59426 0 3.60676 0V0Z" fill="#5B5C63"/>
<path d="M29.9974 29.9999L30.0049 29.9981V18.9956C30.0049 13.6124 28.8462 9.4668 22.5537 9.4668C19.5293 9.4668 17.4987 11.1262 16.6699 12.7012H16.5837V9.9693H10.6174V29.9981H16.8312V20.0812C16.8312 17.4693 17.3262 14.9456 20.5606 14.9456C23.7462 14.9456 23.7949 17.9249 23.7949 20.2499V29.9999H29.9974Z" fill="#5B5C63"/>
</svg>
