<svg width="120" height="30" viewBox="0 0 120 30" fill="none" xmlns="http://www.w3.org/2000/svg">
<path fill-rule="evenodd" clip-rule="evenodd" d="M91.7411 30H116.8C118.164 30 119.271 28.8937 119.271 27.5294V2.4706C119.271 1.1066 118.164 0 116.8 0H91.7411C90.3771 0 89.2705 1.1063 89.2705 2.4706V27.5294C89.2705 28.8933 90.3768 30 91.7411 30ZM100.741 11.4709H104.933V13.5805C105.495 12.4539 107.131 11.2502 109.296 11.2502C113.444 11.2502 114.859 13.1252 114.859 17.5785V25.5884H110.447V18.5155C110.447 16.1718 109.989 14.8898 108.279 14.8898C105.966 14.8898 105.154 16.6475 105.154 18.5155V25.5884H100.742V11.4709H100.741ZM93.6824 25.5884H98.0941V11.4709H93.6824V25.5884ZM98.5794 6.6179C98.5794 8.1039 97.3741 9.3092 95.8881 9.3092C94.4021 9.3092 93.1968 8.104 93.1968 6.618C93.1968 5.1314 94.4021 3.9267 95.8881 3.9267C97.3741 3.9267 98.5794 5.1309 98.5794 6.6179ZM84.8588 25.5884H81.0382V24.0001H80.9766C80.5029 24.7334 78.8872 25.8087 76.9179 25.8087C72.102 25.8087 69.8593 22.7867 69.8593 18.5294C69.8593 14.3012 72.2197 11.2502 76.4769 11.2502C78.5432 11.2502 79.7309 12.0222 80.4476 13.0588V4.4119H84.8592V25.588L84.8588 25.5884ZM77.3139 14.6472C75.2906 14.6472 74.0943 16.3138 74.0943 18.6388C74.0943 20.9674 75.2906 22.4117 77.3139 22.4117C79.3716 22.4117 80.6236 20.9674 80.6236 18.6388C80.6236 16.3138 79.3442 14.6472 77.3139 14.6472ZM67.5967 23.2447C66.4681 24.6784 64.2561 25.8087 61.0354 25.8087C56.6618 25.8087 53.8665 22.8554 53.8665 18.3088C53.8665 14.4538 56.5965 11.2502 61.3504 11.2502C65.3801 11.2502 68.2044 14.0808 68.2044 18.6028C68.2044 19.4851 67.9917 20.2854 67.9917 20.2854H57.9065L57.9418 20.4901C58.2781 21.5904 59.3668 22.7207 61.2091 22.7207C62.8424 22.7207 64.2911 21.8931 64.9017 21.1458L67.5967 23.2447ZM64.3144 16.9835C64.1511 15.5295 62.8658 14.3382 61.2624 14.3382C59.3011 14.3382 58.0058 15.6045 57.8865 16.9835H64.3144ZM39.8594 4.4119H44.271V17.2341L49.1742 11.4705H54.5158L48.3423 18.2055L54.6165 25.588H49.5052L44.2713 19.0668V25.588H39.8597V4.412L39.8594 4.4119ZM23.0949 11.4709H26.9155V13.4492H26.9772C27.5718 12.3188 29.3921 11.2505 31.5654 11.2505C36.0911 11.2505 37.2124 13.8145 37.2124 17.6845V25.5884H32.8008V18.6258C32.8008 16.9591 32.7124 14.7965 30.4211 14.7965C28.0998 14.7965 27.5068 16.7501 27.5068 18.6258V25.5884H23.0952L23.0949 11.4709ZM18.2419 4.5223C19.5823 4.5223 20.7786 5.7196 20.7786 7.0589C20.7786 8.3982 19.5823 9.5956 18.2419 9.5956C16.9026 9.5956 15.7053 8.3982 15.7053 7.0589C15.7053 5.7196 16.9026 4.5223 18.2419 4.5223ZM16.036 25.5884H20.4476V11.4709H16.036V25.5884ZM0.153809 4.4119H4.56541V21.1764H13.389V25.588H0.153809V4.4119Z" fill="#5B5C63"/>
</svg>
