<svg width="101" height="30" viewBox="0 0 101 30" fill="none" xmlns="http://www.w3.org/2000/svg">
<path d="M15.4203 0C7.13669 0 0.420288 6.7158 0.420288 15C0.420288 23.2848 7.13639 30 15.4203 30C23.7057 30 30.4209 23.2848 30.4209 15C30.4209 6.7164 23.7057 0.0006 15.4203 0.0006V0ZM22.2996 21.6345C22.2356 21.7394 22.1515 21.8306 22.0522 21.903C21.9529 21.9753 21.8403 22.0274 21.7208 22.0562C21.6014 22.085 21.4774 22.0899 21.356 22.0707C21.2346 22.0516 21.1182 22.0086 21.0135 21.9444C17.4915 19.7931 13.0578 19.3059 7.83659 20.4987C7.59724 20.5474 7.34835 20.5005 7.1431 20.3681C6.93786 20.2357 6.79253 20.0283 6.73819 19.7902C6.68386 19.5521 6.72481 19.3021 6.8523 19.0938C6.9798 18.8855 7.18372 18.7353 7.42049 18.6753C13.1343 17.37 18.0357 17.9319 21.9897 20.3484C22.0945 20.4124 22.1858 20.4965 22.2581 20.5958C22.3304 20.6952 22.3825 20.8078 22.4113 20.9272C22.44 21.0467 22.445 21.1706 22.4258 21.292C22.4067 21.4133 22.3638 21.5297 22.2996 21.6345V21.6345ZM24.1356 17.55C24.0553 17.681 23.95 17.7948 23.8257 17.8851C23.7014 17.9753 23.5605 18.0402 23.4112 18.076C23.2618 18.1118 23.1068 18.1178 22.9551 18.0937C22.8034 18.0696 22.6579 18.0158 22.527 17.9355C18.495 15.4572 12.3489 14.7396 7.57979 16.1871C7.28293 16.277 6.96256 16.2454 6.68894 16.0993C6.41533 15.9533 6.21082 15.7047 6.12029 15.408C6.03074 15.1111 6.06257 14.7909 6.20879 14.5175C6.355 14.244 6.60368 14.0398 6.90029 13.9494C12.3477 12.2964 19.1202 13.0971 23.7504 15.9426C24.0146 16.1047 24.2037 16.3652 24.2759 16.6667C24.3481 16.9682 24.2977 17.286 24.1356 17.5503V17.55ZM24.2931 13.2969C19.4586 10.4256 11.4825 10.1613 6.86669 11.5623C6.69039 11.6158 6.50528 11.634 6.32193 11.616C6.13859 11.5979 5.9606 11.5439 5.79812 11.4571C5.63564 11.3702 5.49185 11.2522 5.37498 11.1098C5.2581 10.9674 5.17042 10.8034 5.11694 10.6271C5.06346 10.4508 5.04522 10.2656 5.06328 10.0823C5.08134 9.89895 5.13533 9.72096 5.22218 9.55848C5.30902 9.396 5.42702 9.25222 5.56944 9.13534C5.71185 9.01846 5.87589 8.93078 6.05219 8.8773C11.3508 7.2687 20.1591 7.5795 25.7253 10.8837C25.8839 10.9776 26.0225 11.1018 26.133 11.2493C26.2435 11.3968 26.3239 11.5647 26.3695 11.7433C26.415 11.9219 26.4249 12.1077 26.3985 12.2902C26.3722 12.4726 26.3101 12.648 26.2158 12.8064C26.1219 12.9649 25.9976 13.1032 25.8502 13.2137C25.7028 13.3241 25.535 13.4043 25.3565 13.4499C25.1781 13.4955 24.9924 13.5054 24.81 13.4791C24.6277 13.4529 24.4524 13.391 24.294 13.2969H24.2931ZM41.2311 13.8471C38.6409 13.2297 38.1807 12.7962 38.1807 11.8851C38.1807 11.0247 38.9901 10.4457 40.1958 10.4457C41.3637 10.4457 42.5208 10.8855 43.7352 11.7906C43.7532 11.8041 43.7737 11.8138 43.7956 11.8192C43.8175 11.8246 43.8402 11.8255 43.8624 11.8218C43.8849 11.8185 43.9065 11.8107 43.9258 11.7988C43.9452 11.787 43.962 11.7713 43.9752 11.7528L45.2397 9.9702C45.265 9.93493 45.2758 9.89128 45.2698 9.84829C45.2638 9.80529 45.2415 9.76624 45.2076 9.7392C43.7622 8.58 42.1356 8.0163 40.2333 8.0163C37.4373 8.0163 35.4831 9.6945 35.4831 12.0957C35.4831 14.6706 37.1685 15.5823 40.0812 16.2861C42.5583 16.857 42.9774 17.3352 42.9774 18.1899C42.9774 19.1373 42.132 19.7268 40.7706 19.7268C39.2589 19.7268 38.0247 19.2162 36.6456 18.0234C36.6112 17.9942 36.567 17.9794 36.522 17.982C36.4996 17.9836 36.4778 17.9896 36.4578 17.9998C36.4378 18.0099 36.4201 18.024 36.4056 18.0411L34.9869 19.7286C34.9585 19.7624 34.9443 19.806 34.9473 19.8501C34.9503 19.8942 34.9703 19.9354 35.0031 19.965C36.6078 21.3981 38.5818 22.1538 40.7133 22.1538C43.7262 22.1538 45.6732 20.5077 45.6732 17.9589C45.6786 15.8079 44.3907 14.6169 41.2365 13.8495L41.2311 13.8471V13.8471ZM52.4907 11.2929C51.1848 11.2929 50.1138 11.8074 49.2288 12.8616V11.6751C49.2289 11.6529 49.2247 11.6308 49.2163 11.6102C49.208 11.5896 49.1956 11.5709 49.18 11.5551C49.1643 11.5393 49.1457 11.5267 49.1252 11.5181C49.1047 11.5095 49.0827 11.5051 49.0605 11.505H46.7409C46.7187 11.5051 46.6967 11.5095 46.6762 11.5181C46.6557 11.5267 46.6371 11.5393 46.6214 11.5551C46.6058 11.5709 46.5934 11.5896 46.585 11.6102C46.5767 11.6308 46.5724 11.6529 46.5726 11.6751V24.8586C46.5726 24.9516 46.6476 25.0287 46.7409 25.0287H49.0605C49.1053 25.0284 49.1482 25.0103 49.1798 24.9784C49.2113 24.9465 49.2289 24.9035 49.2288 24.8586V20.6976C50.1138 21.6882 51.1848 22.1736 52.4907 22.1736C54.9177 22.1736 57.3753 20.3052 57.3753 16.7337C57.3789 13.1616 54.9213 11.2929 52.4925 11.2929H52.4907ZM54.6777 16.7337C54.6777 18.5517 53.5584 19.8216 51.9534 19.8216C50.3682 19.8216 49.1715 18.4944 49.1715 16.7337C49.1715 14.973 50.3682 13.6461 51.9534 13.6461C53.5314 13.6461 54.6777 14.9442 54.6777 16.7337V16.7337ZM63.6717 11.2929C60.546 11.2929 58.0974 13.6998 58.0974 16.7727C58.0974 19.8129 60.5298 22.1934 63.6339 22.1934C66.7704 22.1934 69.2262 19.7949 69.2262 16.7337C69.2262 13.6833 66.7866 11.2932 63.6717 11.2932V11.2929ZM63.6717 19.8399C62.0094 19.8399 60.7554 18.5034 60.7554 16.7328C60.7554 14.9544 61.9662 13.6638 63.6339 13.6638C65.307 13.6638 66.5679 14.9997 66.5679 16.7718C66.5679 18.5499 65.3499 19.8396 63.6717 19.8396V19.8399ZM75.9003 11.505H73.3479V8.8959C73.3479 8.85099 73.3302 8.80789 73.2987 8.7759C73.267 8.74417 73.2241 8.72626 73.1793 8.7261H70.8597C70.8147 8.72634 70.7716 8.74429 70.7398 8.77608C70.7079 8.80786 70.6899 8.85091 70.6896 8.8959V11.505H69.5754C69.5532 11.5051 69.5312 11.5096 69.5107 11.5182C69.4902 11.5268 69.4716 11.5394 69.456 11.5552C69.4404 11.571 69.428 11.5897 69.4196 11.6103C69.4112 11.6309 69.407 11.6529 69.4071 11.6751V13.668C69.4071 13.7616 69.4824 13.8381 69.5754 13.8381H70.6896V18.996C70.6896 21.0792 71.7267 22.1361 73.7742 22.1361C74.6052 22.1361 75.2949 21.9639 75.945 21.5949C75.9713 21.5805 75.9932 21.5592 76.0083 21.5333C76.0235 21.5074 76.0314 21.4779 76.0311 21.4479V19.5495C76.0309 19.5207 76.0235 19.4924 76.0093 19.4673C75.9952 19.4422 75.9749 19.4212 75.9504 19.4061C75.926 19.3905 75.8979 19.3816 75.869 19.3803C75.8401 19.3791 75.8113 19.3855 75.7857 19.3989C75.3396 19.623 74.9079 19.7268 74.4243 19.7268C73.6809 19.7268 73.3479 19.3881 73.3479 18.6324V13.839H75.9003C75.9933 13.839 76.0686 13.7628 76.0686 13.6689V11.676C76.0695 11.6538 76.0658 11.6316 76.0578 11.6108C76.0497 11.5901 76.0375 11.5712 76.0218 11.5554C76.0062 11.5395 75.9876 11.527 75.967 11.5185C75.9464 11.51 75.9243 11.5059 75.9021 11.5062L75.9003 11.505ZM84.792 11.5152V11.1948C84.792 10.2522 85.1538 9.8316 85.9635 9.8316C86.4471 9.8316 86.8356 9.9276 87.2709 10.0728C87.3093 10.0858 87.3511 10.0844 87.3886 10.069C87.4261 10.0535 87.4567 10.0251 87.4749 9.9888C87.4871 9.96473 87.4934 9.93809 87.4932 9.9111V7.9569C87.4935 7.92043 87.4819 7.88486 87.4603 7.85549C87.4386 7.82613 87.4081 7.80456 87.3732 7.794C86.9145 7.6575 86.3271 7.5174 85.4457 7.5174C83.3052 7.5174 82.1712 8.7234 82.1712 11.0043V11.4951H81.0573C81.0122 11.4953 80.9691 11.5132 80.9372 11.545C80.9053 11.5768 80.8872 11.6199 80.8869 11.6649V13.668C80.8871 13.7131 80.9052 13.7563 80.9371 13.7881C80.969 13.82 81.0122 13.8379 81.0573 13.8381H82.1712V21.792C82.1712 21.8871 82.2483 21.9621 82.3416 21.9621H84.6594C84.7542 21.9621 84.8295 21.8871 84.8295 21.792V13.839H86.9952L90.3126 21.7923C89.9364 22.6272 89.5656 22.7937 89.0604 22.7937C88.6521 22.7937 88.2204 22.6719 87.7815 22.4301C87.7399 22.4091 87.6919 22.4046 87.6471 22.4175C87.625 22.4249 87.6046 22.4368 87.5874 22.4526C87.5701 22.4683 87.5563 22.4874 87.5469 22.5087L86.7606 24.2337C86.7423 24.2729 86.7397 24.3175 86.7534 24.3585C86.767 24.3995 86.7957 24.4337 86.8338 24.4542C87.6543 24.8982 88.3941 25.0881 89.3094 25.0881C91.0218 25.0881 91.9695 24.2892 92.8023 22.1433L96.8253 11.7477C96.8359 11.722 96.8398 11.6941 96.8367 11.6665C96.8337 11.6389 96.8236 11.6126 96.8076 11.5899C96.7923 11.5673 96.7717 11.5488 96.7477 11.536C96.7237 11.5231 96.6968 11.5163 96.6696 11.5161H94.2549C94.2195 11.5159 94.1849 11.5268 94.156 11.5472C94.1271 11.5677 94.1054 11.5967 94.0938 11.6301L91.62 18.6936L88.9116 11.6256C88.8996 11.5935 88.8782 11.5657 88.85 11.5462C88.8218 11.5266 88.7884 11.5161 88.7541 11.5161H84.792V11.5155V11.5152ZM79.6368 11.505H77.3172C77.2721 11.5052 77.2289 11.5231 77.197 11.555C77.1651 11.5868 77.147 11.63 77.1468 11.6751V21.792C77.1468 21.8871 77.2239 21.9621 77.3172 21.9621H79.6368C79.7298 21.9621 79.8069 21.8871 79.8069 21.792V11.676C79.8071 11.6536 79.8028 11.6314 79.7942 11.6107C79.7856 11.5899 79.773 11.5712 79.7571 11.5554C79.7414 11.5395 79.7226 11.527 79.7019 11.5185C79.6813 11.51 79.6591 11.5057 79.6368 11.5059V11.505ZM78.4905 6.8982C78.0494 6.8982 77.6263 7.07343 77.3144 7.38534C77.0025 7.69725 76.8273 8.12029 76.8273 8.5614C76.8273 9.00251 77.0025 9.42555 77.3144 9.73746C77.6263 10.0494 78.0494 10.2246 78.4905 10.2246C78.7089 10.2246 78.9252 10.1815 79.127 10.0979C79.3288 10.0142 79.5121 9.89162 79.6664 9.73707C79.8208 9.58252 79.9432 9.39905 80.0266 9.19716C80.11 8.99528 80.1528 8.77893 80.1525 8.5605C80.1524 8.11971 79.9773 7.69699 79.6656 7.38527C79.354 7.07355 78.9313 6.89836 78.4905 6.8982V6.8982ZM98.8065 14.7582C98.592 14.759 98.3794 14.7173 98.1811 14.6355C97.9828 14.5537 97.8026 14.4336 97.6509 14.2819C97.4992 14.1302 97.3791 13.9499 97.2974 13.7516C97.2157 13.5533 97.174 13.3407 97.1748 13.1262C97.1748 12.231 97.8984 11.4852 98.8155 11.4852C99.03 11.4844 99.2425 11.526 99.4408 11.6077C99.6391 11.6894 99.8193 11.8095 99.971 11.9612C100.123 12.1128 100.243 12.293 100.325 12.4913C100.406 12.6896 100.448 12.9021 100.447 13.1166C100.447 14.0118 99.7236 14.7582 98.8065 14.7582V14.7582ZM98.8155 11.6475C97.9788 11.6475 97.3467 12.3123 97.3467 13.1259C97.3467 13.9392 97.9752 14.595 98.8065 14.595C99.6429 14.595 100.275 13.9308 100.275 13.1166C100.275 12.3033 99.6465 11.6475 98.8155 11.6475ZM99.1773 13.2843L99.6393 13.9308H99.249L98.8332 13.3377H98.4768V13.9308H98.151V12.2178H98.9139C99.3135 12.2178 99.5748 12.4212 99.5748 12.7641C99.5766 13.0449 99.4137 13.2165 99.1791 13.2846H99.1773V13.2843ZM98.9013 12.5115H98.4768V13.0533H98.9013C99.1128 13.0533 99.24 12.9498 99.24 12.7821C99.24 12.606 99.1128 12.5115 98.9013 12.5115V12.5115Z" fill="#5B5C63"/>
</svg>
