<svg width="26" height="25" viewBox="0 0 113 108" fill="none" xmlns="http://www.w3.org/2000/svg">
<g filter="url(#filter0_d_433_7)">
<path d="M56.6599 84.2345L56.4272 84.1122L56.1945 84.2345L27.864 99.1287C26.775 99.7009 25.4558 99.6057 24.4609 98.8827L24.4608 98.8826C23.4657 98.1599 22.9674 96.9347 23.1753 95.7218L28.5857 64.1751L28.6302 63.916L28.4419 63.7325L5.52201 41.3911C4.64129 40.5326 4.32437 39.2483 4.70436 38.0789L4.70437 38.0788C5.08435 36.9092 6.09562 36.0566 7.31304 35.8795L38.9878 31.2771L39.2479 31.2393L39.3643 31.0036L53.5296 2.30128L53.5296 2.3012C54.0737 1.19825 55.1972 0.5 56.4272 0.5C57.6569 0.5 58.7806 1.19828 59.3244 2.30112L59.3245 2.30128L73.4898 31.0036L73.6061 31.2393L73.8663 31.2771L105.541 35.8795C105.541 35.8795 105.541 35.8795 105.541 35.8795C106.758 36.0566 107.769 36.9089 108.149 38.0789L108.149 38.079C108.53 39.2483 108.213 40.5326 107.332 41.391L107.332 41.3911L84.4115 63.7328L84.2233 63.9163L84.2677 64.1754L89.6785 95.7222C89.8863 96.9343 89.3878 98.1602 88.3929 98.8829L88.3929 98.883C87.8302 99.2919 87.1639 99.5 86.4934 99.5C85.9797 99.5 85.4636 99.3773 84.9905 99.1288C84.9905 99.1288 84.9904 99.1287 84.9904 99.1287L56.6599 84.2345ZM15.7241 41.1884L14.7215 41.334L15.447 42.0412L34.3579 60.4746L34.358 60.4746C35.1195 61.2168 35.4671 62.2867 35.287 63.3342L35.287 63.3344L30.8228 89.363L30.6516 90.3615L31.5483 89.8901L54.9231 77.6006C54.9231 77.6006 54.9231 77.6006 54.9231 77.6005C55.8647 77.1058 56.9892 77.1058 57.9307 77.6006L81.3055 89.8895L82.2022 90.3609L82.031 89.3624L77.5665 63.3344C77.3868 62.2858 77.7343 61.2167 78.4958 60.4746L78.1468 60.1165L78.4958 60.4746L97.4071 42.0412L98.1326 41.334L97.13 41.1884L70.9961 37.3908C69.9436 37.2377 69.0337 36.5769 68.563 35.6231L56.8759 11.9414L56.4275 11.0328L55.9791 11.9414L44.2917 35.6231L44.2917 35.6231C43.8212 36.5766 42.9111 37.2377 41.8586 37.3908L15.7241 41.1884Z" fill="#26C6DA" stroke="black"/>
</g>
<defs>
<filter id="filter0_d_433_7" x="0.0461426" y="0" width="112.762" height="108" filterUnits="userSpaceOnUse" color-interpolation-filters="sRGB">
<feFlood flood-opacity="0" result="BackgroundImageFix"/>
<feColorMatrix in="SourceAlpha" type="matrix" values="0 0 0 0 0 0 0 0 0 0 0 0 0 0 0 0 0 0 127 0" result="hardAlpha"/>
<feOffset dy="4"/>
<feGaussianBlur stdDeviation="2"/>
<feComposite in2="hardAlpha" operator="out"/>
<feColorMatrix type="matrix" values="0 0 0 0 0 0 0 0 0 0 0 0 0 0 0 0 0 0 0.25 0"/>
<feBlend mode="normal" in2="BackgroundImageFix" result="effect1_dropShadow_433_7"/>
<feBlend mode="normal" in="SourceGraphic" in2="effect1_dropShadow_433_7" result="shape"/>
</filter>
</defs>
</svg>
