<svg width="124" height="25" viewBox="0 0 124 25" fill="none" xmlns="http://www.w3.org/2000/svg">
<path d="M33.1414 22.8098C32.2117 23.6178 31.1977 24.2266 30.0418 24.5823C24.7444 26.21 19.2903 22.2683 19.2001 16.7265C19.1661 14.6616 19.1788 12.5953 19.1991 10.5302C19.2183 8.5585 20.8353 7.289 22.7273 7.72883C23.9173 8.0055 24.8013 9.11216 24.8149 10.366C24.8373 12.415 24.8448 14.4642 24.8671 16.5131C24.8843 18.1135 26.2226 19.3306 27.8199 19.2116C29.1633 19.1113 30.2934 17.9026 30.3108 16.4923C30.3354 14.5188 30.3162 12.5452 30.3329 10.5717C30.3512 8.38116 32.4792 6.98817 34.4042 7.91466C35.4929 8.4385 35.9857 9.37716 36.0004 10.5503C36.0252 12.4778 35.9959 14.4058 36.0111 16.3338C36.0247 18.1028 37.3636 19.3586 39.0409 19.2071C40.4684 19.078 41.4891 17.8485 41.4992 16.2138C41.5104 14.3628 41.4952 12.5113 41.5044 10.6598C41.5104 9.43133 41.9816 8.4445 43.1284 7.903C44.9282 7.0525 47.0219 8.2505 47.1051 10.2535C47.1957 12.4373 47.1389 14.6277 47.1227 16.8146C47.1192 17.3003 47.0522 17.7923 46.9551 18.269C46.2422 21.7608 43.3944 24.3995 39.8549 24.908C37.4812 25.249 35.4214 24.5438 33.5567 23.1218C33.4251 23.0221 33.2924 22.9233 33.1414 22.8098ZM6.28513 8.08033H6.89963C9.48512 8.08033 12.0706 8.07866 14.6563 8.08083C16.2401 8.08183 17.4584 9.20649 17.5451 10.7425C17.6333 12.298 16.5234 13.565 14.9241 13.7113C14.4991 13.7503 14.0691 13.7413 13.641 13.7418C11.3766 13.7443 9.11229 13.7428 6.8478 13.7428H6.17963C6.2973 14.8618 6.31696 15.9371 6.54296 16.9671C6.78146 18.0546 7.88829 18.7906 9.16596 18.8155C11.169 18.8545 13.174 18.8313 15.1779 18.8388C16.7538 18.845 17.9646 19.9228 18.1768 21.5003C18.3829 23.0296 17.4281 24.4541 15.9306 24.8356C15.6956 24.8953 15.4479 24.934 15.2063 24.9318C12.9278 24.9136 10.6461 24.9536 8.37213 24.8426C5.31397 24.6928 3.1048 23.0626 1.51631 20.5395C0.670308 19.196 0.263476 17.7111 0.270976 16.1023C0.292142 11.8953 0.277976 7.68766 0.277976 3.48067C0.277976 2.06634 1.46997 0.779677 2.89447 0.656011C4.83613 0.487344 6.2768 1.80101 6.28396 3.75217C6.28846 5.0055 6.28496 6.25883 6.28496 7.512L6.28513 8.08033ZM94.5543 17.9356C94.5183 18.6625 94.8516 19.076 95.4115 19.3768C96.42 19.9188 97.5136 19.9751 98.6175 19.9846C100.238 19.9988 101.859 19.9988 103.479 20.0201C104.524 20.0338 105.442 20.6863 105.778 21.622C106.118 22.5656 105.853 23.6675 105.124 24.3143C104.632 24.7515 104.038 24.9395 103.395 24.9395C101.101 24.94 98.8045 24.9961 96.5143 24.899C92.066 24.7095 88.4446 20.9588 88.32 16.5096C88.2743 14.883 88.4831 13.301 89.2708 11.8487C90.3458 9.86699 91.9653 8.53983 94.1648 8.00433C96.5451 7.42483 98.9401 7.41416 101.249 8.289C104.148 9.38633 106.023 11.4217 106.48 14.5695C106.569 15.1748 106.507 15.8258 106.388 16.4316C106.217 17.3105 105.441 17.845 104.413 17.9153C104.139 17.9341 103.863 17.9346 103.588 17.9346C100.744 17.9361 97.9003 17.9356 95.0563 17.9356H94.5543ZM100.465 13.9662C100.5 13.3822 100.233 12.9642 99.7766 12.7017C98.3089 11.8588 96.8201 11.8538 95.3461 12.6927C94.8685 12.9647 94.6216 13.3922 94.6191 13.966L100.465 13.9662ZM63.3684 8.08033H65.159C66.2604 8.08033 67.3617 8.07783 68.4628 8.08083C70.127 8.08533 71.3463 9.25949 71.359 10.8653C71.3717 12.4997 70.1645 13.723 68.4933 13.7392C66.9027 13.7548 65.3115 13.7427 63.7209 13.7437C63.647 13.7437 63.5725 13.752 63.4429 13.7595C63.4084 14.7913 63.2594 15.8105 63.5279 16.815C63.8314 17.9523 64.9052 18.7618 66.2047 18.817C67.1818 18.8586 68.162 18.8231 69.1407 18.8408C70.5423 18.8671 71.8032 19.9886 71.9947 21.36C72.2105 22.9096 71.4112 24.3463 70.0368 24.7433C69.4887 24.902 68.8935 24.9221 68.3165 24.9551C66.427 25.0646 64.54 25.0266 62.7812 24.2256C59.6197 22.786 57.8285 20.3115 57.4015 16.8616C57.3452 16.4088 57.331 15.9483 57.3305 15.4908C57.325 11.56 57.3189 7.629 57.333 3.6985C57.3372 2.51317 57.8184 1.54651 58.9004 0.989343C59.9575 0.445344 61.0295 0.483344 62.033 1.15051C62.883 1.71518 63.3095 2.54551 63.3359 3.55367C63.3704 4.8525 63.3597 6.15283 63.3684 7.45266C63.3694 7.635 63.3684 7.81733 63.3684 8.08033ZM79.0868 13.7427C79.0868 14.6262 79.0295 15.4386 79.0995 16.2406C79.2255 17.6935 80.3877 18.7476 81.9048 18.8165C82.8668 18.8601 83.8318 18.8246 84.7948 18.8403C86.3073 18.8651 87.6326 20.1073 87.7035 21.551C87.7911 23.3391 86.815 24.6968 85.2436 24.868C84.3191 24.9693 83.382 24.986 82.4508 24.9835C80.1197 24.9765 77.9723 24.3923 76.1897 22.8073C74.1 20.9486 73.02 18.624 73.0232 15.811C73.0267 11.7737 73.0175 7.73583 73.0277 3.6985C73.0307 2.50851 73.511 1.54651 74.5915 0.988343C75.6325 0.451344 76.6942 0.495844 77.6892 1.12968C78.6648 1.75068 79.0543 2.70001 79.0625 3.8225C79.071 5.07684 79.0822 6.33167 79.0543 7.58483C79.0452 8.00233 79.18 8.09483 79.5757 8.08933C81.1197 8.06716 82.6647 8.07766 84.2096 8.08083C85.7871 8.08433 87.0035 9.23783 87.0581 10.7758C87.1143 12.3502 86.0353 13.6192 84.4553 13.6942C82.8693 13.7702 81.2782 13.7315 79.6895 13.7427C79.5087 13.7443 79.3283 13.7427 79.0868 13.7427ZM113.781 19.281C113.78 20.2141 113.804 21.1473 113.775 22.0793C113.706 24.3518 111.427 25.678 109.54 24.5423C108.667 24.0175 108.197 23.2226 108.183 22.1913C108.17 21.2896 108.161 20.3863 108.184 19.4851C108.224 17.965 108.177 16.4311 108.368 14.9281C108.796 11.5598 111.66 8.66133 115.025 8.209C116.484 8.01233 117.982 8.0965 119.462 8.06066C119.828 8.05133 120.195 8.07733 120.561 8.07933C122.166 8.08883 123.409 9.29766 123.42 10.8638C123.432 12.4722 122.231 13.7118 120.602 13.7387C119.319 13.7595 118.035 13.7352 116.751 13.7453C115.231 13.757 114.16 14.4853 113.9 15.762C113.777 16.3673 113.804 17.0055 113.785 17.6296C113.768 18.1798 113.781 18.7305 113.781 19.281ZM49.232 16.2883C49.232 14.4525 49.2315 12.6172 49.232 10.7818C49.232 9.06449 50.497 7.6785 52.1012 7.637C53.8722 7.591 55.2425 8.85633 55.2592 10.675C55.2937 14.422 55.2892 18.1691 55.2607 21.9163C55.248 23.594 54.055 24.8088 52.4092 24.9385C50.93 25.0555 49.5319 23.9901 49.2919 22.478C49.1849 21.8053 49.2372 21.1056 49.234 20.4178C49.227 19.0415 49.232 17.6648 49.232 16.2883ZM52.2364 1.18742e-05C53.9319 0.00501186 55.2714 1.34001 55.2704 3.02267C55.2687 4.75167 53.9157 6.08283 52.1675 6.07583C50.5135 6.06817 49.2269 4.72784 49.2335 3.01817C49.24 1.27051 50.509 -0.00448812 52.2364 1.18742e-05Z" fill="#5B5C63"/>
</svg>
