<svg id="Layer_5" enable-background="new 0 0 64 64" height="512" viewBox="0 0 64 64" width="512" xmlns="http://www.w3.org/2000/svg" xmlns:xlink="http://www.w3.org/1999/xlink"><linearGradient id="SVGID_1_" gradientUnits="userSpaceOnUse" x1="32" x2="32" y1="63" y2="1"><stop offset="0" stop-color="#9f2fff"/><stop offset="1" stop-color="#0bb1d3"/></linearGradient><path d="m36 49h2v2h-2zm-2 8h2v-2h-2zm7-5h-2v2h2zm-1 8h2v-2h-2zm8-5h-2v2h2zm6 2h-2v2h2zm-24 3h2v-2h-2zm-20-48c0-3.86 3.14-7 7-7s7 3.14 7 7-3.14 7-7 7-7-3.14-7-7zm2 0c0 2.757 2.243 5 5 5s5-2.243 5-5-2.243-5-5-5-5 2.243-5 5zm0 22v-4c0-1.654 1.346-3 3-3h4c1.654 0 3 1.346 3 3v4c0 1.654-1.346 3-3 3h-4c-1.654 0-3-1.346-3-3zm2 0c0 .551.449 1 1 1h4c.551 0 1-.449 1-1v-4c0-.551-.449-1-1-1h-4c-.551 0-1 .449-1 1zm4-3h-2v2h2zm37-19h8v18h-11c-1.654 0-3-1.346-3-3v-5h-6v25.011c.595.594 1.098 1.289 1.447 2.088l1.007 2.302c.16.364.519.599.917.599h5.709c2.142 0 4.188 1.023 5.473 2.736l4.447 5.931v2.333h-34-1-9-2-10v-2c0-1.771.776-3.36 2-4.46v-13.54h-1c-3.309 0-6-2.691-6-6v-7c0-2.363.74-4.547 2-6.341v-10.659c0-2.269 1.553-4.225 3.694-4.808 1.554-4.192 5.581-7.192 10.306-7.192s8.752 3 10.306 7.192c2.141.583 3.694 2.539 3.694 4.808v6h6v-16c0-1.103.897-2 2-2h2c1.103 0 2 .897 2 2v1h9c1.654 0 3 1.346 3 3zm-16-9v42.06c.699.085 1.373.269 2 .553v-42.613zm-15 52.35v-5.732l-6 3v3.922c1.063-.954 2.462-1.54 4-1.54.702 0 1.373.128 2 .35zm0-9.732-6 3v1.764l6-3zm0-4.618h-6v5.382l6-3zm-8 0h-6v2.382l6 3zm-6 6.382 6 3v-1.764l-6-3zm16 4.618h3.67c.404 0 .766-.241.922-.613l.954-2.273c.952-2.27 3.047-3.796 5.454-4.059v-17.055h-6v11c0 2.206-1.794 4-4 4h-1zm1-11c1.103 0 2-.897 2-2v-11h-3v13zm10-20h-2v5h2zm-9.084-10.301c.051.428.084.86.084 1.301 0 2.657-.947 5.097-2.521 7h3.521v-6c0-.914-.421-1.746-1.084-2.301zm-19.916 1.301c0 4.962 4.038 9 9 9s9-4.038 9-9-4.038-9-9-9-9 4.038-9 9zm-3 1v8.502c1.133-.931 2.453-1.648 3.916-2.068-1.804-1.96-2.916-4.567-2.916-7.434 0-.441.033-.873.084-1.301-.663.555-1.084 1.387-1.084 2.301zm-2 17v5h5v-9h2v13h14v-13h9v-5h-9.695c-1.787 1.256-3.959 2-6.305 2-2.293 0-4.423-.707-6.188-1.912-4.477.586-7.812 4.35-7.812 8.912zm5 11v-4h-5c0 2.206 1.794 4 4 4zm2 14.35c.627-.223 1.298-.35 2-.35 1.538 0 2.937.586 4 1.54v-3.922l-6-3zm6 5.65c0-2.206-1.794-4-4-4s-4 1.794-4 4zm10 0c0-2.206-1.794-4-4-4s-4 1.794-4 4zm17.622-8.797-1.007-2.302c-.771-1.762-2.512-2.901-4.435-2.901h-.446c-1.902 0-3.607 1.133-4.342 2.887l-.954 2.274c-.471 1.117-1.557 1.839-2.768 1.839h-3.67v2.54c1.224 1.099 2 2.688 2 4.46h31.75l-3.797-5.063c-.91-1.213-2.358-1.937-3.873-1.937h-5.709c-1.192 0-2.271-.706-2.749-1.797zm-.622-32.203h9c.352 0 .686.072 1 .184v-13.184c0-.551-.449-1-1-1h-9zm8 2v2.184c.314-.112.648-.184 1-.184.551 0 1-.449 1-1s-.449-1-1-1zm4-8v9c0 1.654-1.346 3-3 3-.551 0-1 .449-1 1s.449 1 1 1h9v-14zm-10 0h2v-2h-2zm0 4h2v-2h-2zm0-8h2v-2h-2z" fill="url(#SVGID_1_)"/></svg>