<svg width="235" height="256" viewBox="0 0 235 256" fill="none" xmlns="http://www.w3.org/2000/svg">
<path d="M141.952 136.224C149.536 136.224 155.712 129.824 155.712 121.936C155.712 114.096 149.568 107.696 141.952 107.696V107.728C134.4 107.728 128.208 114.112 128.192 122C128.192 129.824 134.368 136.224 141.952 136.224Z" fill="#8CE1EB"/>
<path d="M92.688 136.224C100.272 136.224 106.448 129.824 106.448 121.936C106.448 114.096 100.32 107.696 92.736 107.696L92.688 107.728C85.104 107.728 78.928 114.112 78.928 122C78.928 129.824 85.104 136.224 92.688 136.224Z" fill="#8CE1EB"/>
<path d="M27.52 226.096H179.616L172.352 202.576L189.728 217.488L205.648 231.76L234.656 256V26.4C233.936 12.128 221.648 0 206.416 0L27.568 0.0319977C12.352 0.0319977 0 12.176 0 26.448V199.68C0 214.736 12.32 226.096 27.52 226.096V226.096ZM140.032 60.624L139.68 60.752L139.808 60.624H140.032ZM58.624 74.16C78.176 59.936 96.288 60.608 96.288 60.608L97.744 62.048C73.824 67.76 62.96 78.448 62.96 78.448C62.96 78.448 65.856 77.024 70.928 74.864C103.152 62.192 138.336 63.12 170.928 79.152C170.928 79.152 160.064 69.152 137.6 62.752L139.6 60.8C142.704 60.816 159.136 61.392 176.72 74.24C176.72 74.24 196.384 107.84 196.384 149.12C195.728 148.336 184.176 166.896 154.448 167.536C154.448 167.536 149.408 161.84 145.84 156.864C163.232 151.872 169.728 141.888 169.728 141.888C164.016 145.488 158.816 147.616 154.592 149.744C148.096 152.608 141.584 154.016 135.088 155.456C104.32 160.448 87.056 152.096 70.736 145.472L65.152 142.64C65.152 142.64 71.648 152.624 88.336 157.616C83.952 162.624 79.616 168.304 79.616 168.304C49.904 167.6 39.056 149.04 39.056 149.04C39.072 107.696 58.624 74.16 58.624 74.16V74.16Z" fill="#26C6DA"/>
</svg>
