<svg width="256" height="246" viewBox="0 0 256 246" fill="none" xmlns="http://www.w3.org/2000/svg">
<path d="M128 0C57.28 0 0 56.32 0 125.776C0 181.36 36.672 228.496 87.52 245.104C93.92 246.288 96.272 242.4 96.272 239.056C96.272 236.064 96.16 228.16 96.112 217.68C60.512 225.264 52.992 200.8 52.992 200.8C47.168 186.288 38.752 182.4 38.752 182.4C27.152 174.608 39.648 174.752 39.648 174.752C52.496 175.632 59.248 187.712 59.248 187.712C70.656 206.944 89.216 201.392 96.528 198.176C97.68 190.048 100.976 184.496 104.64 181.36C76.208 178.208 46.336 167.392 46.336 119.2C46.336 105.472 51.296 94.256 59.504 85.456C58.064 82.288 53.744 69.488 60.624 52.16C60.624 52.16 71.344 48.784 95.824 65.056C106.064 62.256 116.944 60.88 127.824 60.816C138.704 60.88 149.584 62.256 159.824 65.056C184.144 48.784 194.864 52.16 194.864 52.16C201.744 69.488 197.424 82.272 196.144 85.456C204.304 94.256 209.264 105.472 209.264 119.2C209.264 167.52 179.344 178.16 150.864 181.248C155.344 185.024 159.504 192.736 159.504 204.512C159.504 221.344 159.344 234.864 159.344 238.96C159.344 242.256 161.584 246.192 168.144 244.928C219.36 228.448 256 181.28 256 125.792C256 56.32 198.688 0 128 0V0Z" fill="#26C6DA"/>
</svg>
