<svg width="257" height="257" viewBox="0 0 257 257" fill="none" xmlns="http://www.w3.org/2000/svg">
<path d="M196.339 75.0341C204.813 75.0341 211.683 68.1643 211.683 59.6901C211.683 51.2158 204.813 44.3461 196.339 44.3461C187.865 44.3461 180.995 51.2158 180.995 59.6901C180.995 68.1643 187.865 75.0341 196.339 75.0341Z" fill="#FD907E"/>
<path d="M128.051 62.282C91.7469 62.282 62.3709 91.706 62.3709 127.962C62.3709 164.25 91.7949 193.642 128.051 193.642C164.355 193.642 193.731 164.218 193.731 127.962C193.731 91.658 164.307 62.282 128.051 62.282ZM128.051 170.602C104.499 170.602 85.4109 151.514 85.4109 127.962C85.4109 104.41 104.499 85.322 128.051 85.322C151.603 85.322 170.691 104.394 170.691 127.962C170.691 151.514 151.603 170.602 128.051 170.602Z" fill="#FD907E"/>
<path d="M180.787 0.8101C157.235 -0.2939 98.8989 -0.2459 75.3149 0.8101C54.5949 1.7861 36.323 6.7941 21.603 21.5141C-3.02105 46.1381 0.130953 79.3061 0.130953 127.962C0.130953 177.754 -2.63705 210.17 21.603 234.41C46.307 259.114 79.9709 255.882 128.051 255.882C186.979 255.882 251.459 261.53 255.203 180.698C256.307 157.13 256.259 98.8101 255.203 75.2421C253.091 30.2981 228.963 3.0501 180.787 0.8101V0.8101ZM218.051 218.122C201.907 234.266 179.523 232.826 127.715 232.826C74.387 232.826 52.995 233.61 37.379 217.962C19.395 200.074 22.659 171.338 22.659 127.802C22.659 21.4021 28.7549 22.7621 127.555 22.7621L128.035 23.0821C233.987 23.0821 232.899 29.9461 232.899 127.962C232.915 180.666 233.923 202.186 218.051 218.122V218.122Z" fill="#FC573B"/>
</svg>
