<svg width="256" height="256" viewBox="0 0 256 256" fill="none" xmlns="http://www.w3.org/2000/svg">
<path d="M4.224 85.088H57.296V256H4.224V85.088Z" fill="#FC573B"/>
<path d="M30.736 0C13.776 0 0 13.776 0 30.736C0 47.712 13.776 61.76 30.736 61.76C47.696 61.76 61.472 47.712 61.472 30.736C61.472 13.776 47.696 0 30.736 0V0Z" fill="#FC573B"/>
<path d="M255.936 256L256 255.984V162.096C256 116.16 246.112 80.784 192.416 80.784C166.608 80.784 149.28 94.944 142.208 108.384H141.472V85.072H90.56V255.984H143.584V171.36C143.584 149.072 147.808 127.536 175.408 127.536C202.592 127.536 203.008 152.96 203.008 172.8V256H255.936Z" fill="#FD907E"/>
</svg>
