<svg width="256" height="256" viewBox="0 0 256 256" fill="none" xmlns="http://www.w3.org/2000/svg">
<path d="M128 256C198.656 256 256 198.656 256 128C256 57.344 198.656 0 128 0C57.344 0 0 57.344 0 128C0 198.656 57.344 256 128 256ZM179.968 188.336C171.36 188.352 144.16 158.176 67.76 173.84C65.744 174.352 63.12 175.184 61.616 175.184C51.856 175.184 49.984 160.592 60.48 158.352C102.752 149.008 145.952 149.84 182.8 171.872C191.584 177.488 187.856 188.336 179.968 188.336ZM193.872 154.48C192.672 154.16 193.024 155.216 187.504 152.304C155.248 133.216 107.152 125.52 64.352 137.136C61.872 137.808 60.528 138.48 58.208 138.48C46.784 138.48 43.744 121.296 56.208 117.792C106.512 103.664 160.464 111.904 198.032 134.256C202.224 136.736 203.872 139.936 203.872 144.416C203.824 149.984 199.488 154.48 193.872 154.48V154.48ZM48.512 74.64C96.752 60.512 169.776 64.976 215.168 91.472C226.816 98.176 222.224 115.152 209.856 115.152L209.84 115.136C207.152 115.136 205.504 114.464 203.184 113.12C166.448 91.184 100.736 85.92 58.208 97.792C56.352 98.304 54.016 99.136 51.552 99.136C44.736 99.136 39.536 93.824 39.536 86.96C39.536 79.952 43.872 75.984 48.512 74.64V74.64Z" fill="#FC573B"/>
</svg>
