<svg width="256" height="208" viewBox="0 0 256 208" fill="none" xmlns="http://www.w3.org/2000/svg">
<path d="M229.696 51.872C240.112 44.48 248.864 35.248 256 24.624V24.608C246.48 28.784 236.336 31.552 225.76 32.896C236.64 26.4 244.944 16.192 248.848 3.888C238.704 9.936 227.504 14.208 215.568 16.592C205.936 6.352 192.208 0 177.232 0C148.176 0 124.784 23.584 124.784 52.496C124.784 56.656 125.136 60.656 126 64.464C82.368 62.336 43.76 41.424 17.824 9.56799C13.296 17.424 10.64 26.416 10.64 36.096C10.64 54.272 20 70.384 33.952 79.712C25.52 79.552 17.248 77.104 10.24 73.248V73.824C10.24 99.328 28.432 120.512 52.288 125.392C48.016 126.56 43.36 127.12 38.528 127.12C35.168 127.12 31.776 126.928 28.592 126.224C35.392 147.008 54.688 162.288 77.632 162.784C59.776 176.752 37.104 185.168 12.56 185.168C8.256 185.168 4.128 184.976 0 184.448C23.248 199.44 50.8 208 80.512 208C173.12 208 233.488 130.736 229.696 51.872V51.872Z" fill="#BE63F9"/>
</svg>
