<svg width="800" height="800" viewBox="0 0 800 800" fill="none" xmlns="http://www.w3.org/2000/svg">
<path d="M152.063 251.625C152.581 251.69 153.106 251.69 153.625 251.625C154.123 251.685 154.627 251.685 155.125 251.625C201.346 240.234 243.323 215.808 276.063 181.25L279.063 178.062C279.811 177.295 280.349 176.348 280.625 175.312C284.07 161.885 284.822 147.907 282.838 134.187C280.853 120.467 276.171 107.276 269.063 95.3749C255.003 72.3382 232.73 55.4903 206.736 48.2294C180.743 40.9684 152.963 43.8346 129 56.2499C110.194 66.2009 94.8383 81.6088 84.9512 100.449C75.064 119.289 71.108 140.679 73.603 161.809C76.0981 182.939 84.9273 202.82 98.9306 218.839C112.934 234.858 131.456 246.265 152.063 251.562V251.625ZM88.8752 124.312C92.2475 112.184 98.0616 100.873 105.961 91.071C113.86 81.2695 123.678 73.1847 134.813 67.3124C148.001 60.3325 162.704 56.705 177.625 56.7499C193.826 56.701 209.766 60.8346 223.901 68.7509C238.037 76.6672 249.889 88.098 258.313 101.937C270.663 122.6 274.453 147.27 268.875 170.687L267 172.687C236.271 205.102 196.981 228.139 153.688 239.125C141.873 235.876 130.817 230.322 121.157 222.784C111.496 215.246 103.422 205.872 97.398 195.201C91.3743 184.53 87.5202 172.774 86.0575 160.608C84.5949 148.442 85.5525 136.107 88.8752 124.312Z" fill="white"/>
<path d="M232.562 151.625C232.562 153.283 233.221 154.872 234.393 156.044C235.565 157.217 237.155 157.875 238.812 157.875C240.47 157.875 242.06 157.217 243.232 156.044C244.404 154.872 245.062 153.283 245.062 151.625C243.437 114.625 203.562 83.5 201.875 82.1875C201.22 81.682 200.472 81.3115 199.673 81.0975C198.874 80.8834 198.04 80.83 197.22 80.9405C196.401 81.051 195.611 81.323 194.897 81.7409C194.184 82.1588 193.56 82.7143 193.062 83.375C192.061 84.6934 191.624 86.3552 191.846 87.9956C192.069 89.6361 192.933 91.1212 194.25 92.125C194.562 91.8125 231.25 120.438 232.562 151.625Z" fill="white"/>
<path d="M365.625 298.25C360.242 289.231 351.508 282.708 341.331 280.109C331.154 277.509 320.362 279.043 311.312 284.375L229.125 333.062C224.636 335.722 220.715 339.241 217.588 343.418C214.46 347.595 212.187 352.348 210.898 357.404C209.61 362.46 209.331 367.721 210.077 372.885C210.824 378.049 212.582 383.016 215.25 387.5L256.25 456.75C261.622 465.799 270.368 472.344 280.565 474.946C290.761 477.548 301.574 475.994 310.625 470.625L392.812 421.937C401.851 416.588 408.396 407.869 411.009 397.697C413.623 387.525 412.091 376.731 406.75 367.687L365.625 298.25ZM398.875 394.562C398.001 398.025 396.445 401.279 394.299 404.133C392.152 406.988 389.459 409.386 386.375 411.187L304.25 459.875C298.065 463.531 290.683 464.584 283.723 462.803C276.763 461.022 270.793 456.552 267.125 450.375L251.75 424.5L300 395.937C301.392 395.093 302.399 393.739 302.807 392.163C303.216 390.587 302.993 388.914 302.187 387.5C301.363 386.087 300.018 385.054 298.441 384.621C296.863 384.189 295.179 384.392 293.75 385.187L245.437 413.75L230.812 389.125L313 340.5C314.425 339.654 315.456 338.277 315.867 336.672C316.277 335.066 316.033 333.363 315.187 331.937C314.342 330.512 312.965 329.481 311.359 329.071C309.753 328.66 308.051 328.905 306.625 329.75L225 378.187C222.208 372.161 221.735 365.316 223.672 358.963C225.609 352.61 229.82 347.194 235.5 343.75L317.687 295.062C320.77 293.21 324.188 291.986 327.746 291.461C331.303 290.936 334.93 291.121 338.416 292.004C341.902 292.887 345.178 294.451 348.057 296.607C350.935 298.762 353.359 301.466 355.187 304.562L396.25 374C398.034 377.08 399.184 380.486 399.635 384.017C400.086 387.547 399.827 391.133 398.875 394.562Z" fill="white"/>
<path d="M290.813 252.375C290.292 251.738 289.651 251.209 288.926 250.82C288.201 250.431 287.407 250.189 286.588 250.107C285.769 250.026 284.943 250.107 284.155 250.346C283.368 250.585 282.636 250.977 282 251.5C240 286 207.313 292.063 207 292.125C205.342 292.266 203.809 293.06 202.736 294.331C201.664 295.603 201.14 297.249 201.281 298.906C201.422 300.564 202.216 302.098 203.488 303.17C204.759 304.243 206.405 304.766 208.063 304.625H209.063C210.563 304.625 245.188 298.375 290.313 261.313C290.942 260.765 291.455 260.096 291.821 259.347C292.188 258.597 292.401 257.782 292.447 256.949C292.494 256.116 292.373 255.282 292.092 254.497C291.812 253.711 291.377 252.99 290.813 252.375Z" fill="white"/>
<path d="M347.187 368.063C342.65 370.768 339.367 375.158 338.056 380.275C336.744 385.393 337.511 390.821 340.187 395.375C341.543 397.671 343.349 399.669 345.498 401.247C347.646 402.826 350.092 403.954 352.687 404.563C354.319 404.989 356.001 405.199 357.687 405.188C361.255 405.185 364.755 404.213 367.812 402.375C372.356 399.676 375.656 395.299 377 390.188C377.634 387.622 377.745 384.955 377.326 382.346C376.907 379.737 375.967 377.238 374.562 375C371.846 370.456 367.44 367.175 362.309 365.874C357.177 364.574 351.74 365.361 347.187 368.063ZM364.625 386.813C364.391 387.766 363.965 388.662 363.374 389.447C362.784 390.231 362.039 390.887 361.187 391.375C359.494 392.38 357.471 392.672 355.562 392.188C354.128 391.834 352.832 391.06 351.838 389.967C350.845 388.873 350.2 387.508 349.986 386.047C349.771 384.585 349.997 383.093 350.634 381.76C351.271 380.427 352.29 379.314 353.562 378.563C354.706 377.852 356.029 377.484 357.375 377.5C358.512 377.504 359.633 377.767 360.653 378.268C361.674 378.769 362.567 379.496 363.265 380.393C363.964 381.29 364.449 382.334 364.684 383.446C364.92 384.558 364.9 385.709 364.625 386.813Z" fill="white"/>
<path d="M45.6249 263.688C31.9999 286.5 31.2499 309.688 43.0624 330.875L108.5 441.437C112.208 481.841 123.354 521.211 141.375 557.563C141.724 558.296 142.212 558.954 142.812 559.5L152.687 581.25C155.088 586.486 158.499 591.197 162.725 595.112C166.951 599.027 171.908 602.068 177.312 604.063C182.218 605.861 187.4 606.792 192.625 606.812C201.565 606.802 210.287 604.053 217.617 598.935C224.948 593.817 230.534 586.576 233.625 578.188C235.164 574.056 236.07 569.715 236.312 565.312L264.062 548.875L361.75 713.875C355.067 720.398 350.764 728.974 349.529 738.23C348.294 747.487 350.198 756.891 354.937 764.938L358.437 771.188C361.256 775.84 364.965 779.891 369.352 783.108C373.738 786.325 378.716 788.646 384 789.938C387.402 790.859 390.913 791.321 394.437 791.313C401.871 791.293 409.165 789.286 415.562 785.5L487.5 742.688C492.454 739.642 496.024 734.782 497.448 729.144C498.872 723.505 498.039 717.533 495.125 712.5L481.75 689.875L480.437 687.938L405.437 561.5C404.479 559.889 403.847 558.105 403.579 556.249C403.311 554.394 403.411 552.504 403.875 550.688C404.837 546.992 407.217 543.826 410.5 541.875C413.771 539.975 417.659 539.441 421.321 540.389C424.983 541.337 428.124 543.69 430.062 546.938L504.75 672.5C505.25 673.5 505.75 674.5 506.312 675.5L519.75 698.125C521.722 701.453 524.531 704.208 527.897 706.115C531.263 708.023 535.069 709.018 538.937 709C542.799 709.043 546.608 708.096 550 706.25L621.75 663.688C626.512 660.906 630.677 657.211 634.005 652.813C637.333 648.415 639.758 643.403 641.14 638.064C642.523 632.726 642.836 627.166 642.061 621.706C641.286 616.246 639.438 610.993 636.625 606.25L633.125 600.375C628.376 592.33 621.065 586.11 612.363 582.711C603.661 579.311 594.07 578.929 585.125 581.625L488 417.875L513 402.938C519.559 406.585 526.932 408.52 534.437 408.563C542.578 408.597 550.567 406.36 557.506 402.103C564.445 397.845 570.058 391.736 573.714 384.462C577.371 377.189 578.925 369.039 578.203 360.93C577.48 352.822 574.51 345.075 569.625 338.562L551.75 314.25C527.017 278.657 495.471 248.322 458.937 225L431.25 177.937C442.082 178.634 452.936 176.97 463.062 173.063C466.937 171.75 470.75 170.25 474.562 168.75C483.345 164.852 492.585 162.08 502.062 160.5C514.209 158.981 526.511 161.648 536.937 168.062C542.445 171.648 547.631 175.705 552.437 180.187C560.422 188.096 569.897 194.342 580.312 198.563C584.973 200.09 589.846 200.87 594.75 200.875C618.437 200.875 641.375 182.875 653.875 161.688C656.125 157.75 658.312 153.625 660.5 149.5C668.562 134.312 676.125 119.938 690 115.313C697.095 113.474 704.465 112.945 711.75 113.75C715.312 113.75 718.812 114.063 722.375 113.75C739.437 113.75 752.312 106.375 756.812 95C757.271 93.4908 757.142 91.864 756.452 90.4458C755.761 89.0277 754.56 87.9231 753.089 87.3537C751.618 86.7843 749.986 86.7921 748.52 87.3757C747.055 87.9592 745.864 89.0753 745.187 90.5C742.125 98.375 731.25 101.375 722.125 101.5C718.875 101.5 715.875 101.5 712.312 101.5C703.486 100.535 694.557 101.256 686 103.625C667.25 109.875 657.875 127.938 649.437 143.875C647.375 147.813 645.312 151.75 643.187 155.5C630.687 176.687 606.562 194.25 584.437 186.75C575.593 183.04 567.565 177.624 560.812 170.812C555.467 165.882 549.718 161.408 543.625 157.438C530.738 149.609 515.596 146.33 500.625 148.125C490.131 149.823 479.901 152.869 470.187 157.187C466.5 158.625 462.812 160.062 459.062 161.312C443.687 166.687 431.687 167.187 422.437 162.937L397.437 121.125C369.75 74.4375 326.562 85.1875 311 91.0625C309.312 87.5625 307.625 84.0625 305.625 80.6875C286.723 48.7776 256.381 25.2615 220.764 14.9179C185.148 4.57426 146.929 8.17915 113.875 25C96.4313 34.0734 81.022 46.6099 68.5895 61.8427C56.157 77.0755 46.9626 94.6844 41.5686 113.592C36.1747 132.5 34.6947 152.31 37.219 171.81C39.7433 191.309 46.219 210.089 56.2499 227C58.9374 231.438 61.8124 235.75 64.8749 239.875C57.3878 246.884 50.9094 254.898 45.6249 263.688ZM206.75 518.75L150 546.5C135.58 516.023 126.087 483.452 121.875 450L148.125 447.375C149.739 447.201 151.222 446.406 152.26 445.158C153.299 443.91 153.81 442.306 153.687 440.688C152.456 419.006 153.104 397.258 155.625 375.688C155.741 374.805 155.667 373.908 155.408 373.057C155.15 372.205 154.712 371.419 154.125 370.75C153.534 370.095 152.81 369.572 152.002 369.217C151.194 368.861 150.32 368.681 149.437 368.688H123.437C125.773 354.064 129.093 339.614 133.375 325.438C145.562 331.688 177.625 352.063 178.312 406.688C178.75 442.938 200 500.813 206.75 518.75ZM121.75 381.25H142.437C140.654 399.296 140.132 417.444 140.875 435.563L120.687 437.5C119.238 418.759 119.594 399.923 121.75 381.25ZM221.75 573.562C220.328 577.431 218.154 580.98 215.354 584.005C212.555 587.029 209.184 589.471 205.437 591.187C201.701 592.919 197.659 593.894 193.544 594.058C189.429 594.221 185.322 593.57 181.46 592.141C177.597 590.712 174.055 588.534 171.037 585.732C168.02 582.93 165.585 579.559 163.875 575.812L155.5 557.625L211.75 530.188L220.687 549.625C224.252 557.103 224.702 565.691 221.937 573.5L221.75 573.562ZM234.687 551.375C234.06 548.973 233.223 546.631 232.187 544.375L220.75 518.75C220.444 518.148 220.043 517.599 219.562 517.125C208.3 488.483 199.477 458.94 193.187 428.813L257.687 537.813L234.687 551.375ZM481.25 731.938L409.5 774.438C402.829 778.352 394.881 779.471 387.389 777.551C379.896 775.631 373.466 770.828 369.5 764.187L366 757.937C362.435 751.887 361.192 744.746 362.503 737.846C363.814 730.947 367.589 724.759 373.125 720.437H373.437C373.437 720.437 373.812 720.063 374 719.875C374.187 719.688 375.437 718.75 376.25 718.25L431.25 685.688C435.714 683.037 440.808 681.634 446 681.625C448.488 681.629 450.965 681.944 453.375 682.563C460.459 684.413 466.579 688.879 470.5 695.063L478.062 707.563C478.208 707.806 478.376 708.036 478.562 708.25L484.812 718.437C485.481 719.553 485.92 720.792 486.103 722.08C486.286 723.369 486.209 724.68 485.877 725.939C485.545 727.197 484.965 728.376 484.17 729.406C483.375 730.436 482.382 731.297 481.25 731.938ZM425 527.938C419.862 526.617 414.449 526.849 409.443 528.606C404.438 530.363 400.067 533.565 396.882 537.807C393.697 542.049 391.842 547.141 391.551 552.437C391.261 557.734 392.548 562.998 395.25 567.562L416.5 603.5L367 632.813C365.575 633.658 364.543 635.035 364.133 636.641C363.723 638.247 363.967 639.949 364.812 641.375C365.366 642.308 366.152 643.081 367.094 643.618C368.037 644.155 369.103 644.437 370.187 644.438C371.309 644.437 372.41 644.135 373.375 643.563L422.875 614.25L456.125 670.5C450.872 669.171 445.408 668.889 440.046 669.672C434.684 670.455 429.529 672.287 424.875 675.063L372.125 706.313L191.312 401.25C191.099 400.966 190.869 400.695 190.625 400.438C190.097 374.406 179.788 349.527 161.75 330.75C154.716 323.651 146.513 317.816 137.5 313.5L138.937 309.437C141.15 303.118 144.81 297.403 149.625 292.75L189.625 279.688C222.507 269.036 252.786 251.597 278.5 228.5L317.125 193.75C324.397 193.786 331.661 194.266 338.875 195.187C338.36 204.913 339.502 214.656 342.25 224C347.375 241.625 360.625 266.625 394.75 285.938L395.937 286.375C396.018 286.9 396.187 287.407 396.437 287.875L573.75 587.125L520.937 618.375C511.646 623.922 504.911 632.902 502.187 643.375L477.187 601.687L526.062 572.75C527.423 571.885 528.396 570.528 528.78 568.962C529.164 567.397 528.927 565.743 528.12 564.348C527.314 562.952 525.999 561.922 524.451 561.473C522.903 561.024 521.241 561.19 519.812 561.938L471 590.875L455.312 564.437L480.312 549.5C481.109 549.14 481.822 548.616 482.404 547.964C482.986 547.311 483.424 546.543 483.691 545.71C483.957 544.878 484.046 543.998 483.952 543.129C483.857 542.259 483.581 541.419 483.142 540.663C482.702 539.907 482.109 539.252 481.4 538.74C480.691 538.227 479.883 537.869 479.027 537.689C478.171 537.509 477.287 537.51 476.432 537.693C475.577 537.875 474.77 538.236 474.062 538.75L449.062 553.687L441.062 540.25C439.281 537.194 436.902 534.529 434.067 532.413C431.232 530.297 427.999 528.775 424.562 527.938H425ZM597.187 592.5C602.231 592.513 607.184 593.833 611.566 596.33C615.947 598.827 619.606 602.417 622.187 606.75L625.687 613C629.599 619.661 630.716 627.6 628.796 635.082C626.876 642.564 622.073 648.983 615.437 652.938L543.75 695.125C542.65 695.782 541.432 696.216 540.164 696.402C538.897 696.588 537.605 696.523 536.363 696.209C535.121 695.896 533.953 695.341 532.925 694.575C531.898 693.81 531.031 692.85 530.375 691.75L517.187 669.5C517.214 669.251 517.214 668.999 517.187 668.75L516.5 667.625C513.077 661.032 512.303 653.38 514.336 646.234C516.369 639.089 521.056 632.991 527.437 629.187L582.5 596.562C586.951 593.934 592.019 592.533 597.187 592.5ZM420.312 303.5C441.771 322.781 461.939 343.45 480.687 365.375L499.437 390.875C500.432 392.201 501.496 393.474 502.625 394.688L481.625 407.188L420.312 303.5ZM565.625 369.25C564.79 375.435 562.121 381.229 557.964 385.884C553.807 390.539 548.35 393.843 542.299 395.369C536.247 396.896 529.876 396.575 524.008 394.448C518.14 392.322 513.044 388.487 509.375 383.438L494.375 362.938L545.562 326.625L559.812 346C562.282 349.292 564.068 353.045 565.067 357.038C566.065 361.031 566.255 365.183 565.625 369.25ZM538.187 316.5L486.625 353.125C474.125 338.625 433.125 292.875 402.125 274.313C401.056 273.727 399.84 273.466 398.625 273.563C353.687 247.063 350.625 210.5 351.25 196.812C369.345 199.973 387.079 204.935 404.187 211.625L391.687 234.437C391.277 235.16 391.013 235.956 390.91 236.78C390.807 237.604 390.868 238.441 391.089 239.242C391.309 240.043 391.685 240.792 392.196 241.448C392.706 242.104 393.34 242.652 394.062 243.063C394.785 243.473 395.581 243.737 396.405 243.84C397.229 243.942 398.066 243.882 398.867 243.661C399.668 243.441 400.417 243.065 401.073 242.554C401.728 242.044 402.277 241.41 402.687 240.687L415.687 216.687L423.687 220.438L416.5 231.25C415.607 232.643 415.303 234.333 415.655 235.95C416.006 237.567 416.984 238.978 418.375 239.875C419.381 240.525 420.552 240.872 421.75 240.875C422.796 240.873 423.824 240.609 424.741 240.107C425.659 239.605 426.435 238.88 427 238L435.062 225.5C475.855 247.676 511.108 278.784 538.187 316.5ZM386.625 127.437L437.062 212.5C423.924 205.653 410.28 199.823 396.25 195.062C372.406 186.89 347.498 182.237 322.312 181.25C327.658 154.933 325.492 127.644 316.062 102.5C328.562 97.5 363.625 88.625 386.625 127.437ZM53.6874 117.187C58.5435 99.8886 66.9095 83.7749 78.2643 69.8502C89.6192 55.9254 103.72 44.4879 119.687 36.25C138.184 26.5847 158.755 21.5653 179.625 21.625C202.84 21.5451 225.674 27.5289 245.866 38.9843C266.058 50.4396 282.908 66.9694 294.75 86.9375C311.905 116.242 317.035 151.055 309.062 184.063L269.875 219.188C245.426 241.103 216.664 257.666 185.437 267.812L145.937 280.688C129.087 276.104 113.314 268.222 99.5331 257.497C85.7521 246.772 74.2373 233.418 65.6562 218.209C57.0751 203 51.5985 186.239 49.544 168.898C47.4895 151.557 48.8978 133.98 53.6874 117.187ZM134.937 290.25C131.484 294.799 128.764 299.86 126.875 305.25C118.809 327.841 113.152 351.221 110 375C108.236 388.198 107.338 401.497 107.312 414.813L53.8749 324.625C34.6249 290.5 61.7499 259.938 72.6249 249.625C89.4523 268.422 110.949 282.437 134.937 290.25Z" fill="white"/>
<path d="M677.25 507.75C678.628 507.813 679.989 507.418 681.12 506.627C682.25 505.835 683.087 504.692 683.5 503.375C686.682 493.073 692.33 483.703 699.954 476.079C707.578 468.455 716.948 462.807 727.25 459.625C728.567 459.213 729.71 458.376 730.502 457.245C731.293 456.114 731.688 454.754 731.625 453.375C731.688 451.996 731.293 450.636 730.502 449.505C729.71 448.375 728.567 447.538 727.25 447.125C716.958 443.924 707.598 438.269 699.977 430.648C692.355 423.027 686.701 413.667 683.5 403.375C683.099 402.046 682.267 400.889 681.135 400.086C680.003 399.282 678.636 398.878 677.25 398.938C675.863 398.878 674.496 399.282 673.365 400.086C672.233 400.889 671.401 402.046 671 403.375C667.789 413.662 662.131 423.017 654.511 430.637C646.891 438.257 637.537 443.915 627.25 447.125C625.921 447.526 624.764 448.358 623.96 449.49C623.157 450.622 622.753 451.988 622.812 453.375C622.753 454.762 623.157 456.129 623.96 457.26C624.764 458.392 625.921 459.224 627.25 459.625C637.547 462.816 646.912 468.468 654.534 476.091C662.157 483.713 667.808 493.078 671 503.375C671.412 504.692 672.249 505.835 673.38 506.627C674.51 507.418 675.871 507.813 677.25 507.75ZM645.312 453.438C658.839 446.127 669.939 435.027 677.25 421.5C684.583 435.032 695.704 446.131 709.25 453.438C695.686 460.75 684.562 471.874 677.25 485.438C669.961 471.879 658.857 460.753 645.312 453.438Z" fill="white"/>
<path d="M736.625 313.75C736.224 312.421 735.392 311.264 734.26 310.461C733.128 309.657 731.762 309.253 730.375 309.313C728.988 309.253 727.621 309.657 726.49 310.461C725.358 311.264 724.526 312.421 724.125 313.75C722.359 319.459 719.228 324.652 715.002 328.877C710.776 333.103 705.584 336.234 699.875 338C698.558 338.413 697.415 339.25 696.623 340.38C695.832 341.511 695.437 342.871 695.5 344.25C695.437 345.629 695.832 346.989 696.623 348.12C697.415 349.251 698.558 350.088 699.875 350.5C705.693 352.068 711.032 355.052 715.416 359.185C719.8 363.318 723.092 368.472 725 374.188C725.401 375.516 726.233 376.673 727.365 377.477C728.496 378.28 729.863 378.684 731.25 378.625C732.637 378.684 734.003 378.28 735.135 377.477C736.267 376.673 737.099 375.516 737.5 374.188C739.196 368.58 742.208 363.458 746.285 359.251C750.362 355.043 755.386 351.872 760.937 350C762.254 349.587 763.398 348.751 764.189 347.62C764.981 346.489 765.376 345.129 765.312 343.75C765.376 342.371 764.981 341.011 764.189 339.88C763.398 338.75 762.254 337.913 760.937 337.5C755.277 335.782 750.113 332.727 745.882 328.593C741.65 324.46 738.475 319.369 736.625 313.75ZM730.375 357.875C726.811 352.313 722.18 347.512 716.75 343.75C722.284 340.112 727.024 335.392 730.687 329.875C734.327 335.39 739.047 340.111 744.562 343.75C739.042 347.486 734.325 352.289 730.687 357.875H730.375Z" fill="white"/>
<path d="M95.4373 733C95.833 734.274 96.6257 735.388 97.6996 736.178C98.7735 736.969 100.072 737.396 101.406 737.396C102.74 737.396 104.039 736.969 105.113 736.178C106.187 735.388 106.979 734.274 107.375 733C109.033 727.645 111.972 722.775 115.936 718.811C119.9 714.847 124.77 711.908 130.125 710.25C131.453 709.849 132.611 709.017 133.414 707.885C134.218 706.753 134.622 705.387 134.562 704C134.622 702.613 134.218 701.246 133.414 700.115C132.611 698.983 131.453 698.151 130.125 697.75C124.765 696.101 119.889 693.166 115.924 689.201C111.959 685.235 109.024 680.36 107.375 675C106.979 673.726 106.187 672.612 105.113 671.821C104.039 671.03 102.74 670.604 101.406 670.604C100.072 670.604 98.7735 671.03 97.6996 671.821C96.6257 672.612 95.833 673.726 95.4373 675C93.7887 680.36 90.8536 685.235 86.8882 689.201C82.9228 693.166 78.0475 696.101 72.6873 697.75C71.3587 698.151 70.2015 698.983 69.398 700.115C68.5945 701.246 68.1906 702.613 68.2498 704C68.1906 705.387 68.5945 706.753 69.398 707.885C70.2015 709.017 71.3587 709.849 72.6873 710.25C78.0424 711.908 82.9126 714.847 86.8766 718.811C90.8406 722.775 93.779 727.645 95.4373 733ZM101.687 691.75C105.01 696.683 109.255 700.927 114.187 704.25C109.241 707.557 104.994 711.804 101.687 716.75C98.3595 711.821 94.116 707.578 89.1873 704.25C94.0125 700.881 98.1669 696.642 101.437 691.75H101.687Z" fill="white"/>
</svg>
