<svg width="739" height="742" viewBox="0 0 739 742" fill="none" xmlns="http://www.w3.org/2000/svg">
<path d="M737.45 17.8906C736.8 8.3906 729.125 0.890599 719.625 0.465599H719.575C566.05 -6.2594 429.875 59.8406 308.15 200.441H68.75C60 200.441 52.675 206.416 50.6 214.516L50.575 214.641L0.575 414.641C0.225 415.991 0.0250012 417.566 0.0250012 419.166C0.0250012 429.516 8.4 437.916 18.775 437.941H151.325C143.125 453.641 134.95 469.416 126.9 485.991C125.725 488.391 125.025 491.216 125.025 494.191C125.025 499.366 127.125 504.066 130.525 507.491L230.525 607.491C233.925 610.866 238.6 612.966 243.775 612.966C246.875 612.966 249.775 612.216 252.35 610.916L252.25 610.966C268.283 602.849 284.208 594.607 300.025 586.241V723.141C300.025 723.166 300.025 723.166 300.025 723.191C300.025 733.516 308.4 741.891 318.725 741.891C318.75 741.891 318.75 741.891 318.775 741.891C320.4 741.891 321.95 741.691 323.45 741.316L323.3 741.341L523.3 691.341C531.525 689.216 537.5 681.866 537.5 673.141V433.516C665.075 328.216 749.875 197.291 737.45 17.9406V17.8906ZM42.775 400.441L83.4 237.941H277.375C240.8 285.166 205.775 338.291 174.85 393.991L171.575 400.441H42.775ZM500 658.441L337.5 699.066V565.791C400.25 531.466 453.35 497.366 503.95 460.016L500 462.791V658.441ZM247.4 571.291L166.5 490.391C316.975 185.891 491.175 37.4906 698.35 37.4906L700.95 37.5156C709.15 295.741 489.925 447.166 247.4 571.291ZM543.75 125.441C505.775 125.441 475 156.216 475 194.191C475 232.166 505.775 262.941 543.75 262.941C581.725 262.941 612.5 232.166 612.5 194.191C612.45 156.241 581.7 125.491 543.75 125.441ZM543.75 225.441C526.5 225.441 512.5 211.441 512.5 194.191C512.5 176.941 526.5 162.941 543.75 162.941C561 162.941 575 176.941 575 194.191C574.975 211.441 561 225.416 543.75 225.441ZM80.75 575.491L68.85 575.441C59.875 577.241 54.175 580.091 51.325 587.216L1.325 712.216C0.474999 714.266 0 716.666 0 719.166C0 729.516 8.375 737.916 18.75 737.941C21.25 737.941 23.65 737.441 25.85 736.566L25.725 736.616L150.825 686.716C157.5 683.966 162.2 677.691 162.6 670.266V670.216C163.125 660.116 163.8 651.366 164.375 643.841C166.325 618.691 167.625 602.041 156.125 589.541C143.425 575.766 125.1 575.666 80.775 575.466L80.75 575.491ZM126.975 640.966C126.6 645.616 126.2 650.691 125.825 656.291L52.375 685.591L81.4 612.991C103.8 613.091 124.725 613.191 127.65 613.666C127.925 616.791 128.075 620.416 128.075 624.091C128.075 630.041 127.675 635.891 126.9 641.641L126.975 640.966Z" fill="#F8F9FA"/>
</svg>
