<?xml version="1.0" standalone="no"?>
<!DOCTYPE svg PUBLIC "-//W3C//DTD SVG 20010904//EN"
 "http://www.w3.org/TR/2001/REC-SVG-20010904/DTD/svg10.dtd">
<svg version="1.0" xmlns="http://www.w3.org/2000/svg"
 width="240.000000pt" height="240.000000pt" viewBox="0 0 240.000000 240.000000"
 preserveAspectRatio="xMidYMid meet">
<metadata>
Created by potrace 1.14, written by Peter Selinger 2001-2017
</metadata>
<g transform="translate(0.000000,240.000000) scale(0.100000,-0.100000)"
fill="#000000" stroke="none">
<path d="M1105 2394 c-11 -2 -45 -9 -75 -15 -227 -45 -444 -211 -563 -430
-111 -204 -128 -469 -45 -729 37 -116 110 -265 180 -368 64 -93 196 -233 272
-287 31 -22 56 -43 56 -46 0 -4 -16 -21 -35 -38 -24 -21 -66 -40 -138 -61
-194 -59 -237 -79 -299 -140 -43 -43 -60 -69 -72 -110 -19 -63 -21 -141 -4
-158 17 -17 1639 -17 1656 0 19 19 14 112 -8 172 -39 104 -124 164 -305 217
-61 17 -129 40 -151 51 -39 18 -93 64 -83 71 2 2 27 20 55 40 74 53 221 210
282 302 232 347 287 739 147 1042 -139 301 -447 497 -775 492 -41 -1 -84 -3
-95 -5z m282 -109 c314 -73 551 -358 570 -686 17 -285 -114 -610 -339 -845
-189 -197 -368 -266 -531 -204 -224 85 -468 373 -567 668 -58 174 -73 338 -44
480 87 424 490 684 911 587z m-177 -1849 c61 0 101 6 141 21 l55 20 33 -39
c41 -49 96 -77 246 -123 66 -21 134 -44 150 -52 61 -31 104 -83 119 -146 l6
-27 -745 0 c-730 0 -745 0 -745 19 0 54 47 119 111 152 21 10 86 33 145 50
137 40 211 77 255 126 l34 39 55 -20 c39 -14 80 -20 140 -20z"/>
<path d="M958 2159 c-36 -21 -16 -79 27 -79 42 0 59 44 29 74 -18 18 -32 20
-56 5z"/>
<path d="M743 2015 c-24 -25 -60 -70 -80 -100 -32 -48 -35 -58 -25 -80 9 -18
19 -25 41 -25 24 0 34 8 54 43 14 23 46 64 71 92 49 53 55 74 30 99 -25 25
-45 19 -91 -29z"/>
<path d="M725 1565 c-60 -16 -109 -65 -125 -127 -49 -180 161 -429 362 -431
73 0 111 16 156 67 94 108 23 322 -145 437 -80 55 -170 75 -248 54z m162 -110
c99 -50 176 -160 177 -253 1 -47 -3 -57 -27 -78 -79 -68 -261 22 -326 160 -30
65 -29 139 4 171 34 34 103 34 172 0z"/>
<path d="M1582 1569 c-151 -29 -303 -192 -319 -341 -19 -182 140 -275 322
-190 82 39 171 125 209 203 94 195 -16 366 -212 328z m124 -113 c57 -48 27
-174 -63 -264 -58 -57 -111 -84 -178 -90 -40 -3 -55 0 -77 17 -74 59 -23 216
99 306 82 60 171 73 219 31z"/>
<path d="M1088 909 c-25 -14 -24 -65 1 -79 11 -5 67 -10 125 -10 93 0 109 3
126 20 11 11 20 25 20 30 0 6 -9 19 -20 30 -18 18 -33 20 -127 20 -60 0 -116
-5 -125 -11z"/>
</g>
</svg>
