<svg width="92" height="92" viewBox="0 0 92 92" fill="none" xmlns="http://www.w3.org/2000/svg">
<path d="M90.1553 41.8503L50.0363 1.73325C47.7263 -0.57775 43.9793 -0.57775 41.6673 1.73325L33.3372 10.0653L43.9043 20.6322C46.3603 19.8022 49.1763 20.3592 51.1333 22.3172C53.1023 24.2872 53.6543 27.1273 52.8033 29.5923L62.9893 39.7772C65.4543 38.9272 68.2963 39.4772 70.2643 41.4482C73.0143 44.1982 73.0143 48.6542 70.2643 51.4062C67.5123 54.1572 63.0563 54.1572 60.3033 51.4062C58.2353 49.3363 57.7233 46.2962 58.7723 43.7482L49.2723 34.2492V59.2463C49.9423 59.5783 50.5753 60.0203 51.1333 60.5783C53.8833 63.3283 53.8833 67.7843 51.1333 70.5373C48.3833 73.2863 43.9243 73.2863 41.1763 70.5373C38.4263 67.7833 38.4263 63.3273 41.1763 60.5783C41.8563 59.8993 42.6432 59.3852 43.4832 59.0412V33.8112C42.6432 33.4672 41.8583 32.9583 41.1763 32.2743C39.0933 30.1923 38.5923 27.1343 39.6603 24.5763L29.2432 14.1573L1.73325 41.6642C-0.57775 43.9772 -0.57775 47.7242 1.73325 50.0352L41.8543 90.1533C44.1643 92.4643 47.9103 92.4643 50.2233 90.1533L90.1553 50.2212C92.4663 47.9102 92.4663 44.1613 90.1553 41.8503Z" fill="#F05133"/>
</svg>
